<svg xmlns="http://www.w3.org/2000/svg" viewBox="0 0 496 496"><defs><style>.cls-1{fill:#0073ca;}</style></defs><title>brain 6</title><g id="Слой_2" data-name="Слой 2"><g id="Capa_1" data-name="Capa 1"><path class="cls-1" d="M464,264a47.94,47.94,0,0,0-2.22-14.41A80,80,0,0,0,447.1,110.33,56.08,56.08,0,0,0,398.45,64.4,79.91,79.91,0,0,0,248,45.36a79.91,79.91,0,0,0-150.45,19A56.07,56.07,0,0,0,48.9,110.33,80,80,0,0,0,34.22,249.58,47.68,47.68,0,0,0,37,285.22,71.93,71.93,0,0,0,65.69,404.43a48.11,48.11,0,0,0,33.5,33.78A79.89,79.89,0,0,0,248,450.64a79.91,79.91,0,0,0,148.86-12.53,48.09,48.09,0,0,0,33.37-33.66A71.92,71.92,0,0,0,459,285.22,47.5,47.5,0,0,0,464,264Zm0,72a56,56,0,0,1-112,0H336a72.08,72.08,0,0,0,72,72c1.26,0,2.5-.13,3.75-.19a32.16,32.16,0,0,1-22.69,15.65l-5.4.86-1.17,5.34A64,64,0,0,1,256,416V400H240v16a64,64,0,0,1-123.42,23.77A48.05,48.05,0,0,0,160,392H144a32,32,0,1,1-32-32V344a48.06,48.06,0,0,0-47.69,42.7A56,56,0,0,1,88,280a55.37,55.37,0,0,1,35,12.28l10-12.49A72.23,72.23,0,0,0,88,264a71.42,71.42,0,0,0-38,11,31.89,31.89,0,0,1,30-43V216a47.9,47.9,0,0,0-38.3,19.18,63.86,63.86,0,0,1,7-106.94A56,56,0,0,0,104,176V160a40,40,0,0,1-7.94-79.2,79.56,79.56,0,0,0,44.38,70.88l7.13-14.33A64,64,0,1,1,240,80V384h16V80A64,64,0,0,1,382.18,65,56.15,56.15,0,0,0,343.5,92l13.86,8A40,40,0,1,1,392,160v16a56,56,0,0,0,55.32-47.75,63.86,63.86,0,0,1,7,106.94A47.89,47.89,0,0,0,396.8,220l6.41,14.66A31.93,31.93,0,0,1,446,275a71.44,71.44,0,0,0-38-11v16A56.07,56.07,0,0,1,464,336Z"/><path class="cls-1" d="M324,240a36,36,0,0,1,0-72V152a52,52,0,1,0,52,52H360A36,36,0,0,1,324,240Z"/><path class="cls-1" d="M184,280c-13.23,0-24-10.77-24-23.3l.3-8-6.61-1.33A32,32,0,0,1,160,184V168a48,48,0,0,0-15.64,93.38A40,40,0,0,0,224,256H208A24,24,0,0,1,184,280Z"/><rect class="cls-1" x="416" y="320" width="16" height="16"/><rect class="cls-1" x="288" y="416" width="16" height="16"/><rect class="cls-1" x="144" y="328" width="16" height="16"/><rect class="cls-1" x="192" y="72" width="16" height="16"/><rect class="cls-1" x="160" y="208" width="16" height="16"/><rect class="cls-1" x="384" y="104" width="16" height="16"/></g></g></svg>