<svg xmlns="http://www.w3.org/2000/svg" viewBox="0 0 457 459.39"><defs><style>.cls-1{fill:#0073ca;}</style></defs><title>cancer 12</title><g id="Слой_2" data-name="Слой 2"><g id="Слой_1-2" data-name="Слой 1"><g id="Слой_1-3" data-name="Слой_1"><circle class="cls-1" cx="229.7" cy="200.99" r="9.56"/><circle class="cls-1" cx="210.55" cy="248.84" r="9.56"/><circle class="cls-1" cx="258.4" cy="229.7" r="9.56"/><path class="cls-1" d="M220.14,325.4a45,45,0,0,0-9,.94,47.34,47.34,0,0,0-38.8-20.06,47.85,47.85,0,1,0,0,95.7,44.93,44.93,0,0,0,9-.94,47.29,47.29,0,0,0,38.84,20.09,47.87,47.87,0,0,0,0-95.74Zm0,76.59a28.46,28.46,0,0,1-25.76-16.31,9.6,9.6,0,0,0-8.61-5.41,10.28,10.28,0,0,0-3.42.62c-19.91,7.56-38.8-7.63-38.8-26.74a28.78,28.78,0,0,1,28.74-28.74A28.41,28.41,0,0,1,198,341.71a9.58,9.58,0,0,0,12,4.8c19.95-7.56,38.84,7.63,38.84,26.78A28.76,28.76,0,0,1,220.14,402Z"/><path class="cls-1" d="M315.84,105.29A19.14,19.14,0,0,1,296.7,124.4v19.15A38.32,38.32,0,0,0,335,105.29Z"/><path class="cls-1" d="M181.85,47.85A19.15,19.15,0,0,1,162.7,67V86.15A38.35,38.35,0,0,0,201,47.85Z"/><path class="cls-1" d="M67,162.7a19.15,19.15,0,0,1-19.15,19.15V201a38.35,38.35,0,0,0,38.3-38.3Z"/><path class="cls-1" d="M67,287.14H47.85a38.32,38.32,0,0,0,38.3,38.26V306.29A19.17,19.17,0,0,1,67,287.14Z"/><path class="cls-1" d="M457,196.45C440.83,85.49,345.05,0,229.7,0,103,0,0,103,0,229.7s103,229.7,229.7,229.7a227.66,227.66,0,0,0,63.69-9q3.71-8.88,3.52-21.15a209,209,0,0,1-67.22,11c-116.12,0-210.55-94.47-210.55-210.59A209.56,209.56,0,0,1,69.83,92.9C83.17,106.27,86.58,115.39,90.54,126c4.11,11,8.79,23.54,25.11,39.86a107.92,107.92,0,0,0,17.55,14.5l10.43-16.06a90.84,90.84,0,0,1-14.42-12c-13.37-13.37-16.79-22.49-20.75-33-4.14-11-8.79-23.54-25.14-39.86l-.51-.33A209.72,209.72,0,0,1,229.7,19.15c105.26,0,192.71,77.61,208.15,178.58C444,197.14,450.42,196.71,457,196.45ZM305.12,303.6c-9.12-6.29-17-9.23-24.23-11.92-1.67-.62-3.31-1.24-4.9-1.89a41.07,41.07,0,0,0,7.88-5.92A37.81,37.81,0,0,0,295,256.73a38,38,0,0,0,0-54.06,38,38,0,0,0-38-38.22h-.22a37.82,37.82,0,0,0-49.3-4,106.91,106.91,0,0,0-22.2-10.65c-10.54-4-19.66-7.34-33-20.67s-16.79-22.49-20.71-33a130.4,130.4,0,0,0-6-14.28l-17.08,8.61a128.87,128.87,0,0,1,5.16,12.35c4.11,11,8.79,23.54,25.07,39.86s28.81,21,39.86,25.07c1.71.65,3.38,1.27,5,1.93a37.06,37.06,0,0,0-8,5.92,37.72,37.72,0,0,0-11.12,27.1,38,38,0,0,0,0,54.06,37.72,37.72,0,0,0,11.12,27.1A37.19,37.19,0,0,0,202.67,295a37.75,37.75,0,0,0,49.3,4,106.23,106.23,0,0,0,22.24,10.65c7,2.65,13.33,5,20.71,10.25ZM275.62,254A18.9,18.9,0,0,1,254,275.62l-5.63-.8L245,279.36c-7.38,9.88-23.18,9.88-30.52,0L211,274.82l-5.63.8A18.9,18.9,0,0,1,183.77,254l.84-5.6L180,245a19,19,0,0,1,0-30.56l4.58-3.42-.84-5.63a18.94,18.94,0,0,1,21.62-21.62l5.63.84,3.42-4.58c7.34-9.85,23.18-9.85,30.52,0l3.42,4.58,5.63-.84a18.9,18.9,0,0,1,21.62,21.62l-.84,5.63,4.58,3.38a18.93,18.93,0,0,1,0,30.59l-4.58,3.38Z"/><rect class="cls-1" x="373.25" y="181.85" width="19.15" height="19.15"/><rect class="cls-1" x="229.7" y="57.41" width="19.15" height="19.15"/><rect class="cls-1" x="210.55" y="363.69" width="19.15" height="19.15"/><rect class="cls-1" x="38.3" y="239.29" width="19.15" height="19.15"/><path class="cls-1" d="M322.46,341.31l3.85,20.38c12.72-2.4,43.42-19.15,54.86-46.32,8.79-21,.51-52.36-1.34-62.13l-20.38,3.81c1,5.38,9.16,34.63,1.6,53.19C352.72,330.59,328.34,340.19,322.46,341.31Z"/></g></g></g></svg>