<svg xmlns="http://www.w3.org/2000/svg" viewBox="0 0 496 496"><defs><style>.cls-1{fill:#0073ca;}</style></defs><title>cellls 2</title><g id="Слой_2" data-name="Слой 2"><g id="Capa_1" data-name="Capa 1"><path class="cls-1" d="M280,344a48,48,0,1,0,28.82,86.4l-9.62-12.8A31.67,31.67,0,0,1,280,424a32,32,0,1,1,27.63-15.86l13.82,8.1A48,48,0,0,0,280,344Z"/><path class="cls-1" d="M280,288A104,104,0,1,0,384,392,104.12,104.12,0,0,0,280,288Zm0,192a88,88,0,1,1,88-88A88.1,88.1,0,0,1,280,480Z"/><path class="cls-1" d="M112,336c0-22.43-24.6-40-56-40S0,313.57,0,336s24.6,40,56,40S112,358.43,112,336ZM56,360c-21.68,0-40-11-40-24s18.32-24,40-24,40,11,40,24S77.68,360,56,360Z"/><rect class="cls-1" x="48" y="328" width="16" height="16"/><path class="cls-1" d="M376,80c31.4,0,56-17.57,56-40S407.4,0,376,0s-56,17.57-56,40S344.6,80,376,80Zm0-64c21.68,0,40,11,40,24s-18.32,24-40,24-40-11-40-24S354.32,16,376,16Z"/><rect class="cls-1" x="368" y="32" width="16" height="16"/><path class="cls-1" d="M104,400a24,24,0,1,0,24,24A24,24,0,0,0,104,400Zm0,32a8,8,0,1,1,8-8A8,8,0,0,1,104,432Z"/><path class="cls-1" d="M152,240a24,24,0,1,0,24,24A24,24,0,0,0,152,240Zm0,32a8,8,0,1,1,8-8A8,8,0,0,1,152,272Z"/><path class="cls-1" d="M464,312a32,32,0,1,0,32,32A32,32,0,0,0,464,312Zm0,48a16,16,0,1,1,16-16A16,16,0,0,1,464,360Z"/><path class="cls-1" d="M496,216a56,56,0,1,0-56,56A56.07,56.07,0,0,0,496,216Zm-96,0a40,40,0,1,1,40,40A40,40,0,0,1,400,216Z"/><path class="cls-1" d="M464,216a24,24,0,1,0-24,24A24,24,0,0,0,464,216Zm-32,0a8,8,0,1,1,8,8A8,8,0,0,1,432,216Z"/><path class="cls-1" d="M122.42,210.29a243.51,243.51,0,0,0,78.52,13.55c54.74,0,100.1-21.06,114.41-58.17,7.34-19,6-40.39-4-61.74C293.61,65.8,251.07,32.07,197.58,13.7,112-15.7,25.47,4.32,4.66,58.32c-7.34,19-6,40.39,4,61.74C26.39,158.18,68.93,191.92,122.42,210.29ZM19.58,64.07C31.49,33.18,70.28,15.9,117.93,15.9c23.39,0,48.93,4.18,74.46,12.94C241.1,45.58,281.14,77,296.87,110.7c8.06,17.31,9.29,34.34,3.55,49.22-17.77,46.06-95.29,61.86-172.81,35.23C78.9,178.42,38.86,147,23.13,113.3,15.07,96,13.84,79,19.58,64.07Z"/><path class="cls-1" d="M138.82,165.59c22.47,7.31,44,10.5,62.84,10.5,35.53,0,61.91-11.28,68.56-27.61,3-7.45,2.19-16.61-2.39-26.49-9.36-20.14-37-47.43-86.64-63.58C116.44,37.34,60,50.5,49.78,75.51c-3,7.45-2.19,16.61,2.39,26.5C61.53,122.15,89.2,149.44,138.82,165.59Zm-74.22-84C68.2,72.7,88.71,64,118.63,64a187.39,187.39,0,0,1,57.6,9.64c44.78,14.58,69.5,38.8,77.08,55.11,2.6,5.58,3.36,10.58,2.09,13.72-5.62,13.78-52.27,27.23-111.63,7.92C99,135.8,74.26,111.58,66.69,95.26,64.09,89.68,63.33,84.68,64.6,81.54Z"/></g></g></svg>