<svg xmlns="http://www.w3.org/2000/svg" viewBox="0 0 496 493.96"><defs><style>.cls-1{fill:#0073ca;}</style></defs><title>dermis 9</title><g id="Слой_2" data-name="Слой 2"><g id="Capa_1" data-name="Capa 1"><path class="cls-1" d="M66.34,355.62A63.07,63.07,0,0,0,110.62,374H120V358h-9.38a47,47,0,0,1-33-13.66A63.07,63.07,0,0,0,33.38,326H32v16h1.38A47,47,0,0,1,66.34,355.62Z"/><path class="cls-1" d="M56,430a24,24,0,1,0-24-24A24,24,0,0,0,56,430Zm0-32a8,8,0,1,1-8,8A8,8,0,0,1,56,398Z"/><path class="cls-1" d="M152,366a24,24,0,1,0,24,24A24,24,0,0,0,152,366Zm0,32a8,8,0,1,1,8-8A8,8,0,0,1,152,398Z"/><path class="cls-1" d="M320,414a24,24,0,1,0,24,24A24,24,0,0,0,320,414Zm0,32a8,8,0,1,1,8-8A8,8,0,0,1,320,446Z"/><path class="cls-1" d="M112,414a24,24,0,0,0-24,24,24.41,24.41,0,0,0,.5,4.86c-1.57-.42-3.14-.84-4.7-1.35a69,69,0,0,0-52.1,3.7l-3.28,1.64,7.16,14.31,3.28-1.64a52.75,52.75,0,0,1,39.88-2.83A104.62,104.62,0,0,0,112,462a24,24,0,0,0,0-48Zm0,32a8,8,0,1,1,8-8A8,8,0,0,1,112,446Z"/><path class="cls-1" d="M328,334a24,24,0,1,0,24,24A24,24,0,0,0,328,334Zm0,32a8,8,0,1,1,8-8A8,8,0,0,1,328,366Z"/><path class="cls-1" d="M386.46,328.65l-14-9.34-8.87,13.31,14,9.34a14.42,14.42,0,0,1,0,24l-14,9.34,8.87,13.31,14-9.34a30.42,30.42,0,0,0,0-50.62Z"/><path class="cls-1" d="M416,393.27v6.16a24,24,0,1,0,16,0v-6.16A19.31,19.31,0,0,1,451.31,374H464V358H451.31A35.32,35.32,0,0,0,416,393.27ZM432,422a8,8,0,1,1-8-8A8,8,0,0,1,432,422Z"/><path class="cls-1" d="M447.78,294a40.14,40.14,0,0,0-42.83-3.1A47.15,47.15,0,0,0,392,286.78v-3.94a226.67,226.67,0,0,1,34.44-120.1l20.34-32.54-13.56-8.49-20.34,32.54A243,243,0,0,0,376,282.84v3.94a47.15,47.15,0,0,0-12.94,4.08,40,40,0,0,0-38.83.46,55.63,55.63,0,0,0-70-1.88C282.2,117.13,396,13.09,397.34,11.92L386.66,0c-1.38,1.22-122.29,111.61-149.28,294H178.3A48.14,48.14,0,0,0,129,291.88c-.32-.16-.66-.27-1-.42v-9.62A348.31,348.31,0,0,1,179.68,99.24l35.14-57.1-13.62-8.39-35.14,57.1a364.59,364.59,0,0,0-54.06,191v4.77a56,56,0,0,0-29.74,3.76,40.49,40.49,0,0,0-42,3.6H0V494H496V294ZM240,374a32,32,0,1,1-32,32A32,32,0,0,1,240,374ZM480,478H16V310H46l2.26-2A23.7,23.7,0,0,1,77.38,306l3.94,2.66,4.22-2.2A40.16,40.16,0,0,1,125,308l4.47,2.76,4.3-3a32.06,32.06,0,0,1,37.24.66l2.13,1.58h62.14q-2.7,23.6-3.11,48.7a48,48,0,1,0,16,0A478.36,478.36,0,0,1,251.34,310h4.52l2.38-2.66A40,40,0,0,1,288,294,39.56,39.56,0,0,1,317.51,307l5.2,5.7,5.88-5a23.47,23.47,0,0,1,29.48-1.13l4.38,3.19,4.59-2.88a31.83,31.83,0,0,1,33.9,0l4.59,2.88,4.38-3.19A23.51,23.51,0,0,1,439.7,308l2.26,2h38Z"/><rect class="cls-1" x="184" y="341.96" width="16" height="16"/><rect class="cls-1" x="136" y="325.96" width="16" height="16"/><rect class="cls-1" x="368" y="445.96" width="16" height="16"/><rect class="cls-1" x="424" y="325.96" width="16" height="16"/></g></g></svg>