<svg xmlns="http://www.w3.org/2000/svg" viewBox="0 0 496 464"><defs><style>.cls-1{fill:#0073ca;}</style></defs><title>Ресурс 1</title><g id="Слой_2" data-name="Слой 2"><g id="Capa_1" data-name="Capa 1"><path class="cls-1" d="M264,0C175.32,0,93.54,51.44,55,131.26a119.77,119.77,0,0,0,0,201.49C93.54,412.56,175.32,464,264,464c127.92,0,232-104.08,232-232S391.92,0,264,0Zm0,448c-83.29,0-160-48.75-195.53-124.19l-1-2.15-2-1.25a103.77,103.77,0,0,1,0-176.82l2-1.25,1-2.15C104,64.75,180.71,16,264,16c119.1,0,216,96.9,216,216S383.1,448,264,448Z"/><path class="cls-1" d="M136.12,334.39a153.48,153.48,0,0,0,14.11-17.92L137,307.54a138.38,138.38,0,0,1-12.64,16c-5.91,6.46-17.1,5-21.18-2.26a183.86,183.86,0,0,1,0-178.63c4.06-7.31,15.25-8.72,21.18-2.26A135.28,135.28,0,0,1,160,232a133.86,133.86,0,0,1-15.1,62.16l14.2,7.36A149.59,149.59,0,0,0,176,232a151.33,151.33,0,0,0-39.87-102.39A29.45,29.45,0,0,0,114.54,120a29.08,29.08,0,0,0-25.37,14.9,199.88,199.88,0,0,0,0,194.19A29.08,29.08,0,0,0,114.54,344,29.42,29.42,0,0,0,136.12,334.39Z"/><path class="cls-1" d="M264,32A200.29,200.29,0,0,0,115,98.66l11.92,10.67A184.31,184.31,0,0,1,264,48c98.78,0,179.59,78.24,183.8,176h-18l-14.18-42.53-15.17,5.06L412.9,224H395.51l-58.6-63.94,14.24-28.49-14.31-7.16-11.5,23L309.9,130.59l-11.8,10.82,44.22,48.24L326.3,203l-24.65-24.65-11.31,11.31L314,213.28l-15.09,12.58,10.25,12.3,44-36.69,28,30.56-41.49,45.64-69.53-27.82L255.42,213,240.57,219l13.26,33.17-25.42,12.7,7.16,14.31,28.78-14.39,63.83,25.53L308.46,312H264v16h38.25l-6.09,30.43,15.69,3.14,7.56-37.83,42.39-46.63,12.46,12.46-13.42,26.84,14.31,7.16,12.9-25.8,17.42,5.81,5.06-15.17L388.32,281l-15.75-15.75,23-25.26H447.8c-4.21,97.76-85,176-183.8,176a184.31,184.31,0,0,1-137.11-61.34L115,365.34A200.29,200.29,0,0,0,264,432c110.28,0,200-89.72,200-200S374.28,32,264,32Z"/></g></g></svg>