<svg xmlns="http://www.w3.org/2000/svg" viewBox="0 0 478.25 589.62"><defs><style>.cls-1{fill:#0073ca;}</style></defs><title>head-and-neck 11</title><g id="Слой_2" data-name="Слой 2"><g id="Слой_1-2" data-name="Слой 1"><g id="Слой_1-3" data-name="Слой_1"><path class="cls-1" d="M475,312.94l-39.57-79.82,0-.6c-3.68-67.21-25.26-127-61.51-169.08C339.95,24,293,0,235.81,0,136.65,0,77.7,26.33,43.57,66.13S0,159.36,0,213.44a188,188,0,0,0,15.39,74.38,199,199,0,0,0,44,63.86l1.13,1.13-50,216.73a16.25,16.25,0,0,0,3.15,13.89,15.81,15.81,0,0,0,5.7,4.54,16.36,16.36,0,0,0,7.11,1.62v0h77.33l57.23-233.68a57.79,57.79,0,0,0-14-51.7,113.82,113.82,0,0,1-30.47-90.59c3.83-38.21,18.79-67.58,39.29-88.07a120.12,120.12,0,0,1,84.5-35.46c23.67,0,61.08,6.43,87.9,24.6,19,12.9,32.8,31.63,32.8,58.11,0,10.49-2.72,17.15-9.86,21.77-6.6,4.31-17,6.52-32.65,8.36a33.2,33.2,0,0,0-16.33,6.72,32.57,32.57,0,0,0-10.46,14.23c-1.56,4.08-3.4,6.72-5.9,8.39s-5.41,2.3-9.07,2.3c-2.64,0-5.81-.31-9.61-.71a205.74,205.74,0,0,0-21.46-1.25c-3,0-9.61,6.41-16,14.26-7.23,8.84-13.89,19.33-15.08,24.94-3.4,15.87.06,31.32,3,44.39,2.24,10.12,4.22,18.91,2.69,26-5.41,24.92-14.23,61.62-23.73,101.25C184.7,493,171.72,547.18,162.7,589.62l6.63-.31h0a18.91,18.91,0,0,0,18.45-14.68l12.64-54.79,123.47.31c21.63,0,41.72-8.48,57.43-22.73s27-34.52,31-57.94c2.38-14.23,4.85-29.14,7.17-43.88,2.35-14.94,4.65-30.27,6.8-45.44l.34-2.47H457.9a18.77,18.77,0,0,0,10.26-3.06,21.51,21.51,0,0,0,7.48-8.45,24.52,24.52,0,0,0-.57-23.1ZM149.1,70.33a11.13,11.13,0,1,0-3.26,7.85A11.09,11.09,0,0,0,149.1,70.33Zm-46.69,7.94a11.18,11.18,0,0,0-3.37.51A11.47,11.47,0,0,0,96,80.3c-1.33.94-22.36,16.21-35.94,44.87a117.25,117.25,0,0,0-11.28,54.76,11.14,11.14,0,0,0,11.11,10.74h.4A11.14,11.14,0,0,0,71,179.17a95.49,95.49,0,0,1,9-44.25,100.87,100.87,0,0,1,28.86-36.48l0,0a11.17,11.17,0,0,0-1.36-18.93A11.48,11.48,0,0,0,102.41,78.26Zm326.66,247.2H407.3L404.24,347c-1.79,12.73-3.88,26.67-6.24,41.7s-4.93,30.87-7.65,47.08a78.59,78.59,0,0,1-23.22,44.45c-11.82,11.11-27,17.66-43.23,17.66H206.44l.82-3.49c.68-2.75,2.75-11.45,5.53-23.1,1.84-7.65,3.66-15.22,5.44-22.65l.09-.4c9.3-38.81,18.08-75.43,23.7-101.34a53.81,53.81,0,0,0,.62-17.69,171.36,171.36,0,0,0-3.32-17.89c-1.25-5.61-2.52-11.31-3.26-17a54,54,0,0,1,.14-17l.06-.28.11-.31a60.43,60.43,0,0,1,6.09-9.95A109.27,109.27,0,0,1,251.31,256l.88-1,1.3.09c4.28.23,8,.6,11.45.94h0c2,.2,3.88.4,6.07.57,1.93.14,3.83.23,5.78.23,8.53,0,15.93-2.21,22-6.41s10.74-10.52,13.8-18.62a10.28,10.28,0,0,1,3.37-4.56,10.41,10.41,0,0,1,5.24-2.15c21.71-2.58,62.11-7.37,62.11-52.24a86.62,86.62,0,0,0-14.88-49.35C358.63,109,344.12,96.66,325.35,87.3a178.48,178.48,0,0,0-40.14-14.12,208.36,208.36,0,0,0-44.81-5.3c-34.89,0-71.4,14-99.29,41.44C116.7,133.25,98.9,167.44,94.48,211.4a136.7,136.7,0,0,0,36.28,108A35.22,35.22,0,0,1,139,334.08a35.8,35.8,0,0,1,.48,16.81l0,.09-53,216.39H33.9L85.07,345.62,75,335.78a176.46,176.46,0,0,1-39.12-56.46,166.11,166.11,0,0,1-13.61-65.88c0-29.59,3.09-55.25,9.38-77.21C38,114.09,47.56,95.67,60.46,80.61a130.87,130.87,0,0,1,27.21-24,168.37,168.37,0,0,1,35.09-17.55A259.58,259.58,0,0,1,174,26.45a421.7,421.7,0,0,1,61.85-4.22,158.84,158.84,0,0,1,68.71,15.05C325.41,47.22,344,62,359.88,81.3c15.56,19,28.09,42,37.1,67.86s14.57,54.42,16.21,84.58l.28,5.13,42.92,86.6Z"/></g></g></g></svg>