<svg xmlns="http://www.w3.org/2000/svg" viewBox="0 0 360 496"><defs><style>.cls-1{fill:#0073ca;}</style></defs><title>heart 14</title><g id="Слой_2" data-name="Слой 2"><g id="Capa_1" data-name="Capa 1"><path class="cls-1" d="M216,145.92V128h64V112H200v32.41c-2.67-.13-5.3-.41-8-.41H152V0H136V144H120V0H104V160h88c83.82,0,152,68.18,152,152V424a56.07,56.07,0,0,1-56,56H208c-83.82,0-152-68.18-152-152V288H40v40c0,92.63,75.37,168,168,168h80a72.08,72.08,0,0,0,72-72V312C360,227.54,297.27,157.62,216,145.92Z"/><polygon class="cls-1" points="40 272 56 272 56 256 72 256 72 288 88 288 88 240 0 240 0 256 40 256 40 272"/><polygon class="cls-1" points="280 48 216 48 216 0 200 0 200 64 280 64 280 48"/><path class="cls-1" d="M136,232v56h16V232a56.07,56.07,0,0,0-56-56H56V0H40V176H0v16H96A40,40,0,0,1,136,232Z"/><path class="cls-1" d="M216,240H184v16h32a48,48,0,0,1,48,48v20.15l-37,29.6,10,12.5,27-21.6V416h16V384.65l27,21.6,10-12.5-37-29.6V304A64.07,64.07,0,0,0,216,240Z"/><rect class="cls-1" x="184" y="272" width="16" height="16"/></g></g></svg>