<svg xmlns="http://www.w3.org/2000/svg" viewBox="0 0 495.9 495.99"><defs><style>.cls-1{fill:#0073ca;}</style></defs><title>kidneys 4</title><g id="Слой_2" data-name="Слой 2"><g id="Capa_1" data-name="Capa 1"><path class="cls-1" d="M82.48,66.19a90.5,90.5,0,0,0-26.5,64V144H72V130.15a74.36,74.36,0,0,1,21.8-52.64l7.85-7.85L90.32,58.35Z"/><rect class="cls-1" x="56.02" y="159.99" width="16" height="16"/><path class="cls-1" d="M256.78,348.42l14.31,7.14L274,349.7a61.74,61.74,0,0,1,27.59-27.6l5.88-2.94-7.14-14.31-5.89,2.94a77.77,77.77,0,0,0-34.75,34.76Z"/><path class="cls-1" d="M221.6,322.34a77.51,77.51,0,0,0-20.2-14.56l-5.88-2.94-7.14,14.31,5.87,2.94a61.74,61.74,0,0,1,27.6,27.59l2.94,5.88,14.31-7.14-2.94-5.89A77.6,77.6,0,0,0,221.6,322.34Z"/><path class="cls-1" d="M413.41,66.19l-7.85-7.86L394.25,69.65l7.86,7.85a74.36,74.36,0,0,1,21.8,52.64V144h16V130.15a90.52,90.52,0,0,0-26.5-64Z"/><rect class="cls-1" x="423.9" y="159.99" width="16" height="16"/><path class="cls-1" d="M432,14.1a64,64,0,0,0-90.59,89.15l-11.91,11.91A196.41,196.41,0,0,0,271.94,254v7.14a49.57,49.57,0,0,0-7.82,4.69L247.94,278l-16.19-12.14a48.32,48.32,0,0,0-7.81-4.69V254A196.19,196.19,0,0,0,194.1,149.94a196.84,196.84,0,0,0-27.66-34.78l-11.94-11.94a64.41,64.41,0,0,0-.59-79.29,64,64,0,0,0-90-9.82C57.38,19.35,0,67.65,0,144c0,70.91,35.54,110,42.65,117.16a64,64,0,0,0,90.35.31c24.22-24,25.23-63.58,2.36-88.53-1.2-1.7-6-9.26-7.12-23l15.62,18.22a133.25,133.25,0,0,1,32.09,86.73v8.14a49.2,49.2,0,0,0-21.47,57.82l6.11,18.33A112.71,112.71,0,0,0,187.66,383a84.71,84.71,0,0,0,36.29,21.53V496h48V404.54A84.79,84.79,0,0,0,308.23,383a112.58,112.58,0,0,0,27.06-43.8l6.13-18.34a49.22,49.22,0,0,0-21.48-57.82v-8.14a133.77,133.77,0,0,1,.74-14.08l-15.9-1.69a148.73,148.73,0,0,0-.84,15.77v2a49.49,49.49,0,0,0-9.3-.9h-.94a48.06,48.06,0,0,0-5.77.47V254a180.33,180.33,0,0,1,52.83-127.54l11.77-11.77a65.85,65.85,0,0,1,11.3,15.12l-24,28a149.29,149.29,0,0,0-32.3,64.46l15.61,3.5A133,133,0,0,1,352,168.19L367.65,150c-1.14,13.73-5.91,21.29-7.12,23-22.87,24.94-21.86,64.54,2.36,88.53a64,64,0,0,0,90.34-.3C460.36,254,495.9,214.91,495.9,144,495.9,67.65,438.52,19.35,432,14.1ZM122.78,182.85l.54.63C140.7,202.15,140,232,121.75,250.1A48,48,0,0,1,54,249.86C47.62,243.51,16,208.61,16,144,16,75.1,68,31.34,73.92,26.58A48.28,48.28,0,0,1,104,16a47.77,47.77,0,0,1,37.42,17.94,48.32,48.32,0,0,1-7,67.21c-2.29,2-22.4,20.54-22.4,42.85C112,166.77,120.25,179.5,122.78,182.85ZM156,157.78l-24-28a65.32,65.32,0,0,1,11.3-15.12l11.78,11.78a180.94,180.94,0,0,1,25.42,31.94A180.28,180.28,0,0,1,207.94,254v2.45a47.92,47.92,0,0,0-5.77-.47h-.94a49.49,49.49,0,0,0-9.3.9v-2A149.27,149.27,0,0,0,156,157.78ZM255.94,480h-16V407.6c2.65.25,5.31.39,8,.39s5.35-.14,8-.39Zm37.77-208h.94a33.31,33.31,0,0,1,31.59,43.82l-6.12,18.34a96.59,96.59,0,0,1-23.21,37.55,69.25,69.25,0,0,1-97.94,0,96.62,96.62,0,0,1-23.2-37.54l-6.11-18.33A33.3,33.3,0,0,1,201.24,272h.94a33.55,33.55,0,0,1,20,6.66L247.94,298l25.78-19.34A33.54,33.54,0,0,1,293.71,272ZM441.9,249.87a48,48,0,0,1-67.76.22c-18.26-18.07-19-47.94-1.58-66.6l.54-.63c2.53-3.36,10.79-16.09,10.79-38.86,0-22.31-20.11-40.82-22.61-43a48.25,48.25,0,0,1-6.81-67A47.75,47.75,0,0,1,391.9,16,48.36,48.36,0,0,1,422,26.58C427.89,31.34,479.9,75.1,479.9,144,479.9,208.61,448.26,243.51,441.9,249.87Z"/></g></g></svg>