<svg xmlns="http://www.w3.org/2000/svg" viewBox="0 0 497.93 497.62"><defs><style>.cls-1{fill:#0073ca;}</style></defs><title>neuron 10</title><g id="Слой_2" data-name="Слой 2"><g id="Capa_1" data-name="Capa 1"><path class="cls-1" d="M280,190.66a80,80,0,1,0,56.57,136.57l-11.31-11.31a64,64,0,1,1,8-9.71l13.3,8.9A80,80,0,0,0,280,190.66Z"/><path class="cls-1" d="M475.42,328.1,448,347.29V310.66H432v47.83L396.94,383,390.87,378l-3-9.12h0a22.28,22.28,0,0,1,3.26-19.91,175.75,175.75,0,0,0,20.08-168.32,36.06,36.06,0,0,1,1.6-29.61l1.62-3.26L429.74,135l27.19,20.39,7.31,29.24,15.51-3.87-6.06-24.25,24.24-6.06-3.87-15.51L465.75,142l-23.39-17.54,16.54-13.78H496v-16H464V47.45l7.84-39.22L456.15,5.09l-6.22,31.12-39.4-13.14-5.06,15.17,42.66,14.22L448,98.9,404.71,135a36.93,36.93,0,0,1-30.65-10.86,174.39,174.39,0,0,0-96.3-50.78A42.09,42.09,0,0,1,248,52.53V26.94l20.44-13.62L259.56,0,240,13,220.44,0l-8.87,13.31L232,26.94V52.76l-1,2.08a40.78,40.78,0,0,1-26.39,21.37,176.42,176.42,0,0,0-69,35.29c-10.31,8.6-23.56,11.43-35.7,7.9L88.3,109.52l7-41.9,36.83-22.1-8.23-13.72L92.43,50.66,79.58,12.12,64.42,17.18,79.78,63.3,74.1,97.35,48,75V22.66H32v48H0v16H37l6.9,5.91-32,19.23,8.23,13.72,36.62-22,32.37,27.74,3.38,10.14a36.37,36.37,0,0,1-2.34,27.68A174.76,174.76,0,0,0,73.62,224a10.46,10.46,0,0,1-5.9,7.88L55.38,238,36.9,231.86l-22.5-30-12.8,9.6L21.44,237.9,2.34,257l11.31,11.31,20.5-20.5L40,249.75v49.59L18.34,321l11.31,11.31,17.48-17.48L65.6,339.46l12.8-9.59L56,300V255.6l11.74,5.87a10.49,10.49,0,0,1,5.9,7.93A176.14,176.14,0,0,0,147.2,390.72a11.58,11.58,0,0,1,4.8,9.54v12.18l-21,34.94-41,6.83-29.26-22-9.6,12.8,23.46,17.6L51.2,480.26l9.6,12.8,30.44-22.83L131,463.6l13.61,34,14.86-5.94L144.9,455.37l21.15-35.25,9.29-7a11.62,11.62,0,0,1,11.1-1.7,175.31,175.31,0,0,0,163.77-21.63,21.48,21.48,0,0,1,18.52-3.22l11.44,3.26,19.56,16.3-13.8,41.38-43.25,7.21,2.62,15.78L386,463.76l6.22,24.83,15.51-3.87L400.32,455l12.6-37.8L424.7,427l7.45,37.23,15.69-3.14-6.38-31.9,39.85-6.64-2.62-15.78-44.38,7.4-24.62-20.52,74.9-52.43ZM378.1,339.6a38.43,38.43,0,0,0-6.3,31.27,37.4,37.4,0,0,0-30.89,6,159.32,159.32,0,0,1-148.85,19.66,27.41,27.41,0,0,0-24.1,2.37,27.53,27.53,0,0,0-11.57-21.23A160,160,0,0,1,89.51,267.36,26.49,26.49,0,0,0,74.9,247.17l-1-.51,1-.5A26.45,26.45,0,0,0,89.5,226a158.46,158.46,0,0,1,15-49.83c6.22-12.64,7.41-26.56,3.34-39.26a54.83,54.83,0,0,0,37.93-13.12A160.28,160.28,0,0,1,208.5,91.71a56.62,56.62,0,0,0,32.06-21.92,58.68,58.68,0,0,0,34.51,19.3,158.54,158.54,0,0,1,87.51,46.16A52.88,52.88,0,0,0,395.48,151a51.39,51.39,0,0,0,.86,35.59,159.78,159.78,0,0,1-18.25,153Z"/><rect class="cls-1" x="224" y="110.66" width="16" height="16"/><rect class="cls-1" x="128" y="278.66" width="16" height="16"/><rect class="cls-1" x="248" y="374.66" width="16" height="16"/><rect class="cls-1" x="168" y="190.66" width="16" height="16"/><rect class="cls-1" x="152" y="134.66" width="16" height="16"/><rect class="cls-1" x="304" y="150.66" width="16" height="16"/></g></g></svg>