<svg xmlns="http://www.w3.org/2000/svg" viewBox="0 0 496 416"><defs><style>.cls-1{fill:#0073ca;}</style></defs><title>pancreas 7</title><g id="Слой_2" data-name="Слой 2"><g id="Capa_1" data-name="Capa 1"><path class="cls-1" d="M461.16,0H459.3a34.18,34.18,0,0,0-8.45,1L417.4,9.41A221.3,221.3,0,0,1,363.82,16H290.9a337.6,337.6,0,0,0-52,4.07l-.09-.18c-.15.07-.29.18-.44.25-6.08,1-12.14,2.06-18.15,3.35a251.79,251.79,0,0,0-116.6,59.72l1.08-7L95.35,70A83.75,83.75,0,0,0,29.07,58.49L0,65.76V211.44A309.19,309.19,0,0,0,23.91,331,160.13,160.13,0,0,0,78.7,399.76,87.22,87.22,0,0,0,188,393.33l30.15-27.42a336.66,336.66,0,0,1,75.91-52,17.9,17.9,0,0,1,25.9,16,101,101,0,0,1-22.06,62.86L279.35,416H416V314.78a88,88,0,0,0-9.25-39.17l-1.6-3.2A87.05,87.05,0,0,0,328,224.09s0-.06,0-.09a55.64,55.64,0,0,0-8.1-28.87c10.51-3.5,25.36-8.47,37.58-12.57a215.18,215.18,0,0,0,42.31-19.5A214.42,214.42,0,0,0,487.85,61.3l5.66-13.52A34.83,34.83,0,0,0,461.16,0ZM326.26,32h35.5A23.74,23.74,0,0,1,368,48a24,24,0,0,1-48,0A23.78,23.78,0,0,1,326.26,32ZM290.9,32h16.48a38.8,38.8,0,0,0-2.3,24.89A47.79,47.79,0,0,0,296,56a39.87,39.87,0,0,0-8-23.92C289,32.07,289.93,32,290.9,32Zm-47.44,3.59c6.66-1,13.35-1.74,20.06-2.31a24,24,0,1,1-20.06,2.31Zm-71.59,260a60.52,60.52,0,0,1-58-27.15l-4-6A61.43,61.43,0,0,1,101,241.51c-.25-1.13-.43-2.27-.67-3.4a39.83,39.83,0,0,1,69.58-3.17,47.8,47.8,0,0,0,2,60.63Zm-30.42-95.14A56.12,56.12,0,0,0,144,184c0-1.86-.1-3.7-.28-5.53A55.9,55.9,0,0,1,160,176V160a71.71,71.71,0,0,0-20.14,3,57,57,0,0,0-2.65-5.66,56.1,56.1,0,0,0,38-44.4,31.88,31.88,0,0,1,15.12,53.91,73.51,73.51,0,0,0-8.44-3.41l-4.86,15.24a56.34,56.34,0,0,1,36.54,37.7A50,50,0,0,0,208,216a47.65,47.65,0,0,0-26.27,7.88A56,56,0,0,0,141.45,200.43Zm106.89-27.11A56.32,56.32,0,0,0,223,197a71.12,71.12,0,0,0-18.67-21.66,47.91,47.91,0,0,0,11.1-24.08,38.68,38.68,0,0,0,33.51,7.65A47.72,47.72,0,0,0,248,168,49.21,49.21,0,0,0,248.34,173.32ZM208,232a31.77,31.77,0,0,1,8.9,1.42,56.13,56.13,0,0,0,17.94,32.31l-38.69,22.11a60.35,60.35,0,0,1-5.78,2.82A32,32,0,0,1,208,232Zm24-8a40,40,0,0,1,80,0c0,.48-.1,1-.12,1.43a87.31,87.31,0,0,0-31.47,11.88l-31.17,19.48A40.1,40.1,0,0,1,232,224Zm8-80a24,24,0,1,1,24-24A24,24,0,0,1,240,144ZM219.5,72.2a40,40,0,0,0,6.82,10.37,40,40,0,0,0-24.81,27.14,47.89,47.89,0,0,0-26-13.06,56.22,56.22,0,0,0-2.3-10A48.93,48.93,0,0,0,184,88,47.82,47.82,0,0,0,219.5,72.2Zm-3.6-31.11A31.91,31.91,0,0,1,161,62.21,237.2,237.2,0,0,1,215.9,41.09ZM97.14,125.23l2.41-15.64a237.73,237.73,0,0,1,44.58-37.42,39.87,39.87,0,0,1-17.69,71.21,55.82,55.82,0,0,0-29.75-14.64C96.85,127.57,97,126.4,97.14,125.23Zm-2.31,19.46a39.74,39.74,0,0,1,29.06,56.8,56,56,0,0,0-27.38,14.9A313.34,313.34,0,0,1,94.82,144.69ZM16,211.44V78.24L33,74a67.66,67.66,0,0,1,53.52,9.27l.83.54-6,39a329.92,329.92,0,0,0,2.31,113.53c-.13.35-.33.66-.45,1l.7.25c.49,2.46.92,4.94,1.46,7.4a77.39,77.39,0,0,0,6.54,18.13A101.39,101.39,0,0,1,24.56,282,293.94,293.94,0,0,1,16,211.44ZM326.82,240a71.18,71.18,0,0,1,64,39.57l1.6,3.2a71.9,71.9,0,0,1,7.56,32V400H312.58A117.11,117.11,0,0,0,336,329.89a33.89,33.89,0,0,0-49-30.31,353,353,0,0,0-79.52,54.5l-30.15,27.42A71.23,71.23,0,0,1,88,386.74a144.21,144.21,0,0,1-49.31-61.91q-5.46-13.09-9.59-26.54c1.17,0,2.34.12,3.5.12a117.52,117.52,0,0,0,67.69-21.57l.3.46A78,78,0,0,0,204.1,301.74l40.15-23,44.65-27.9A71.41,71.41,0,0,1,326.82,240Zm.06-64.07-18,6A54.77,54.77,0,0,0,264,168.63c0-.21,0-.42,0-.63a32,32,0,1,1,62.88,7.93ZM319.17,126a47.52,47.52,0,0,0-39.46-3.07c.07-1,.3-1.91.3-2.91a39.71,39.71,0,0,0-10.32-26.57,40.1,40.1,0,0,0,22.75-21.1A33.6,33.6,0,0,1,296,72a31.94,31.94,0,0,1,23.17,54Zm33.22,41.41-8.59,2.88c0-.77.21-1.5.21-2.27a47.73,47.73,0,0,0-12.32-32,48.16,48.16,0,0,0,6.29-8.9,31.84,31.84,0,0,0,22,8.9,31.5,31.5,0,0,0,8.06-1.15c0,.38-.06.76-.06,1.15a48,48,0,0,0,5.86,22.74A200.61,200.61,0,0,1,352.38,167.39ZM360,120a16,16,0,1,1,16-16A16,16,0,0,1,360,120Zm31.54,29.34c-1.17.7-2.38,1.33-3.55,2a31.92,31.92,0,0,1,49-39.42A199.42,199.42,0,0,1,391.54,149.34Zm55.7-49.76a47.79,47.79,0,0,0-56.6-4.27A32,32,0,0,0,373.32,75a39.79,39.79,0,0,0,8.54-14.69A55.78,55.78,0,0,0,395.06,68l6-14.84a40,40,0,0,1-18.23-14.75h0a39.38,39.38,0,0,0-2.46-7,236.9,236.9,0,0,0,40.93-6.45l30.25-7.55a47.64,47.64,0,0,0-19.2,35.1A39.84,39.84,0,0,1,416,56V72a56,56,0,0,0,17.85-3,48.26,48.26,0,0,0,17.38,25.26C449.94,96.06,448.6,97.83,447.25,99.58ZM478.7,41.71l-5.62,13.42A201.88,201.88,0,0,1,460,80.87a31.92,31.92,0,0,1,16.69-56.69,18.74,18.74,0,0,1,2,17.53Z"/><rect class="cls-1" x="40" y="96" width="16" height="16"/><rect class="cls-1" x="40" y="128" width="16" height="16"/><rect class="cls-1" x="40" y="160" width="16" height="16"/><rect class="cls-1" x="40" y="232" width="16" height="16"/></g></g></svg>