<svg xmlns="http://www.w3.org/2000/svg" viewBox="0 0 248 496"><defs><style>.cls-1{fill:#0073ca;}</style></defs><title>spinal-column 15</title><g id="Слой_2" data-name="Слой 2"><g id="Capa_1" data-name="Capa 1"><path class="cls-1" d="M248,80V32H216V0H168V34.92a72.78,72.78,0,0,0-40,0V24A24,24,0,0,0,104,0H27.78A27.78,27.78,0,0,0,15.35,52.62L22.11,56a17.89,17.89,0,0,1,0,32l-9.9,4.94A22,22,0,0,0,0,112.72v1.18A22.14,22.14,0,0,0,22.11,136a21.52,21.52,0,0,0,5.81-.78L32,134.1V144a17.79,17.79,0,0,1-9.89,16l-9.9,4.94A22,22,0,0,0,0,184.72v1.17A22.14,22.14,0,0,0,22.11,208a21.52,21.52,0,0,0,5.81-.78L32,206.1V208a17.79,17.79,0,0,1-9.89,16l-9.9,4.94A22,22,0,0,0,0,248.72v1.17A22.14,22.14,0,0,0,22.11,272a21.52,21.52,0,0,0,5.81-.78L32,270.1V272a17.79,17.79,0,0,1-9.89,16l-9.9,4.94A22,22,0,0,0,0,312.72v1.17A22.14,22.14,0,0,0,22.11,336a21.52,21.52,0,0,0,5.81-.78L32,334.1V336a17.79,17.79,0,0,1-9.89,16l-9.9,4.94A22,22,0,0,0,0,376.72v1.17A22.07,22.07,0,0,0,16,399v26.13a71.24,71.24,0,0,0,7.48,31.68A70.43,70.43,0,0,0,86.83,496H97.89a43.31,43.31,0,0,0,43.26-37.83,54.7,54.7,0,0,1,26.62,3.15l.24.1V472a24,24,0,0,0,24,24h56V448H216V424h32V376H216V352h32V304H216V272h32V224H216V208h32V160H216V144h32V96H216V80ZM23.68,119.79a6.27,6.27,0,0,1-7.68-5.9v-1.17a6.08,6.08,0,0,1,3.38-5.46l9.89-4.94a33.89,33.89,0,0,0,0-60.62L22.5,38.31A11.78,11.78,0,0,1,27.78,16H104a8,8,0,0,1,8,8V81.82A18.18,18.18,0,0,1,98.6,99.36Zm0,136a6.28,6.28,0,0,1-7.68-5.9v-1.17a6.08,6.08,0,0,1,3.38-5.46l9.89-4.94A33.71,33.71,0,0,0,48,208v-6.26l36.77-10-4.2-15.44-56.88,15.5a6.28,6.28,0,0,1-7.69-5.9v-1.17a6.08,6.08,0,0,1,3.38-5.46l9.89-4.94A33.71,33.71,0,0,0,48,144V129.74l54.82-14.94a34,34,0,0,0,9.18-4.25v43.27a18.17,18.17,0,0,1-13.42,17.54l-4.7,1.29,4.23,15.44,4.7-1.29a34,34,0,0,0,9.18-4.25v35.26a18.18,18.18,0,0,1-13.4,17.54Zm0,64a6.29,6.29,0,0,1-7.68-5.9v-1.17a6.08,6.08,0,0,1,3.38-5.46l9.89-4.94A33.71,33.71,0,0,0,48,272v-6.26l54.82-14.94a34,34,0,0,0,9.18-4.25v35.27a18.18,18.18,0,0,1-13.4,17.54ZM16,377.89v-1.17a6.08,6.08,0,0,1,3.38-5.46l9.89-4.94A33.71,33.71,0,0,0,48,336v-6.26l54.82-14.94a34,34,0,0,0,9.18-4.25v35.27a18.18,18.18,0,0,1-13.4,17.54L23.68,383.8A6.28,6.28,0,0,1,16,377.89Zm106.74,86.76A27.62,27.62,0,0,1,97.89,480H86.83a54.54,54.54,0,0,1-49-30.31A55.19,55.19,0,0,1,32,425.17V398.11l70.82-19.31a32.19,32.19,0,0,0,3.47-1.36l18.41,67.47A27.87,27.87,0,0,1,122.74,464.65Zm45.26-20a71.4,71.4,0,0,0-27.62-2.48c-.11-.49-.13-1-.26-1.48L138,433a55.46,55.46,0,0,1,29.74,2.76l.25.1v8.86ZM168,400v18.92a72.88,72.88,0,0,0-34.2-1.4l-5.51-20.22a55.42,55.42,0,0,1,39.47,0l.24.1Zm0-19.49a72.19,72.19,0,0,0-43.93,1.34l-2.78-10.19a74.25,74.25,0,0,1,46,.18l.66.23Zm0-25.15a91.85,91.85,0,0,0-40.93-1.65,34.51,34.51,0,0,0,.93-7.89V333.42l.23-.1a55.43,55.43,0,0,1,39.52,0l.25.1v21.94Zm0-38.84a72.78,72.78,0,0,0-40,0v-8.7l.23-.1a55.43,55.43,0,0,1,39.52,0l.25.1v8.7Zm0-25.61a72.63,72.63,0,0,0-40,0v-21.5l.23-.1a55.43,55.43,0,0,1,39.52,0l.25.1v21.5ZM168,248v4.52a72.7,72.7,0,0,0-40,0v-8.7l.23-.1a55.43,55.43,0,0,1,39.52,0l.25.1V248Zm0-21.08a72.7,72.7,0,0,0-40,0v-21.5l.23-.1a55.43,55.43,0,0,1,39.52,0l.25.1v21.5ZM168,184v4.52a72.63,72.63,0,0,0-40,0v-8.7l.23-.1a55.43,55.43,0,0,1,39.52,0l.25.1V184Zm0-21.08a72.7,72.7,0,0,0-40,0v-21.5l.23-.1a55.43,55.43,0,0,1,39.52,0l.25.1v21.5ZM168,120v4.52a72.63,72.63,0,0,0-40,0v-8.7l.23-.1a55.43,55.43,0,0,1,39.52,0l.25.1V120Zm0-21.08a72.63,72.63,0,0,0-40,0V77.42l.23-.1a55.43,55.43,0,0,1,39.52,0l.25.1ZM168,56v4.52a72.63,72.63,0,0,0-40,0v-8.7l.23-.1a55.43,55.43,0,0,1,39.52,0l.25.1Zm64,408v16H192a8,8,0,0,1-8-8V422.53a23.73,23.73,0,0,0,8,1.47h8v40Zm0-72v16H192a8,8,0,0,1-8-8V350.53a23.73,23.73,0,0,0,8,1.47h8v40Zm0-72v16H192a8,8,0,0,1-8-8V270.53a23.73,23.73,0,0,0,8,1.47h8v48Zm0-80v16H192a8,8,0,0,1-8-8V206.53a23.73,23.73,0,0,0,8,1.47h8v32Zm0-64v16H192a8,8,0,0,1-8-8V142.53a23.73,23.73,0,0,0,8,1.47h8v32Zm0-64v16H192a8,8,0,0,1-8-8V78.53A23.73,23.73,0,0,0,192,80h8v32ZM192,64a8,8,0,0,1-8-8V16h16V48h32V64Z"/></g></g></svg>