<svg xmlns="http://www.w3.org/2000/svg" viewBox="0 0 496 496"><defs><style>.cls-1{fill:#0073ca;}</style></defs><title>stomach 3</title><g id="Слой_2" data-name="Слой 2"><g id="Capa_1" data-name="Capa 1"><path class="cls-1" d="M458.47,105.79l-1.45-2a96.67,96.67,0,0,0-131.8-23.58l-19.47,13A16.56,16.56,0,0,1,280,79.44V24c0-16.5-27-24-52-24s-52,7.51-52,24V94.7a163.39,163.39,0,0,0,8.42,51.83A147.76,147.76,0,0,1,192,193.3v2a110.13,110.13,0,0,1-46,89.46,17.26,17.26,0,0,1-10.1,3.23H122.5a17.25,17.25,0,0,1-12.28-5.09A64.57,64.57,0,0,0,0,328.57V472c0,13.68,17.19,24,40,24s40-10.32,40-24V419.22a19.27,19.27,0,0,1,25.75-18.08l17.7,6.43A404.2,404.2,0,0,0,262,432a245.24,245.24,0,0,0,84.13-14.82l4-1.46a245,245,0,0,0,82.22-49.88,196.22,196.22,0,0,0,26.1-260ZM228,16c20.56,0,32.66,5.18,35.57,8-2.91,2.82-15,8-35.57,8s-32.66-5.18-35.57-8C195.34,21.18,207.44,16,228,16ZM40,480c-15.49,0-24-6-24-8s8.51-8,24-8,24,6,24,8S55.48,480,40,480ZM421.56,354a229,229,0,0,1-76.86,46.64l-4,1.46A229.58,229.58,0,0,1,262,416a388.31,388.31,0,0,1-133.13-23.46l-17.7-6.44A35.27,35.27,0,0,0,64,419.22v33.41A60.16,60.16,0,0,0,40,448a60.16,60.16,0,0,0-24,4.63V328.57a48.57,48.57,0,0,1,82.91-34.34A33.14,33.14,0,0,0,122.5,304h13.36a33.18,33.18,0,0,0,19.4-6.22A126.16,126.16,0,0,0,208,195.31v-2a163.62,163.62,0,0,0-8.42-51.83A147.76,147.76,0,0,1,192,94.7V41.91C201.94,46,215.21,48,228,48s26.06-2,36-6.09V79.43a32.56,32.56,0,0,0,50.62,27.09l19.48-13a80.68,80.68,0,0,1,110,19.69l1.45,2a180.21,180.21,0,0,1-24,238.85Z"/><path class="cls-1" d="M445.79,246.62a149.13,149.13,0,0,1-45.85,83.83,197.23,197.23,0,0,1-66.16,40.15l-4,1.46a199.05,199.05,0,0,1-35.09,9.23l2.64,15.78a215.46,215.46,0,0,0,37.9-10l4-1.46a213.15,213.15,0,0,0,71.5-43.39,165.28,165.28,0,0,0,50.8-92.88Z"/><path class="cls-1" d="M263.92,384l.16,16c5.54-.06,11.13-.33,16.62-.81l-1.39-15.94C274.22,383.69,269,383.94,263.92,384Z"/></g></g></svg>