<svg xmlns="http://www.w3.org/2000/svg" viewBox="0 0 496 496"><defs><style>.cls-1{fill:#0073ca;}</style></defs><title>thorax 1</title><g id="Слой_2" data-name="Слой 2"><g id="Capa_1" data-name="Capa 1"><path class="cls-1" d="M496,265.17a58.61,58.61,0,0,0-23.34-46.66l-10.08-7.56a57,57,0,0,0-30.34-63.77l-.64-.32a43.28,43.28,0,0,0-12.43-27l-2.11-2.11L440,109.66V61.09l-63.39,20C355,69.6,323.94,61.51,288,58V0H208V58c-35.94,3.52-67,11.61-88.61,23.11L56,61.09v48.58l22.93,8.1-2.11,2.11a43.28,43.28,0,0,0-12.43,27l-.64.32a57,57,0,0,0-30.33,63.75L23.33,218.5A58.18,58.18,0,0,0,8.9,296H8v7a67.48,67.48,0,0,0,8.58,33H16a115.88,115.88,0,0,0,8,42.14V413a82.73,82.73,0,0,0,19.12,52.83A83.83,83.83,0,0,0,173,464.47a337.13,337.13,0,0,0,30.73-45.75l-3.61,19.86L200,496h96V440l-3.88-21.53a337.65,337.65,0,0,0,30.87,46A83.51,83.51,0,0,0,472,413V378.14A116.09,116.09,0,0,0,480,336h-.58A67.42,67.42,0,0,0,488,303v-7h-.89A58.23,58.23,0,0,0,496,265.17Zm-56-82v-9a41.34,41.34,0,0,1-9.35,58.11A159,159,0,0,1,356,260.83a220.35,220.35,0,0,1-55.65-.86L280,257.06V242.24l2.68.67A170.21,170.21,0,0,0,324,248a169.33,169.33,0,0,0,99-31.73A40.73,40.73,0,0,0,440,183.19ZM424,176v7.25a24.7,24.7,0,0,1-10.32,20.06A153.49,153.49,0,0,1,324,232a154.44,154.44,0,0,1-37.42-4.6L280,225.76v-8.31l6.94,1.16a163.23,163.23,0,0,0,26.83,2.23A162.16,162.16,0,0,0,353.16,216a164,164,0,0,0,62.41-31A44.17,44.17,0,0,0,424,176Zm0-93V98.34L300,142.1l-8.65-17.3Zm-34.09,44.43c-8.3,15.08-41.28,30.88-92.28,37.5l3.74-6.25ZM288,74.06c25,2.58,47.82,7.51,65.77,14.26L288,109.09Zm118.26,55.52,1.6,1.59a27.77,27.77,0,0,1-2.49,41.48,147.8,147.8,0,0,1-56.09,27.78,146,146,0,0,1-59.73,2.38l-9.56-1.6v-7l7.26-12.11C342.61,176.74,396.5,158.94,406.26,129.58ZM224,16h48v96H224Zm-3.06,112h54.11l11.82,23.65L267.47,184H228.54l-19.42-32.35Zm43.54,226.65h0l0,.15L278.42,432H217.58l14.28-78.57L232,200h32V352ZM208,74.07v35L142.23,88.33C160.18,81.58,183,76.64,208,74.07ZM72,98.34V82.91L204.66,124.8,196,142.1Zm126.37,66.5c-51-6.61-84-22.42-92.28-37.5l88.54,31.25ZM72,175.91a45,45,0,0,0,8.62,9.23A163.85,163.85,0,0,0,142.83,216a162.75,162.75,0,0,0,39.5,4.86c1.37,0,2.74,0,4.11,0l-.41-16A146.66,146.66,0,0,1,90.42,172.5a27.76,27.76,0,0,1-2.28-41.31l1.6-1.6c9.77,29.37,63.66,47.15,119,52.52L216,194.22v7l-9.56,1.59c-1.86.31-3.74.58-5.62.82l2,15.87c2.09-.26,4.17-.57,6.26-.91l6.93-1.15v8.31l-6.55,1.64A154.56,154.56,0,0,1,172,232a153.44,153.44,0,0,1-89.7-28.74A24.69,24.69,0,0,1,72,183.19Zm-16-1.74v9a40.73,40.73,0,0,0,17,33.08A169.38,169.38,0,0,0,172,248a170.37,170.37,0,0,0,41.31-5.09l2.67-.66v14.82L195.64,260a220.36,220.36,0,0,1-55.65.86,159,159,0,0,1-74.64-28.55A41.34,41.34,0,0,1,56,174.18ZM41.57,230.23A57.44,57.44,0,0,0,56,245.3a175,175,0,0,0,82.17,31.45,238.27,238.27,0,0,0,26.17,1.45,237.59,237.59,0,0,0,33.52-2.38l18.1-2.59v9.35l-6.68,2.67A150.18,150.18,0,0,1,47.32,252,22.52,22.52,0,0,1,41.57,230.23ZM16,265.17a42.51,42.51,0,0,1,8.94-25.91A38.37,38.37,0,0,0,36,263.32a166.24,166.24,0,0,0,179.26,36.8l.74-.3v14.9l-20,8.56A157.24,157.24,0,0,1,30.46,297,42.28,42.28,0,0,1,16,265.17ZM160.5,454.49a67.82,67.82,0,0,1-105.1,1.12A66.71,66.71,0,0,1,40,413v-6.51c1.31,1.72,2.59,3.47,4,5.12a81.21,81.21,0,0,0,119.1,4.58l45.65-45.65A320.36,320.36,0,0,1,160.5,454.49ZM104.21,392a84.14,84.14,0,0,1-52.37-18.37A31.39,31.39,0,0,1,42.9,362.1a152.05,152.05,0,0,0,99.75,20.43A84,84,0,0,1,104.21,392Zm48.47,3.44L172,384.73,151.78,404.9a65.22,65.22,0,0,1-95.68-3.74,99.47,99.47,0,0,1-7.46-10.06,99.82,99.82,0,0,0,104,4.34ZM122.43,368a139.78,139.78,0,0,1-74.17-21.27,51.25,51.25,0,0,1-23.14-33.5A172.75,172.75,0,0,0,202.32,338L216,332.13v.12l-4,3.31A140.13,140.13,0,0,1,122.43,368ZM280,480H216V448h64Zm176-67a66.64,66.64,0,0,1-15.42,42.58,67.82,67.82,0,0,1-105.1-1.11,320.71,320.71,0,0,1-48.23-83.92l45.65,45.65A81.21,81.21,0,0,0,452,411.57c1.4-1.63,2.66-3.36,4-5.06Zm-64.21-5a100.22,100.22,0,0,0,55.56-16.9,99.74,99.74,0,0,1-7.51,10.12,65.21,65.21,0,0,1-95.63,3.67L324,384.72l19.29,10.72A100,100,0,0,0,391.79,408Zm-38.44-25.47A152,152,0,0,0,453.1,362.1a31.41,31.41,0,0,1-9,11.54,83.36,83.36,0,0,1-90.79,8.9Zm94.39-35.8A139.95,139.95,0,0,1,284,335.56l-4-3.31v-.12L293.68,338a172.71,172.71,0,0,0,177.2-24.78A51.2,51.2,0,0,1,447.74,346.73Zm17.72-49.63A157.26,157.26,0,0,1,300,323.29l-20-8.56v-14.9l.74.3a166.23,166.23,0,0,0,151.19-14.26l-8.61-13.48a150.21,150.21,0,0,1-136.64,12.87L280,282.58v-9.35l18.1,2.58a237.48,237.48,0,0,0,33.51,2.38,238.38,238.38,0,0,0,26.17-1.45,175,175,0,0,0,82.17-31.45,57.31,57.31,0,0,0,14.48-15.06A22.53,22.53,0,0,1,448.68,252a151.18,151.18,0,0,1-15.35,13.4L443,278.14a165.38,165.38,0,0,0,17-14.82,38.37,38.37,0,0,0,11.06-24.06,42.19,42.19,0,0,1-5.59,57.84Z"/></g></g></svg>