<svg xmlns="http://www.w3.org/2000/svg" viewBox="0 0 495.99 360"><defs><style>.cls-1{fill:#0073ca;}</style></defs><title>uterus 8</title><g id="Слой_2" data-name="Слой 2"><g id="Capa_1" data-name="Capa 1"><path class="cls-1" d="M495.91,131.78c-2.1-52.94-45.15-96.7-98-99.62a102.65,102.65,0,0,0-38.28,5C355.69,12.78,301.61,0,248,0S140.31,12.78,136.38,37.18a102,102,0,0,0-38.29-5C45.23,35.09,2.17,78.84.09,131.78a103.94,103.94,0,0,0,74.58,104c4,10.14,10.63,18.14,19.7,23a45.88,45.88,0,0,0,21.86,5.31c23.38,0,49.38-15.78,66.88-42.22.56,7.14.9,14.31.9,21.47V311a49,49,0,0,0,49,49H263a49,49,0,0,0,49-49v-67.7c0-7.16.34-14.33.9-21.47,17.5,26.42,43.5,42.22,66.88,42.22a46,46,0,0,0,21.86-5.31c9.06-4.86,15.73-12.85,19.7-23a103.94,103.94,0,0,0,74.58-104ZM399.1,80.43a55.91,55.91,0,0,1,20.79,104.06,106.85,106.85,0,0,0-9.5-19.7C392.75,136.42,365.32,119.66,341,120c.1-.21.19-.42.3-.64a175.44,175.44,0,0,0,8.43-19.9A56,56,0,0,1,399.1,80.43ZM248,16c59.55,0,96,15.54,96,24s-36.45,24-96,24-96-15.54-96-24S188.45,16,248,16ZM146.29,99.44a174.7,174.7,0,0,0,8.43,19.9l.3.66c-24.35-.34-51.78,16.43-69.42,44.8a106.78,106.78,0,0,0-9.5,19.69,55.94,55.94,0,1,1,70.19-85ZM40.54,197a87.36,87.36,0,0,1-24.47-64.54C17.85,87.63,54.26,50.61,99,48.14a87.05,87.05,0,0,1,37.69,6.3,177.88,177.88,0,0,0,2.54,18.73,72,72,0,0,0-44.26-8.6c-32.54,4-58.82,30.54-62.49,63.16A72,72,0,0,0,104,208h8v-8a8,8,0,1,1,16,0,24,24,0,0,1-24,24A87.26,87.26,0,0,1,40.54,197Zm139.12-3.51-.18,0c0,.11,0,.22.06.33a89.91,89.91,0,0,1-8.18,16.94c-18,28.92-49.81,44.45-69.43,33.9a25.4,25.4,0,0,1-6.42-5.08c2.81.22,5.63.42,8.49.42a40,40,0,0,0,40-40,24,24,0,0,0-46.5-8.38,54.92,54.92,0,0,1-6.55-1.22,89.79,89.79,0,0,1,8.25-17.17c18-28.92,49.81-44.42,69.43-33.9,8.54,4.58,12.24,12.67,13.84,18.66C185.26,168.42,184.13,180.93,179.66,193.46ZM200,311v-67.7a293.56,293.56,0,0,0-4-48.11c4.48-14.43,5.31-28.9,2-41.36-3.47-13-11-22.85-21.74-28.62-.42-.22-.86-.37-1.29-.58q-2.78-6.29-5.86-12.46c-1.94-3.86-3.65-7.82-5.26-11.83a44.61,44.61,0,0,1,14.8,8.38A130,130,0,0,1,224,207.5a387.17,387.17,0,0,1-3,47.82,142.89,142.89,0,0,1-20.78,58.11C200.17,312.62,200,311.84,200,311Zm98.06-157.17c-3.33,12.46-2.5,26.93,2,41.36a294.34,294.34,0,0,0-4,48.1V311c0,.81-.18,1.6-.24,2.4A142.9,142.9,0,0,1,275,255.33c-.34-2.71-.65-5.42-.92-8.14l-15.92,1.61c.29,2.83.62,5.67,1,8.5a158.76,158.76,0,0,0,29.58,74.18A30.12,30.12,0,0,1,263,344H233a30.1,30.1,0,0,1-25.65-12.52A158.77,158.77,0,0,0,236.9,257.3a405.1,405.1,0,0,0,3.1-49.8A145.9,145.9,0,0,0,189,96.6,60.31,60.31,0,0,0,168.8,85.18L157.49,81.4a163.8,163.8,0,0,1-3.83-18.9C174.63,74,211.41,80,248,80s73.36-6,94.34-17.5a163.11,163.11,0,0,1-3.83,18.9L327.2,85.18A60.12,60.12,0,0,0,307,96.61a145.85,145.85,0,0,0-51,110.9c0,8.26.26,16.67.78,25l16-1c-.5-8-.75-16.07-.75-24a129.92,129.92,0,0,1,45.42-98.75,44.24,44.24,0,0,1,14.79-8.38c-1.62,4-3.33,8-5.26,11.84q-3.06,6.17-5.86,12.46c-.42.21-.86.36-1.29.58C309,131,301.52,140.91,298.05,153.86Zm96,90.8c-19.63,10.5-51.46-5-69.43-33.9a90.08,90.08,0,0,1-8.18-16.94c0-.11,0-.22.06-.33l-.18,0c-4.46-12.54-5.6-25-2.81-35.46,1.6-6,5.3-14.07,13.85-18.66,19.62-10.5,51.46,5,69.43,33.9a90.1,90.1,0,0,1,8.25,17.18,54.63,54.63,0,0,1-6.55,1.22A24,24,0,0,0,352,200a40,40,0,0,0,40,40c2.86,0,5.68-.2,8.49-.42A25.57,25.57,0,0,1,394.07,244.66ZM455.44,197A87.19,87.19,0,0,1,392,224a24,24,0,0,1-24-24,8,8,0,1,1,16,0v8h8a72,72,0,0,0,71.54-80.29C459.87,95.1,433.6,68.54,401,64.55a72.14,72.14,0,0,0-44.26,8.61,177.75,177.75,0,0,0,2.54-18.74A87.09,87.09,0,0,1,397,48.13c44.72,2.48,81.14,39.5,82.91,84.29A87.32,87.32,0,0,1,455.44,197Z"/></g></g></svg>