<?xml version="1.0" encoding="UTF-8"?>
<!DOCTYPE svg PUBLIC "-//W3C//DTD SVG 1.1//EN" "http://www.w3.org/Graphics/SVG/1.1/DTD/svg11.dtd">
<!-- Creator: CorelDRAW X8 -->
<svg xmlns="http://www.w3.org/2000/svg" xml:space="preserve" width="208mm" height="208mm" version="1.1" style="shape-rendering:geometricPrecision; text-rendering:geometricPrecision; image-rendering:optimizeQuality; fill-rule:evenodd; clip-rule:evenodd"
viewBox="0 0 20800 20800"
 xmlns:xlink="http://www.w3.org/1999/xlink">
 <defs>
  <style type="text/css">
   <![CDATA[
    .fil0 {fill:white}
   ]]>
  </style>
 </defs>
 <g id="Слой_x0020_1">
  <metadata id="CorelCorpID_0Corel-Layer"/>
  <path class="fil0" d="M20432 7648c-11,-40 -30,-77 -54,-108 -26,-33 -57,-60 -92,-80 -35,-20 -75,-33 -115,-39 -40,-5 -81,-2 -121,9l-1 0c-41,12 -77,30 -108,55 -33,25 -60,56 -80,91 -20,36 -33,75 -38,116 -5,39 -3,80 8,121l0 0c58,210 108,422 151,635 43,214 79,429 108,645 29,217 51,435 66,652 14,219 22,437 22,655 0,1322 -264,2584 -742,3735 -496,1196 -1223,2273 -2125,3175 -902,902 -1980,1630 -3176,2126 -1151,478 -2413,741 -3735,741 -1322,0 -2584,-263 -3735,-741 -1196,-496 -2274,-1223 -3176,-2125 -902,-902 -1629,-1980 -2125,-3176 -478,-1151 -742,-2413 -742,-3735 0,-1322 264,-2584 742,-3735 496,-1196 1223,-2274 2125,-3176 902,-902 1980,-1629 3176,-2125 1151,-478 2413,-742 3735,-742 731,0 1452,83 2152,241 710,161 1397,399 2048,710 654,311 1272,694 1844,1144 565,444 1084,954 1545,1521l132 163 -790 -1 0 1 -50 0c-43,0 -83,8 -120,23 -37,16 -72,39 -100,68 -29,29 -53,63 -68,101 -15,36 -24,77 -24,119 0,43 9,83 24,119 15,38 39,72 68,101 28,29 63,52 100,68 37,15 77,23 120,23l50 0 0 1 1491 0 0 -1 50 0c42,0 83,-8 119,-23 38,-16 72,-39 101,-68l0 0c29,-29 52,-63 68,-101 15,-36 23,-76 23,-119l0 -1591c0,-42 -8,-83 -23,-119 -16,-38 -39,-72 -68,-101 -29,-29 -63,-52 -101,-68 -37,-15 -77,-23 -119,-23 -43,0 -83,8 -119,23 -38,16 -72,39 -101,68 -29,29 -52,63 -68,101 -15,36 -24,77 -24,119l0 827 -176 -212c-491,-587 -1041,-1114 -1638,-1574 -603,-464 -1254,-860 -1941,-1182 -685,-320 -1406,-567 -2150,-732 -732,-163 -1488,-248 -2255,-248 -1406,0 -2748,281 -3973,789 -1272,527 -2418,1301 -3377,2261 -960,959 -1734,2105 -2261,3377 -508,1225 -789,2567 -789,3973 0,1406 281,2748 789,3973 527,1272 1301,2418 2261,3377 959,960 2105,1734 3377,2261 1225,508 2567,789 3973,789 1406,0 2748,-281 3973,-789 1272,-527 2418,-1301 3377,-2261 960,-959 1734,-2105 2261,-3377 508,-1225 789,-2567 789,-3973 0,-234 -8,-467 -23,-698 -15,-233 -39,-464 -69,-693 -31,-230 -69,-459 -115,-685 -46,-226 -99,-451 -160,-674l-1 -2zm-10904 6745l-3553 0 2251 -2251c260,-260 490,-540 689,-837 201,-300 371,-617 508,-948 137,-331 241,-676 311,-1030 70,-351 105,-712 105,-1079 0,-333 -66,-651 -187,-941 -125,-301 -308,-573 -535,-800 -446,-446 -1062,-723 -1741,-723 -334,0 -651,67 -941,187 -302,125 -573,308 -800,536 -228,227 -411,499 -536,800 -120,290 -187,608 -187,941 0,42 9,83 24,119 15,38 39,72 67,101 29,29 64,52 101,68 37,15 77,23 120,23 42,0 82,-8 119,-23 38,-16 72,-39 101,-68 29,-29 52,-63 67,-101 15,-36 24,-77 24,-119 0,-249 50,-487 140,-703 93,-226 230,-429 400,-598 169,-170 372,-307 597,-400 217,-90 455,-140 704,-140 249,0 486,50 703,140 225,93 428,230 598,400 170,169 306,372 400,598 90,216 140,454 140,703 0,324 -32,644 -93,956 -62,314 -155,620 -277,914 -122,294 -272,576 -451,842 -177,264 -381,513 -610,742l-2783 2782c-22,23 -40,47 -54,74 -15,26 -25,55 -31,85 -6,31 -7,62 -4,92 2,30 10,60 22,89l4 9c11,25 26,48 43,69 19,24 42,45 68,62 24,16 52,29 82,38 29,9 59,14 91,14l4304 0c42,0 83,-9 119,-24 38,-15 72,-39 101,-67 29,-29 52,-64 68,-101 15,-37 23,-77 23,-120 0,-42 -8,-82 -23,-119 -16,-38 -39,-72 -68,-101 -29,-29 -63,-52 -101,-67 -36,-15 -77,-24 -119,-24zm6597 -2824l-1241 0 0 -5473c0,-35 -6,-69 -16,-100 -11,-32 -27,-62 -48,-89 -20,-27 -45,-50 -73,-69 -28,-19 -59,-34 -92,-43 -33,-9 -67,-12 -100,-10 -34,1 -67,9 -99,22 -31,12 -60,30 -86,52 -25,21 -47,47 -65,77l-3455 5785c-14,24 -24,49 -32,75 -7,27 -11,54 -12,81 0,27 3,55 10,81l0 0c7,26 17,52 31,76 14,24 31,46 50,66 19,19 41,36 64,50 24,13 49,24 76,31 26,7 53,11 81,11l50 0 0 0 3093 0 0 2512c0,43 9,83 24,120 15,37 39,72 67,100 29,29 64,53 101,68 37,15 77,24 120,24 42,0 82,-9 119,-24 38,-16 72,-39 101,-67l0 -1c29,-28 52,-63 67,-100 15,-37 24,-77 24,-120l0 -2512 1241 0c42,0 83,-9 119,-24 38,-15 72,-39 101,-67 29,-29 52,-63 68,-101 15,-37 23,-77 23,-120 0,-42 -8,-82 -23,-119 -16,-38 -39,-72 -68,-101l0 0c-29,-28 -63,-52 -101,-67 -36,-15 -77,-24 -119,-24zm-1964 0l-2494 0 2594 -4344 0 4344 -100 0zm-3761 -10099c-42,0 -83,9 -119,24 -38,15 -72,38 -101,67l0 0c-29,29 -52,63 -68,101 -15,37 -23,77 -23,119l0 1037c0,42 8,82 23,119 16,38 39,72 68,101 56,56 134,91 220,91 42,0 83,-8 119,-24 38,-15 72,-38 101,-67l0 0c29,-29 52,-63 68,-101 15,-37 23,-77 23,-119l0 -1037c0,-42 -8,-82 -23,-119 -16,-38 -39,-72 -68,-101 -29,-29 -63,-52 -101,-67 -36,-15 -77,-24 -119,-24zm0 16201c-42,0 -83,9 -119,24 -38,15 -72,38 -101,67l0 0c-29,29 -52,63 -68,101 -15,37 -23,77 -23,119l0 1037c0,42 8,82 23,119 16,38 39,72 68,101 29,29 63,52 101,67 36,15 77,24 119,24 42,0 83,-9 119,-24 38,-15 72,-38 101,-67 29,-29 52,-63 68,-101 15,-37 23,-77 23,-119l0 -1037c0,-42 -8,-82 -23,-119 -16,-38 -39,-72 -68,-101 -29,-29 -63,-52 -101,-67 -36,-15 -77,-24 -119,-24zm8704 -7582l-1122 0c-42,0 -82,8 -119,23 -38,16 -72,39 -101,68 -29,29 -52,63 -67,101 -15,36 -24,77 -24,119 0,42 9,83 24,119 15,38 38,72 67,101 57,56 134,91 220,91l1122 0c43,0 83,-8 119,-23 38,-16 73,-39 101,-68l0 0c29,-29 52,-63 68,-101 15,-36 23,-77 23,-119 0,-42 -8,-83 -23,-119 -16,-38 -39,-72 -68,-101 -29,-29 -63,-52 -101,-68 -36,-15 -76,-23 -119,-23zm-16286 0l-1122 0c-43,0 -83,8 -119,23 -38,16 -73,39 -101,68l0 0c-29,29 -52,63 -68,101 -15,36 -23,77 -23,119 0,42 8,83 23,119 16,38 39,72 68,101 56,56 134,91 220,91l1122 0c42,0 82,-8 119,-23 38,-16 72,-39 101,-68 56,-56 91,-134 91,-220 0,-42 -9,-83 -24,-119 -15,-38 -38,-72 -67,-101 -29,-29 -63,-52 -101,-68 -37,-15 -77,-23 -119,-23zm15441 -4047c0,-86 -35,-163 -91,-220 -56,-56 -134,-91 -220,-91 -86,0 -164,35 -220,91 -57,57 -91,134 -91,220 0,86 34,164 91,221 56,56 134,91 220,91 86,0 164,-35 220,-91 56,-57 91,-135 91,-221zm-3190 -3190c0,-86 -35,-164 -91,-220 -57,-56 -134,-91 -220,-91 -86,0 -164,35 -221,91 -56,56 -91,134 -91,220 0,86 35,164 91,220 57,57 135,91 221,91 86,0 163,-34 220,-91 56,-56 91,-134 91,-220zm-8716 0c0,-86 -35,-164 -91,-220 -56,-56 -134,-91 -220,-91 -86,0 -164,35 -220,91 -57,56 -91,134 -91,220 0,86 34,164 91,220 56,57 134,91 220,91 86,0 164,-34 220,-91 56,-56 91,-134 91,-220zm-3190 3190c0,-86 -35,-163 -91,-220 -56,-56 -134,-91 -220,-91 -86,0 -164,35 -220,91 -57,57 -91,134 -91,220 0,86 34,164 91,221 56,56 134,91 220,91 86,0 164,-35 220,-91 56,-57 91,-135 91,-221zm0 8716c0,-86 -35,-164 -91,-220 -56,-56 -134,-91 -220,-91 -86,0 -164,35 -220,91 -57,56 -91,134 -91,220 0,86 34,164 91,220 56,57 134,91 220,91 86,0 164,-34 220,-91 56,-56 91,-134 91,-220zm3190 3190c0,-86 -35,-163 -91,-220 -56,-56 -134,-91 -220,-91 -86,0 -164,35 -220,91 -57,57 -91,134 -91,220 0,86 34,164 91,220 56,57 134,92 220,92 86,0 164,-35 220,-92 56,-56 91,-134 91,-220zm8716 0c0,-86 -35,-164 -91,-220 -57,-57 -134,-91 -220,-91 -86,0 -164,34 -221,91 -56,56 -91,134 -91,220 0,86 35,164 91,220 57,56 135,91 221,91 86,0 163,-35 220,-91 56,-56 91,-134 91,-220zm3190 -3190c0,-86 -35,-164 -91,-221 -56,-56 -134,-91 -220,-91 -86,0 -164,35 -220,91 -57,57 -91,135 -91,221 0,86 34,163 91,220 56,56 134,91 220,91 86,0 164,-35 220,-91 56,-57 91,-134 91,-220z"/>
 </g>
</svg>
