<svg xmlns="http://www.w3.org/2000/svg" viewBox="0 0 512 498.89"><defs><style>.cls-1{fill:#fff;}</style></defs><title>analysis</title><g id="Слой_2" data-name="Слой 2"><g id="Capa_1" data-name="Capa 1"><path class="cls-1" d="M326.62,126.5a25,25,0,1,0-20-10l-41.08,57.4a24.93,24.93,0,0,0-24.8,5.46l-27.38-15.54a25,25,0,1,0-48.88,0l-27.38,15.54a25,25,0,1,0,7.42,13l27.38-15.54a24.94,24.94,0,0,0,34,0l27.38,15.54a25,25,0,1,0,44.41-9.76l41.08-57.4A24.92,24.92,0,0,0,326.62,126.5Zm0-35a10,10,0,1,1-10,10A10,10,0,0,1,326.62,91.5ZM120.11,207.67a10,10,0,1,1,10-10A10,10,0,0,1,120.11,207.67ZM189,168.59a10,10,0,1,1,10-10A10,10,0,0,1,189,168.59Zm68.84,39.09a10,10,0,1,1,10-10A10,10,0,0,1,257.79,207.67Z"/><path class="cls-1" d="M418.8,370.41H21.22A6.22,6.22,0,0,1,15,364.19V54.77a6.22,6.22,0,0,1,6.22-6.22H56.57a7.5,7.5,0,1,0,0-15H21.22A21.24,21.24,0,0,0,0,54.77V364.19a21.24,21.24,0,0,0,21.22,21.21H72.93v16.51A17.07,17.07,0,0,0,90,419h75.07l-35.34,69a7.5,7.5,0,1,0,13.35,6.84L181.91,419h82.92l38.84,75.84A7.5,7.5,0,1,0,317,488l-35.34-69h75.07a17.07,17.07,0,0,0,17.05-17.05V385.41h45a7.5,7.5,0,0,0,0-15Zm-60,31.51a2.06,2.06,0,0,1-2.05,2.05H90a2.06,2.06,0,0,1-2.05-2.05V385.41H358.81Z"/><path class="cls-1" d="M86.57,48.56h339a6.22,6.22,0,0,1,6.21,6.22v71.31a7.5,7.5,0,0,0,15,0V54.77a21.24,21.24,0,0,0-21.21-21.22H265V18.82A18.84,18.84,0,0,0,246.18,0H200.56a18.84,18.84,0,0,0-18.82,18.82V33.56H86.57a7.5,7.5,0,0,0,0,15ZM196.74,18.82A3.82,3.82,0,0,1,200.56,15h45.62A3.82,3.82,0,0,1,250,18.82V33.56H196.74V18.82Z"/><path class="cls-1" d="M104.9,261a7.5,7.5,0,0,0-7.5,7.5v66.27a7.5,7.5,0,0,0,7.5,7.5h30.43a7.5,7.5,0,0,0,7.5-7.5V268.52a7.5,7.5,0,0,0-7.5-7.5Zm22.93,66.27H112.4V276h15.43Z"/><path class="cls-1" d="M173.74,222.69a7.5,7.5,0,0,0-7.5,7.5v104.6a7.5,7.5,0,0,0,7.5,7.5h30.43a7.5,7.5,0,0,0,7.5-7.5V230.19a7.5,7.5,0,0,0-7.5-7.5Zm22.93,104.6H181.24v-89.6h15.43Z"/><path class="cls-1" d="M242.57,261a7.5,7.5,0,0,0-7.5,7.5v66.27a7.5,7.5,0,0,0,7.5,7.5H273a7.5,7.5,0,0,0,7.5-7.5V268.52A7.5,7.5,0,0,0,273,261Zm22.93,66.27H250.07V276H265.5Z"/><path class="cls-1" d="M311.41,305.27a7.5,7.5,0,0,0-7.5,7.5v22a7.5,7.5,0,0,0,7.5,7.5h30.43a7.5,7.5,0,1,0,0-15H318.91V312.77A7.5,7.5,0,0,0,311.41,305.27Z"/><path class="cls-1" d="M508.17,377.46l-43-74.53a98.08,98.08,0,1,0-97,27.68A98.57,98.57,0,0,0,393.7,334a96.8,96.8,0,0,0,22.08-2.55l43,74.53a28.51,28.51,0,1,0,49.38-28.51ZM372.05,316.12a83,83,0,1,1,63-8.29A82.49,82.49,0,0,1,372.05,316.12Zm118.19,87.29a13.52,13.52,0,0,1-18.46-4.94l-41.39-71.7a98.45,98.45,0,0,0,23.39-13.52L495.18,385a13.5,13.5,0,0,1-4.94,18.46Z"/><path class="cls-1" d="M461.54,257.05A71,71,0,0,0,458,205.64,7.5,7.5,0,1,0,444.42,212a56.18,56.18,0,1,1-16.93-20.93,7.5,7.5,0,1,0,9.05-12,71.22,71.22,0,1,0,25,77.91Z"/></g></g></svg>