<?xml version='1.0' encoding='iso-8859-1'?>
<svg fill="#353b44" version="1.1" xmlns="http://www.w3.org/2000/svg" viewBox="0 0 297.126 297.126" xmlns:xlink="http://www.w3.org/1999/xlink" enable-background="new 0 0 297.126 297.126">
  <g>
    <path d="m272.329,43.831c-34.802-34.802-90.486-33.062-123.549,0l-130.509,130.509c-24.362,24.362-24.362,62.644 1.42109e-14,87.006 12.181,12.181 27.842,17.401 43.503,17.401s31.322-6.96 41.763-19.141l118.328-118.328c13.921-13.921 13.921-34.802 0-48.723-13.921-13.921-34.802-13.921-48.723,0l-81.786,81.786c-3.48,3.48-3.48,8.701 0,12.181s8.701,3.48 12.181,0l81.786-81.786c6.96-6.96 17.401-6.96 24.362,0 6.96,6.96 6.96,17.401 0,24.362l-118.329,118.328c-15.661,17.401-43.503,17.401-60.904,0-17.401-15.661-17.401-43.503 0-60.904l130.509-130.51c27.842-27.842 71.345-27.842 99.187,0s27.842,71.345 0,99.187l-93.966,93.966c-3.48,3.48-3.48,8.701 0,12.181 3.48,3.48 8.701,3.48 12.181,0l93.966-93.966c33.062-34.802 33.062-90.486 0-123.549z"/>
  </g>
</svg>
