<svg xmlns="http://www.w3.org/2000/svg" viewBox="0 0 416 496"><defs><style>.cls-1{fill:#0073ca;}</style></defs><title>calculator</title><g id="Слой_2" data-name="Слой 2"><g id="Слой_1-2" data-name="Слой 1"><path class="cls-1" d="M296,32a88.1,88.1,0,0,0-88,88h16a72.08,72.08,0,0,1,72-72Z"/><path class="cls-1" d="M368,120a72.08,72.08,0,0,1-72,72v16a88.1,88.1,0,0,0,88-88Z"/><path class="cls-1" d="M416,120A120,120,0,0,0,189.95,64H8a8,8,0,0,0-8,8V488a8,8,0,0,0,8,8H360a8,8,0,0,0,8-8V215.78A119.77,119.77,0,0,0,416,120ZM200.22,192H48V112H176.41c-.18,2.66-.41,5.3-.41,8A119.23,119.23,0,0,0,200.22,192ZM352,480H16V80H183a118.5,118.5,0,0,0-4.59,16H40a8,8,0,0,0-8,8v96a8,8,0,0,0,8,8H214.69A119.35,119.35,0,0,0,352,226.05ZM296,224A104,104,0,1,1,400,120,104.12,104.12,0,0,1,296,224Z"/><path class="cls-1" d="M304,160a24,24,0,0,0,0-48H288a8,8,0,0,1,0-16h40V80H304V64H288V80a24,24,0,0,0,0,48h16a8,8,0,0,1,0,16H264v16h24v16h16Z"/><path class="cls-1" d="M88,240H40a8,8,0,0,0-8,8v48a8,8,0,0,0,8,8H88a8,8,0,0,0,8-8V248A8,8,0,0,0,88,240Zm-8,48H48V256H80Z"/><path class="cls-1" d="M168,240H120a8,8,0,0,0-8,8v48a8,8,0,0,0,8,8h48a8,8,0,0,0,8-8V248A8,8,0,0,0,168,240Zm-8,48H128V256h32Z"/><path class="cls-1" d="M248,240H200a8,8,0,0,0-8,8v48a8,8,0,0,0,8,8h48a8,8,0,0,0,8-8V248A8,8,0,0,0,248,240Zm-8,48H208V256h32Z"/><path class="cls-1" d="M88,320H40a8,8,0,0,0-8,8v48a8,8,0,0,0,8,8H88a8,8,0,0,0,8-8V328A8,8,0,0,0,88,320Zm-8,48H48V336H80Z"/><path class="cls-1" d="M168,320H120a8,8,0,0,0-8,8v48a8,8,0,0,0,8,8h48a8,8,0,0,0,8-8V328A8,8,0,0,0,168,320Zm-8,48H128V336h32Z"/><path class="cls-1" d="M248,320H200a8,8,0,0,0-8,8v48a8,8,0,0,0,8,8h48a8,8,0,0,0,8-8V328A8,8,0,0,0,248,320Zm-8,48H208V336h32Z"/><path class="cls-1" d="M272,328V456a8,8,0,0,0,8,8h48a8,8,0,0,0,8-8V328a8,8,0,0,0-8-8H280A8,8,0,0,0,272,328Zm16,8h32V448H288Z"/><path class="cls-1" d="M88,400H40a8,8,0,0,0-8,8v48a8,8,0,0,0,8,8H88a8,8,0,0,0,8-8V408A8,8,0,0,0,88,400Zm-8,48H48V416H80Z"/><path class="cls-1" d="M168,400H120a8,8,0,0,0-8,8v48a8,8,0,0,0,8,8h48a8,8,0,0,0,8-8V408A8,8,0,0,0,168,400Zm-8,48H128V416h32Z"/><path class="cls-1" d="M248,400H200a8,8,0,0,0-8,8v48a8,8,0,0,0,8,8h48a8,8,0,0,0,8-8V408A8,8,0,0,0,248,400Zm-8,48H208V416h32Z"/></g></g></svg>