<svg xmlns="http://www.w3.org/2000/svg" viewBox="0 0 530.35 591.02"><defs><style>.cls-1{fill:#fff;}</style></defs><title>carry_white</title><g id="Слой_2" data-name="Слой 2"><g id="Слой_1-2" data-name="Слой 1"><g id="Слой_1-3" data-name="Слой_1"><g id="_641847120" data-name=" 641847120"><path class="cls-1" d="M19.84,467.51A11.63,11.63,0,0,0,0,475.7a11.66,11.66,0,0,0,11.64,11.64,11.61,11.61,0,0,0,8.2-19.84Z"/></g><path class="cls-1" d="M485.49,134.47,408,82.11a68.06,68.06,0,0,0-48-10.9l-3,.43.6-3a48.06,48.06,0,0,0,.83-5.38,47.72,47.72,0,0,0,.28-5.41,52.35,52.35,0,0,0-15.43-37.23L338,15.43a52.56,52.56,0,0,0-89.85,37.2,52,52,0,0,0,15.4,37.23h0l5.27,5.27h0a52.82,52.82,0,0,0,10.36,8.05,52.09,52.09,0,0,0,12,5.24l4.07,1.17-81.59,61.5a30.72,30.72,0,0,0-5.95,5.89,29.62,29.62,0,0,0-4.07,7.29l-.65,1.68-1.76-.37A30.22,30.22,0,0,0,193,185a29.47,29.47,0,0,0-8,1.65l-80.31,28.69,1.88-4.47a53.57,53.57,0,0,0,3.1-10,54.39,54.39,0,0,0,1-10.44v-7.43a52.64,52.64,0,0,0-105.27,0v7.43a52,52,0,0,0,7.57,27.12,52.94,52.94,0,0,0,20.6,19.47l4,2.08-4.13,1.74A51.49,51.49,0,0,0,2.13,288.21V426.9a9.49,9.49,0,1,0,19,0V403.47h48a10.06,10.06,0,0,0,2.82-.4,9.93,9.93,0,0,0,2.53-1.22L127,366.16a33.25,33.25,0,0,1,18.64-5.75,33.23,33.23,0,0,1,33.18,33.21v73.48L142,481.82V420.49h0a9.54,9.54,0,0,0-1.28-4.78,9.9,9.9,0,0,0-3.53-3.5,9.68,9.68,0,0,0-4.81-1.22,9.44,9.44,0,0,0-4.75,1.34L68.76,447.56a22.39,22.39,0,0,0-10.81,19.1V572H21.12V521.07a9.49,9.49,0,1,0-19,0h0v60.45h0A9.47,9.47,0,0,0,11.64,591H67.42a9.52,9.52,0,0,0,9.51-9.51V466.65a3.19,3.19,0,0,1,1.59-2.76L123,437.26V581.52a9.52,9.52,0,0,0,9.51,9.51H520.87a9.47,9.47,0,0,0,9.48-9.51V217.29a98.47,98.47,0,0,0-44.8-82.79l0,0ZM282.29,81.65l-5.24-5.24h0a33.54,33.54,0,0,1,0-47.56h0a33.71,33.71,0,0,1,36.63-7.31,34.13,34.13,0,0,1,10.93,7.31l5.24,5.24a33.63,33.63,0,0,1-23.76,57.4h0a33.45,33.45,0,0,1-23.79-9.85Zm-57.2,104.59L340.44,99.32a49.1,49.1,0,0,1,56.92-1.45L464.21,143l-60.36,48.55-45.91-31a9.53,9.53,0,0,0-8.91-.91L236.24,205.82h0a11.16,11.16,0,0,1-7.85.23,11.32,11.32,0,0,1-6.15-4.9l-.06-.09a11.34,11.34,0,0,1,2.93-14.83ZM24.5,190.48v-7.43a33.63,33.63,0,0,1,67.25,0v7.43a33.63,33.63,0,0,1-67.25,0ZM95.14,302.87v62l-29,19.67H21.12V288.21a32.48,32.48,0,0,1,21.52-30.48L191.48,204.6h0a11.34,11.34,0,0,1,10.22,20L99.24,295a9.51,9.51,0,0,0-4.1,7.83Zm50.52,38.56a52,52,0,0,0-28.26,8.31l-3.27,2.11v-44l98.36-67.56a31.5,31.5,0,0,0,6.57-6.15,30.29,30.29,0,0,0,4.47-7.85l.65-1.68,1.74.37c1,.2,2,.37,3.1.48s2,.14,3,.14a28.29,28.29,0,0,0,5.81-.57,29.83,29.83,0,0,0,5.58-1.65l108.09-44.25L398.66,211l.09.09A44.3,44.3,0,0,1,416,246h0V339.5H391A9.29,9.29,0,0,0,388,340a9,9,0,0,0-2.73,1.45l-115.8,89.48q-35.77,14.34-71.58,28.6V393.63a52.28,52.28,0,0,0-52.2-52.2ZM509.23,572H142v-69.7l135.67-54.19a11.7,11.7,0,0,0,1.2-.6,8.85,8.85,0,0,0,1.08-.71l114.29-88.34H511.36V572Zm0-232.52H483.84V245.66a9.49,9.49,0,0,0-19,0h0V339.5H435V246a62.92,62.92,0,0,0-3.81-21.49,64.06,64.06,0,0,0-11-19l-1.39-1.68,61.67-49.61,1.34,1.08a79.49,79.49,0,0,1,29.48,62V339.5Z"/><path class="cls-1" d="M465.06,409.62H437.94a9.5,9.5,0,0,0-6.72,16.22,9.34,9.34,0,0,0,6.72,2.79h17.62V475.7a9.52,9.52,0,0,0,9.51,9.51,9.52,9.52,0,0,0,9.51-9.51V419.13h0a9.52,9.52,0,0,0-9.51-9.51Z"/><g id="_641838704" data-name=" 641838704"><path class="cls-1" d="M473.29,512.87a11.65,11.65,0,1,0,3.39,8.2A11.76,11.76,0,0,0,473.29,512.87Z"/></g></g></g></g></svg>