<?xml version="1.0" encoding="UTF-8"?>
<!DOCTYPE svg PUBLIC "-//W3C//DTD SVG 1.1//EN" "http://www.w3.org/Graphics/SVG/1.1/DTD/svg11.dtd">
<!-- Creator: CorelDRAW X8 -->
<svg xmlns="http://www.w3.org/2000/svg" xml:space="preserve" width="194.875mm" height="208mm" version="1.1" style="shape-rendering:geometricPrecision; text-rendering:geometricPrecision; image-rendering:optimizeQuality; fill-rule:evenodd; clip-rule:evenodd"
viewBox="0 0 19488 20800"
 xmlns:xlink="http://www.w3.org/1999/xlink">
 <defs>
  <style type="text/css">
   <![CDATA[
    .fil0 {fill:white}
   ]]>
  </style>
 </defs>
 <g id="Слой_x0020_1">
  <metadata id="CorelCorpID_0Corel-Layer"/>
  <path class="fil0" d="M2771 8495c42,0 82,-8 119,-23 38,-16 72,-39 100,-68 29,-28 52,-62 68,-100 15,-37 23,-77 23,-119 0,-42 -8,-82 -23,-118 -16,-38 -39,-72 -68,-101 -28,-29 -62,-52 -100,-68 -37,-15 -77,-23 -119,-23 -42,0 -82,8 -118,23 -38,16 -72,39 -101,68 -29,29 -52,63 -68,101 -15,36 -23,76 -23,118 0,42 8,82 23,119 16,38 39,72 68,100 29,29 63,52 100,68 37,15 77,23 119,23zm1641 0l3691 0c42,0 82,-8 119,-23 38,-16 72,-39 100,-68 29,-28 52,-62 68,-100 15,-37 23,-77 23,-119 0,-42 -8,-82 -23,-119 -16,-37 -39,-71 -68,-100 -28,-29 -62,-52 -100,-68 -37,-15 -77,-23 -119,-23l-25 0 0 0 -3641 0 0 0 -25 0c-42,0 -83,8 -119,23 -38,16 -72,39 -101,68 -28,29 -51,63 -67,100 -15,37 -23,77 -23,119 0,42 8,82 23,119 16,38 39,72 67,100 29,29 63,52 100,68 37,15 77,23 118,23l2 0zm14255 991l0 -3188c0,-152 -30,-298 -85,-431 -58,-139 -142,-263 -246,-368 -105,-104 -229,-188 -367,-245 -133,-56 -279,-86 -432,-86l-1741 0 0 -3217c0,-42 -8,-82 -23,-119 -16,-38 -39,-72 -68,-101 -28,-28 -63,-51 -100,-67 -37,-15 -77,-23 -119,-23l-3281 0c-42,0 -82,8 -119,23 -38,16 -72,39 -101,67 -28,29 -51,63 -67,101 -15,37 -23,77 -23,119l0 3217 -4712 0 0 -2087 1330 0c153,0 299,-30 432,-85 138,-58 263,-142 367,-246 105,-105 189,-229 246,-367 55,-133 86,-279 86,-432l0 -821c0,-152 -31,-298 -86,-431 -57,-139 -141,-263 -246,-367 -104,-105 -229,-189 -367,-246 -133,-56 -279,-86 -432,-86l-5742 0c-153,0 -299,30 -432,86 -138,57 -263,141 -367,246 -104,104 -188,228 -246,367 -55,133 -85,279 -85,431l0 821c0,153 30,299 85,432 58,138 142,262 246,367 104,104 229,188 367,246 133,55 279,85 432,85l1331 0 0 2087 -2151 0c-153,0 -299,30 -432,86 -138,57 -263,141 -367,245 -105,105 -189,229 -246,368 -55,133 -86,279 -86,431l0 3259 -66 23c-111,40 -214,95 -306,165 -92,70 -174,155 -241,250 -67,94 -119,198 -154,309 -35,108 -53,223 -53,342l0 9024c0,152 30,298 86,431 57,139 141,263 246,368 104,104 228,188 367,245 133,56 279,86 431,86l17227 0c153,0 299,-30 432,-86 138,-57 263,-141 367,-245 104,-105 188,-229 246,-368 55,-133 86,-279 86,-431l0 -9024c0,-119 -19,-234 -53,-342 -35,-111 -88,-215 -154,-309 -68,-95 -149,-180 -242,-250 -92,-70 -194,-125 -305,-165l-67 -23 0 -71zm-6052 -7225l2561 0 0 5614 -2661 0c1,-1871 1,-3743 0,-5614l100 0zm-820 5614l-411 0c-42,0 -82,8 -118,23 -38,16 -72,39 -101,68 -29,29 -52,63 -67,100 -15,37 -24,77 -24,119 0,42 9,82 24,119 15,38 38,72 67,100 29,29 63,52 101,68 36,15 76,23 118,23l25 0 0 1 5282 0 0 -1 25 0c43,0 83,-8 119,-23 38,-16 72,-39 101,-68 28,-28 52,-62 67,-100 15,-37 24,-77 24,-119 0,-42 -9,-82 -24,-119 -15,-37 -39,-71 -67,-100 -29,-29 -63,-52 -101,-68 -36,-15 -76,-23 -119,-23l-25 0 0 0 -895 0 0 -2087 1741 0c69,0 135,14 195,39 62,26 118,64 165,111 47,47 85,103 111,165 25,61 39,127 39,195l0 3217 -25 0c-1783,0 -3565,0 -5348,0l-2620 0 0 -3727 1841 0 0 2087 -100 0zm-9534 -5999l0 -746c0,-68 14,-134 39,-194 26,-63 63,-119 110,-166 47,-47 104,-85 166,-111 60,-25 126,-39 195,-39l5742 0c69,0 135,14 195,39 63,26 119,64 166,111 47,47 85,103 111,166 25,60 38,126 38,194l0 821c0,69 -13,135 -38,195 -26,62 -64,118 -111,165 -47,47 -103,85 -166,111 -60,25 -126,39 -195,39l-5742 0c-69,0 -135,-14 -195,-39 -62,-26 -119,-64 -166,-111 -47,-47 -84,-103 -110,-165 -25,-60 -39,-126 -39,-195l0 -75zm4302 1305l0 1987 -1841 0 0 -2087 1841 0 0 100zm-4537 2607l7408 0 0 3728c-2665,0 -5329,-1 -7993,0l0 -3218c0,-68 13,-134 38,-195 26,-62 64,-118 111,-165 47,-47 103,-85 166,-111 60,-25 126,-39 195,-39l75 0zm-896 4348l17227 0c69,0 135,14 195,39 62,26 119,63 166,110 47,47 85,104 110,166 25,60 39,126 39,195l0 6252 -18247 0 0 -6252c0,-69 14,-135 39,-195 26,-62 64,-119 111,-166 47,-47 103,-84 166,-110 60,-25 126,-39 194,-39zm6153 7383l5022 0 0 510c0,69 -14,135 -39,195 -26,62 -64,119 -111,166 -47,47 -103,84 -166,110 -60,25 -126,39 -194,39l-25 0 0 0 -4052 0 0 0 -25 0c-69,0 -135,-14 -195,-39 -62,-26 -119,-63 -166,-110 -47,-47 -85,-104 -110,-166 -25,-60 -39,-126 -39,-195l0 -510 100 0zm11074 2661l-17227 0c-68,0 -134,-14 -194,-39 -63,-26 -119,-64 -166,-111 -47,-47 -85,-103 -111,-166 -25,-60 -39,-126 -39,-194l0 -2151 5943 0 0 510c0,153 30,299 85,432 58,138 142,263 246,367 104,104 229,188 367,246 133,55 279,85 432,85l4102 0c152,0 298,-30 431,-85 139,-58 263,-142 368,-246 104,-104 188,-229 245,-367 56,-133 86,-279 86,-432l0 -510 5942 0 0 2151c0,68 -14,134 -39,194 -25,63 -63,119 -110,166 -47,47 -104,85 -166,111 -60,25 -126,39 -195,39zm-2461 -7993l820 0c43,0 83,-9 119,-24 38,-15 72,-38 101,-67 28,-29 52,-63 67,-101 15,-36 24,-76 24,-118 0,-43 -9,-83 -24,-119 -15,-38 -39,-72 -67,-101 -29,-28 -63,-52 -101,-67 -36,-15 -76,-24 -119,-24l-25 0 0 0 -770 0 0 0 -25 0c-42,0 -82,9 -119,24 -37,15 -72,39 -100,67 -29,29 -52,63 -68,101 -15,36 -23,76 -23,119 0,42 8,82 23,118 16,38 39,72 68,101 28,28 62,51 100,67 36,15 76,24 118,24l1 0zm-3281 0l820 0c42,0 82,-9 119,-24 38,-15 72,-38 100,-67 29,-29 52,-63 68,-101 15,-36 23,-76 23,-118 0,-43 -8,-83 -23,-119 -16,-38 -39,-72 -68,-101 -28,-28 -62,-52 -100,-67 -37,-15 -77,-24 -119,-24l-25 0 0 0 -770 0 0 0 -25 0c-42,0 -82,9 -119,24 -38,15 -72,39 -100,67 -29,29 -52,63 -68,101 -15,36 -23,76 -23,119 0,42 8,82 23,118 16,38 39,72 68,101 28,28 62,51 100,67 36,15 76,24 117,24l2 0zm-3281 0l820 0c42,0 82,-9 119,-24 37,-15 72,-38 100,-67 29,-29 52,-63 68,-101 15,-36 23,-76 23,-118 0,-43 -8,-83 -23,-119 -16,-38 -39,-72 -68,-101 -28,-28 -63,-52 -100,-67 -37,-15 -77,-24 -119,-24l-25 0 0 0 -770 0 0 0 -25 0c-43,0 -83,9 -119,24 -38,15 -72,39 -101,67 -28,29 -51,63 -67,101 -15,36 -24,76 -24,119 0,42 9,82 24,118 15,38 39,72 67,101 29,28 63,51 100,67 37,15 77,24 118,24l2 0zm6562 1640l820 0c43,0 83,-8 119,-23 38,-16 72,-39 101,-67 28,-29 52,-63 67,-101 15,-37 24,-77 24,-119 0,-42 -9,-82 -24,-118 -15,-38 -39,-72 -67,-101 -29,-29 -63,-52 -101,-68 -36,-15 -76,-23 -119,-23l-25 0 0 0 -770 0 0 0 -25 0c-42,0 -82,8 -119,23 -37,16 -72,39 -100,68 -29,29 -52,63 -68,100 -15,37 -23,77 -23,119 0,42 8,82 23,119 16,38 39,72 68,101 28,28 62,51 100,67 36,15 76,23 118,23l1 0zm-3281 0l820 0c42,0 82,-8 119,-23 38,-16 72,-39 100,-67 29,-29 52,-63 68,-101 15,-37 23,-77 23,-119 0,-42 -8,-82 -23,-118 -16,-38 -39,-72 -68,-101 -28,-29 -62,-52 -100,-68 -37,-15 -77,-23 -119,-23l-25 0 0 0 -770 0 0 0 -25 0c-42,0 -82,8 -119,23 -38,16 -72,39 -100,68 -29,29 -52,63 -68,100 -15,37 -23,77 -23,119 0,42 8,82 23,119 16,38 39,72 68,101 28,28 62,51 100,67 36,15 76,23 117,23l2 0zm-3281 0l820 0c42,0 82,-8 119,-23 37,-16 72,-39 100,-67 29,-29 52,-63 68,-101 15,-37 23,-77 23,-119 0,-42 -8,-82 -23,-118 -16,-38 -39,-72 -68,-101 -28,-29 -63,-52 -100,-68 -37,-15 -77,-23 -119,-23l-25 0 0 0 -770 0 0 0 -25 0c-43,0 -83,8 -119,23 -38,16 -72,39 -101,68 -28,29 -51,63 -67,100 -15,37 -24,77 -24,119 0,42 9,82 24,119 15,38 39,72 67,101 29,28 63,51 100,67 37,15 77,23 118,23l2 0zm6562 1641l820 0c43,0 83,-8 119,-23 38,-16 72,-39 101,-68 28,-29 52,-63 67,-100 15,-37 24,-77 24,-119 0,-42 -9,-82 -24,-119 -15,-38 -39,-72 -67,-101 -29,-28 -63,-51 -101,-67 -36,-15 -76,-23 -119,-23l-25 0 0 -1 -770 0 0 1 -25 0c-42,0 -82,8 -119,23 -37,16 -72,39 -100,67 -29,29 -52,63 -68,101 -15,37 -23,77 -23,119 0,42 8,82 23,119 16,37 39,71 68,100 28,29 62,52 100,67 36,15 76,24 118,24l1 0zm-3281 0l820 0c42,0 82,-8 119,-23 38,-16 72,-39 100,-68 29,-29 52,-63 68,-100 15,-37 23,-77 23,-119 0,-42 -8,-82 -23,-119 -16,-38 -39,-72 -68,-101 -28,-28 -62,-51 -100,-67 -37,-15 -77,-23 -119,-23l-25 0 0 -1 -770 0 0 1 -25 0c-42,0 -82,8 -119,23 -38,16 -72,39 -100,67 -29,29 -52,63 -68,101 -15,37 -23,77 -23,119 0,42 8,82 23,119 16,37 39,71 68,100 28,29 62,52 100,67 36,15 76,24 117,24l2 0zm-3281 0l820 0c42,0 82,-8 119,-23 37,-16 72,-39 100,-68 29,-29 52,-63 68,-100 15,-37 23,-77 23,-119 0,-42 -8,-82 -23,-119 -16,-38 -39,-72 -68,-101 -28,-28 -63,-51 -100,-67 -37,-15 -77,-23 -119,-23l-25 0 0 -1 -770 0 0 1 -25 0c-43,0 -83,8 -119,23 -38,16 -72,39 -101,67 -28,29 -51,63 -67,101 -15,37 -24,77 -24,119 0,42 9,82 24,119 15,37 39,71 67,100 29,29 63,52 100,67 37,15 77,24 118,24l2 0zm-6563 0l4102 0c42,0 82,-8 118,-23 38,-16 72,-39 101,-68 29,-29 52,-63 67,-100 15,-37 24,-77 24,-119l0 -3281c0,-43 -9,-83 -24,-119 -15,-38 -38,-72 -67,-101 -29,-28 -63,-52 -101,-67 -36,-15 -76,-24 -118,-24l-25 0 0 0 -4052 0 0 0 -25 0c-42,0 -82,9 -119,24 -37,15 -72,39 -100,67 -29,29 -52,63 -68,101 -15,36 -23,76 -23,119l0 3281c0,42 8,82 23,119 16,37 39,71 68,100 28,29 62,52 100,67 36,15 76,24 118,24l1 0zm410 -3281l3382 0 0 2661c-1161,0 -2321,0 -3482,0l0 -2661 100 0z"/>
 </g>
</svg>
