<?xml version="1.0" encoding="UTF-8"?>
<!DOCTYPE svg PUBLIC "-//W3C//DTD SVG 1.1//EN" "http://www.w3.org/Graphics/SVG/1.1/DTD/svg11.dtd">
<!-- Creator: CorelDRAW X8 -->
<svg fill="#01a0bf" xmlns="http://www.w3.org/2000/svg" xml:space="preserve" width="182.518mm" height="182.53mm" version="1.1" style="shape-rendering:geometricPrecision; text-rendering:geometricPrecision; image-rendering:optimizeQuality; fill-rule:evenodd; clip-rule:evenodd"
viewBox="0 0 18252 18253"
 xmlns:xlink="http://www.w3.org/1999/xlink">
 <defs>
 </defs>
 <g id="Слой_x0020_1">
  <metadata id="CorelCorpID_0Corel-Layer"/>
  <path class="fil0" d="M4832 7560l-1042 1042 4289 4289 10049 -10049 -1042 -1042 -9007 9007 -3247 -3247zm11625 9197l-14962 0c0,-5087 -1,-10175 0,-15262l10473 0 0 -1495 -10173 0c-242,0 -474,48 -684,136 -220,91 -417,225 -584,391 -166,167 -300,364 -391,584 -88,210 -136,442 -136,684l0 14662c0,242 48,473 136,684 91,219 225,417 391,583 167,167 364,300 584,392 210,87 442,136 684,136l100 0 0 1 14462 0 0 -1 100 0c242,0 473,-49 684,-136 219,-92 417,-226 583,-392 166,-166 300,-364 392,-583 87,-211 136,-442 136,-684l0 -8078 -1495 0 0 8378 -300 0z"/>
 </g>
</svg>
