<?xml version="1.0" encoding="UTF-8"?>
<!DOCTYPE svg PUBLIC "-//W3C//DTD SVG 1.1//EN" "http://www.w3.org/Graphics/SVG/1.1/DTD/svg11.dtd">
<!-- Creator: CorelDRAW X8 -->
<svg fill="#858585" xmlns="http://www.w3.org/2000/svg" xml:space="preserve" width="182.518mm" height="182.53mm" version="1.1" style="shape-rendering:geometricPrecision; text-rendering:geometricPrecision; image-rendering:optimizeQuality; fill-rule:evenodd; clip-rule:evenodd"
viewBox="0 0 18252 18253"
 xmlns:xlink="http://www.w3.org/1999/xlink">
 <defs>
 </defs>
 <g id="Слой_x0020_1">
  <metadata id="CorelCorpID_0Corel-Layer"/>
  <path class="fil0" d="M16457 16757l-14962 0 0 -118c0,-2504 0,-5008 -1,-7512l0 -1c1,-2504 1,-5008 1,-7512l0 -118 14962 0 300 0 0 6883 0 1495 0 6883 -300 0zm-4489 -16757l-2842 0 -7231 0 0 0 -100 0c-242,0 -474,49 -684,136 -220,91 -417,225 -584,391 -166,167 -300,364 -391,584 -86,207 -135,435 -136,673l0 11 0 1 0 14661 0 1 0 11c1,238 50,466 136,673 91,220 225,417 391,584 167,166 364,300 584,391 210,87 442,136 684,136l100 0 0 0 7231 0 2842 0 4389 0 0 -1 100 0c242,0 473,-49 684,-136 219,-92 417,-226 583,-392 166,-166 300,-364 392,-583 87,-211 136,-442 136,-684l0 -6583 0 -1495 0 -6583c0,-242 -49,-473 -136,-684 -92,-219 -226,-417 -392,-583 -166,-166 -364,-300 -583,-392 -211,-87 -442,-136 -684,-136l-100 0 0 -1 -4389 0z"/>
 </g>
</svg>
