<svg xmlns="http://www.w3.org/2000/svg" viewBox="0 0 589.61 589.61"><defs><style>.cls-1{fill:#066cc7;}</style></defs><title>check_medical</title><g id="Слой_2" data-name="Слой 2"><g id="Слой_1-2" data-name="Слой 1"><g id="Слой_1-3" data-name="Слой_1"><path class="cls-1" d="M363.23,481.49a9.18,9.18,0,0,0-2.86-1.9,8.94,8.94,0,0,0-3.37-.65,8.63,8.63,0,0,0-6.21,2.55h0a9.1,9.1,0,0,0-1.87,2.86,8.77,8.77,0,0,0,1.9,9.58l0,0a10.08,10.08,0,0,0,2.86,1.9,9,9,0,0,0,3.37.65,9.16,9.16,0,0,0,3.37-.65,9.7,9.7,0,0,0,2.86-1.9v0a9.06,9.06,0,0,0,1.9-2.83,9.16,9.16,0,0,0,.65-3.37,9,9,0,0,0-.65-3.37A9.18,9.18,0,0,0,363.23,481.49Zm-31.61-279a9,9,0,0,0-2.86-1.9,8.9,8.9,0,0,0-3.34-.65,8.63,8.63,0,0,0-6.21,2.55,9.27,9.27,0,0,0-1.93,2.86h0a9,9,0,0,0-.65,3.37,8.9,8.9,0,0,0,.65,3.34,9,9,0,0,0,1.9,2.86h0a8.32,8.32,0,0,0,2.83,1.9,8.64,8.64,0,0,0,3.37.68,8.4,8.4,0,0,0,3.34-.68,8.16,8.16,0,0,0,2.86-1.9h0a8.95,8.95,0,0,0,2.55-6.21,8.54,8.54,0,0,0-.68-3.37,8.38,8.38,0,0,0-1.87-2.83ZM228,300.78A74.44,74.44,0,0,0,203.3,305a76.45,76.45,0,0,0-22.11,12.33l-1.76,1.45-1.79-1.45A76.31,76.31,0,0,0,155.57,305a74.34,74.34,0,0,0-78.24,18.43A78,78,0,0,0,55.11,378.2a51.94,51.94,0,0,0,.79,8.67,70.22,70.22,0,0,0,2.44,9.44L59.56,400H44.84a8.79,8.79,0,1,0,0,17.57h23.5l.82,1.39A222.94,222.94,0,0,0,88.3,445.52q11.57,14,27.16,29.54c9.81,9.75,19.62,18.74,28.35,26.42,16.89,14.85,29.48,24.52,30.27,25.14A10.28,10.28,0,0,0,176.6,528a8.73,8.73,0,0,0,2.83.45,8.56,8.56,0,0,0,2.81-.45,9.35,9.35,0,0,0,2.52-1.33c.79-.62,13.41-10.29,30.27-25.14,8.73-7.68,18.57-16.67,28.35-26.42q30.23-30.06,45.41-54.6,14.92-24.07,14.94-42.26a78,78,0,0,0-22.2-54.74A74.68,74.68,0,0,0,228,300.78Zm3.09,161.63c-9.84,9.81-19.76,18.88-28.52,26.56s-16.3,13.89-21.43,18l-1.76,1.42L177.65,507c-6-4.9-15.42-12.64-26.08-22.17-7.43-6.6-15.53-14.14-23.7-22.25-8-7.94-14.83-15.25-20.69-22s-10.77-12.9-14.85-18.51l-3.26-4.51h26.22a8.93,8.93,0,0,0,4.93-1.47,8.83,8.83,0,0,0,3.23-4l12.47-30.78,31.41,73.81a8.74,8.74,0,0,0,7.37,5.33l.37,0h.34a9,9,0,0,0,4.25-1.08,8.71,8.71,0,0,0,3.17-3L207.5,417.6h21.74a8.79,8.79,0,1,0,0-17.57H202.65a9,9,0,0,0-4.22,1.08,8.71,8.71,0,0,0-3.17,3L177,432.88,143.83,355a8.68,8.68,0,0,0-3.23-3.88,8.79,8.79,0,0,0-4.85-1.47h-.11a8.85,8.85,0,0,0-4.85,1.53,8.73,8.73,0,0,0-3.2,4L109.36,400H78.75L78,398.38a69.38,69.38,0,0,1-3.94-10.71,37.49,37.49,0,0,1-1.36-9.47,60.52,60.52,0,0,1,17-42.26,57.07,57.07,0,0,1,41.1-17.57,56.42,56.42,0,0,1,23,4.82A58.28,58.28,0,0,1,173,337a8.53,8.53,0,0,0,2.92,2.1,9.21,9.21,0,0,0,7.09,0,9.11,9.11,0,0,0,2.92-2.1,57.7,57.7,0,0,1,19.19-13.83,56.32,56.32,0,0,1,23-4.82,57.16,57.16,0,0,1,41.1,17.57,60.65,60.65,0,0,1,17,42.26c0,6.6-2.52,18.37-14.63,36.71C263.31,427.38,250.61,443.06,231.14,462.42ZM518,265.24a8.62,8.62,0,0,0-6.21,2.58,8.74,8.74,0,0,0-2.58,6.21V557.57A14.52,14.52,0,0,1,494.79,572H473.33V515.85a8.79,8.79,0,1,0-17.57,0h0V572H32a14.52,14.52,0,0,1-14.46-14.46V232A14.52,14.52,0,0,1,32,217.56H273.49a8.78,8.78,0,0,0,6.21-15,8.62,8.62,0,0,0-6.21-2.58v0H32v0A32,32,0,0,0,0,232V557.57a32.08,32.08,0,0,0,32,32H494.79a32.08,32.08,0,0,0,32-32V274a8.74,8.74,0,0,0-2.58-6.21A8.62,8.62,0,0,0,518,265.24ZM561.32,24.86a34.47,34.47,0,0,0-12.42-18,34.39,34.39,0,0,0-55,27.47A34.35,34.35,0,0,0,547.29,63h0A34.48,34.48,0,0,0,560,47.59l1.33-3.23,2.89,2A18.46,18.46,0,0,1,570,52.81,18.07,18.07,0,0,1,572,61.17V91.79A157.3,157.3,0,0,1,465.48,241l-.94.31-.91-.31A157.2,157.2,0,0,1,357.08,91.79V61.17a17.91,17.91,0,0,1,7.65-14.71l2.86-2L369,47.68A34.85,34.85,0,0,0,381.69,63,34.36,34.36,0,0,0,425,10.09a34.34,34.34,0,0,0-57.32,14.8l-.45,1.53-1.53.43a35.76,35.76,0,0,0-18.91,12.78,35.35,35.35,0,0,0-7.26,21.54V91.79a174.79,174.79,0,0,0,115,164.64l1.87.68V384a18.24,18.24,0,1,1-36.48,0V321.85a35.83,35.83,0,0,0-71.66,0V433.08l-2.27.45a55.24,55.24,0,1,0,22.11,0l-2.27-.45V321.85a18.24,18.24,0,1,1,36.48,0V384a35.83,35.83,0,0,0,71.66,0h0V256.68l1.84-.68A175,175,0,0,0,589.61,91.79V61.17a35.33,35.33,0,0,0-7.31-21.6,35.77,35.77,0,0,0-19-12.76l-1.53-.43Zm-33,26.31a16.84,16.84,0,1,1,11.85-4.93A16.75,16.75,0,0,1,528.29,51.17ZM400.68,17.57a16.79,16.79,0,1,1-11.88,4.93A16.74,16.74,0,0,1,400.68,17.57Zm-6,470.15a37.74,37.74,0,1,1-11.06-26.65A37.62,37.62,0,0,1,394.72,487.73Zm76.05-16.5a8.71,8.71,0,0,0-2.86-1.9,8.54,8.54,0,0,0-3.37-.68,8.95,8.95,0,0,0-6.21,2.58,8.77,8.77,0,0,0,0,12.42v0a9.06,9.06,0,0,0,2.83,1.9h0a9.16,9.16,0,0,0,3.37.65,9,9,0,0,0,3.37-.65,9.35,9.35,0,0,0,2.86-1.9v0a8.63,8.63,0,0,0,2.55-6.21,8.76,8.76,0,0,0-2.55-6.21Z"/></g></g></g></svg>