<svg xmlns="http://www.w3.org/2000/svg" viewBox="0 0 512 512"><defs><style>.cls-1{fill:#0073ca;}</style></defs><title>credit-card</title><g id="Слой_2" data-name="Слой 2"><g id="Capa_1" data-name="Capa 1"><path class="cls-1" d="M152.75,163.89a34.26,34.26,0,0,0-17.7,4.92,34.34,34.34,0,1,0,0,58.83,34.33,34.33,0,1,0,17.7-63.75Zm-35.39,53.67a19.34,19.34,0,1,1,19.34-19.34A19.36,19.36,0,0,1,117.36,217.56Zm35.39,0a19.31,19.31,0,0,1-6.33-1.08,34.22,34.22,0,0,0,0-36.51,19.33,19.33,0,1,1,6.33,37.59Z"/><path class="cls-1" d="M406.92,325.16H334.17a7.5,7.5,0,0,0,0,15h72.74a7.5,7.5,0,0,0,0-15Z"/><path class="cls-1" d="M310.85,325.16H296.41a7.5,7.5,0,0,0,0,15h14.44a7.5,7.5,0,0,0,0-15Z"/><path class="cls-1" d="M104.27,325.16H89.83a7.5,7.5,0,0,0,0,15h14.44a7.5,7.5,0,1,0,0-15Z"/><path class="cls-1" d="M437,75a260.53,260.53,0,0,0-33.19-28,7.5,7.5,0,0,0-8.68,12.23,245.54,245.54,0,0,1,31.27,26.42A241,241,0,0,1,85.59,426.42c-3.3-3.31-6.56-6.77-9.72-10.32a7.51,7.51,0,0,0-12-2.83c-.2.18-.4.36-.6.56a7.5,7.5,0,0,0-.35,10.23c3.89,4.46,8,8.82,12.08,13A256,256,0,0,0,437,75Z"/><path class="cls-1" d="M385.84,98.74A7.5,7.5,0,0,0,383,93.28,206.16,206.16,0,0,0,162.71,71.82a208.79,208.79,0,0,0-71.25,59.57,206.06,206.06,0,0,0,0,249.19c.6.81,1.22,1.61,1.85,2.41a7.5,7.5,0,0,0,5.45,2.85h.45a7.5,7.5,0,0,0,5.3-2.2l2.27-2.27h0L383.65,104.49A7.5,7.5,0,0,0,385.84,98.74ZM199.74,267.19H98v-10H209.73Zm25-25H90.52a7.5,7.5,0,0,0-7.5,7.5v25a7.5,7.5,0,0,0,7.5,7.5h94.22L167.6,299.33H89.41a7.5,7.5,0,1,0,0,15H152.6L100,366.92a191.06,191.06,0,0,1,1.19-223.5h222.3ZM338.51,128.42H113.33A191.17,191.17,0,0,1,366.92,100Z"/><path class="cls-1" d="M420.54,131.4c-.6-.8-1.21-1.6-1.83-2.39a7.5,7.5,0,0,0-11.2-.67l-2.27,2.27h0L128.35,407.51a7.5,7.5,0,0,0,.68,11.21,204.25,204.25,0,0,0,127,43.76,206.31,206.31,0,0,0,171.5-91.61l.21-.3a206.08,206.08,0,0,0-7.17-239.16ZM351.77,219.2a3.27,3.27,0,0,1,3.27-3.27h30.61v6.9H351.77Zm0,18.63h33.87v4.37H351.77Zm0,19.37h33.87v5.29H355a3.27,3.27,0,0,1-3.27-3.27Zm-51.9,0H306v10H289.88ZM416.3,360.62a75,75,0,0,1-33.63,8H267.33a7.5,7.5,0,0,0,0,15H382.67a90,90,0,0,0,17.52-1.73A191.13,191.13,0,0,1,256,447.48,189.2,189.2,0,0,1,145.07,412l28.41-28.41h63.84a7.5,7.5,0,1,0,0-15H188.49l54.25-54.25H406.92a7.5,7.5,0,0,0,0-15H257.74l17.14-17.14h38.63a7.5,7.5,0,0,0,7.5-7.5v-25a7.49,7.49,0,0,0-6.25-7.39l22-22v38.93A18.29,18.29,0,0,0,355,277.49h54.9a18.29,18.29,0,0,0,18.27-18.27v-40a18.29,18.29,0,0,0-18.27-18.27h-53.8L412,145.08a191.07,191.07,0,0,1,4.31,215.54Zm-15.65-98.13V215.93h9.29a3.27,3.27,0,0,1,3.27,3.27v40a3.27,3.27,0,0,1-3.27,3.27Z"/><path class="cls-1" d="M376.86,30.2A256.11,256.11,0,0,0,44.13,399.79a7.5,7.5,0,0,0,12.39-8.45A241.14,241.14,0,0,1,369.76,43.42a7.5,7.5,0,1,0,7.1-13.21Z"/></g></g></svg>