<svg xmlns="http://www.w3.org/2000/svg" viewBox="0 0 431.99 500"><defs><style>.cls-1{fill:#00aabe;}</style></defs><title>doctor_2</title><g id="Слой_2" data-name="Слой 2"><g id="Layer_1" data-name="Layer 1"><path class="cls-1" d="M216,0a97.81,97.81,0,0,0-97.7,97.71v50.62a97.7,97.7,0,1,0,195.39,0V97.71A97.81,97.81,0,0,0,216,0Z"/><path class="cls-1" d="M431.45,373.36a247.81,247.81,0,0,0-140.8-111.29,3.89,3.89,0,0,0-3.9,1c-27.68,27.3-62.08,48.59-70.68,53.74-9.18-5.87-47.85-31.07-70.84-53.74a3.9,3.9,0,0,0-3.9-1A247.75,247.75,0,0,0,.54,373.37a3.91,3.91,0,0,0,0,4C44.95,453,127.5,500,216,500S387,453,431.45,377.32A3.9,3.9,0,0,0,431.45,373.36Zm-82.58,29.14a4.09,4.09,0,0,1-4.2,3.8H318.2c-2.16,0-4.51,1.85-4.51,4v27.36c0,2.15-1.15,3.8-3.31,3.8H286.62a4.07,4.07,0,0,1-4.19-3.8V410.32a3.78,3.78,0,0,0-3.64-4H251.2a3.85,3.85,0,0,1-3.94-3.8V378.95a3.93,3.93,0,0,1,3.94-3.9h27.6a3.69,3.69,0,0,0,3.63-3.92v-27.4a4.12,4.12,0,0,1,4.19-3.86h23.51a3.59,3.59,0,0,1,3.57,3.86v27.48a4.15,4.15,0,0,0,4.25,3.84h26.72a4.24,4.24,0,0,1,4.2,4v23.48Z"/></g></g></svg>