<?xml version="1.0" encoding="UTF-8"?>
<!DOCTYPE svg PUBLIC "-//W3C//DTD SVG 1.1//EN" "http://www.w3.org/Graphics/SVG/1.1/DTD/svg11.dtd">
<!-- Creator: CorelDRAW X8 -->
<svg fill="#066cc7" xmlns="http://www.w3.org/2000/svg" xml:space="preserve" width="185.501mm" height="209.25mm" version="1.1" style="shape-rendering:geometricPrecision; text-rendering:geometricPrecision; image-rendering:optimizeQuality; fill-rule:evenodd; clip-rule:evenodd"
viewBox="0 0 18550 20925"
 xmlns:xlink="http://www.w3.org/1999/xlink">
 <defs>
 </defs>
 <g id="Слой_x0020_1">
  <metadata id="CorelCorpID_0Corel-Layer"/>
  <path class="fil0" d="M18537 19893l-929 -5438c-48,-286 -174,-544 -357,-751 -183,-208 -424,-364 -701,-448l-2531 -764 -2 -25c-25,-303 -100,-597 -221,-872 -119,-274 -284,-529 -490,-754 -164,-179 -349,-335 -551,-463 -202,-130 -421,-232 -651,-305l-55 -18 38 -43c41,-45 78,-88 112,-128 36,-43 72,-87 107,-132 274,-348 489,-712 649,-1059 185,-403 297,-782 340,-1085l4 -33 226 0 0 0c241,0 460,-98 618,-256 158,-158 256,-377 256,-618l0 -467c0,-160 -44,-311 -121,-442 -80,-134 -194,-247 -332,-323l-19 -11 0 -1146 0 0c0,-74 -30,-142 -79,-191 -49,-49 -117,-79 -191,-79 -75,0 -142,30 -191,79 -49,49 -79,117 -79,191l0 1294 -31 5c-64,11 -134,26 -208,47 -62,19 -127,41 -193,69l-2 0c-7,3 -14,6 -20,8 -5,3 -11,6 -18,9l-2 2c-17,7 -33,15 -49,23 -16,7 -32,15 -48,24l-55 30 0 -2541c0,-332 -135,-633 -354,-851 -218,-218 -519,-353 -851,-353l0 0 -848 0 0 0c-143,0 -283,25 -415,72 -133,47 -257,117 -367,207l-83 68c-80,65 -171,116 -267,150 -96,34 -198,52 -301,52 -103,0 -205,-18 -301,-52 -96,-34 -187,-85 -266,-150l-84 -68c-110,-90 -234,-160 -366,-207 -133,-47 -273,-72 -415,-72l-849 0c-332,0 -633,135 -851,353 -218,218 -353,519 -353,851l0 2541 -56 -30c-16,-9 -32,-17 -48,-24 -15,-8 -32,-16 -48,-23l-3 -2c-6,-3 -12,-6 -18,-9 -6,-2 -13,-5 -20,-8l-2 0c-65,-28 -131,-50 -193,-68 -73,-22 -144,-37 -207,-48l-32 -5 0 -3223c0,-508 207,-969 541,-1302 334,-334 795,-541 1303,-541l4536 0c508,0 969,207 1303,541 334,333 541,794 541,1302l0 484c0,74 30,142 79,191 49,49 116,79 191,79 74,0 142,-30 191,-79 48,-49 79,-117 79,-191l0 0 0 -484 0 0c0,-657 -268,-1253 -699,-1684 -432,-432 -1028,-699 -1685,-699l-4536 0c-657,0 -1253,267 -1685,699 -431,431 -699,1027 -699,1684l0 3075 -19 11c-137,76 -252,189 -331,323 -78,131 -122,283 -122,442l0 467c0,241 98,460 256,618 159,158 377,256 618,256l0 0 226 1 5 32c43,303 154,682 340,1085 160,347 374,711 648,1059 36,45 71,89 107,131 34,41 71,84 112,129l38 43 -55 17c-527,168 -983,489 -1319,909 -333,417 -547,930 -594,1486l-2 25 -2531 764c-277,84 -518,240 -701,448 -183,207 -308,465 -357,751l-378 2208c-12,74 6,146 46,202 40,56 102,97 175,110l1 0c73,12 145,-6 201,-46 56,-40 97,-101 110,-175 99,-723 253,-1484 377,-2208 32,-185 113,-351 231,-484 118,-134 273,-235 452,-289l2365 -714 0 690 -30 6c-261,48 -503,162 -701,326 -196,162 -350,373 -440,618 -24,65 -44,132 -59,201 -15,68 -25,137 -30,207l-224 2875c-8,103 5,206 39,302l0 0c33,96 86,185 156,261 70,76 155,135 248,176 94,41 195,63 299,63l383 0c75,0 142,-31 191,-79 49,-49 79,-117 79,-191 0,-75 -30,-142 -79,-191 -49,-49 -116,-79 -191,-79l-383 0c-29,0 -57,-6 -82,-18 -26,-11 -49,-27 -68,-48l0 0c-20,-21 -34,-45 -43,-72l0 0c-9,-26 -13,-54 -11,-82l224 -2875c4,-45 10,-90 20,-134 9,-44 22,-87 38,-129 67,-184 192,-337 351,-445 158,-108 351,-171 554,-172l58 -1 0 0c197,0 383,56 539,156 155,100 280,243 354,418 21,49 37,99 50,150 12,52 21,104 25,157l224 2875c2,28 -2,56 -11,83 -9,26 -23,50 -43,71l0 0c-19,21 -42,37 -68,48 -25,12 -53,18 -81,18l0 -1 -384 0 0 1c-74,0 -142,30 -191,79 -49,49 -79,116 -79,191 0,74 30,142 79,191 49,48 117,79 191,79l384 0c103,0 205,-22 298,-63 93,-41 178,-100 248,-176 70,-76 123,-165 156,-261 34,-96 48,-199 39,-302l-224 -2875c-6,-83 -19,-164 -38,-243 -20,-80 -45,-158 -78,-233 -98,-232 -251,-428 -442,-578 -193,-152 -425,-256 -675,-300l-31 -6 0 -851c371,-112 743,-224 1114,-336l14 29c48,101 120,261 227,516 108,254 250,600 438,1070 179,449 380,960 591,1501 237,609 481,1242 717,1859l0 1c1,4 3,9 5,13 1,5 3,9 5,13l1 2c143,374 288,757 432,1136 143,377 283,748 415,1101 20,53 55,97 99,127 44,31 98,48 154,48 56,0 110,-17 154,-48 44,-30 79,-74 99,-127 132,-352 272,-724 415,-1101 144,-379 289,-762 432,-1136l1 -2c2,-4 4,-8 5,-13 2,-4 4,-9 5,-13l1 -1c235,-615 478,-1247 714,-1854 210,-539 411,-1051 592,-1504l0 0c189,-471 331,-817 439,-1072 107,-255 179,-415 227,-516l14 -29c371,112 743,224 1115,336l0 1875 -31 6c-361,70 -677,265 -903,539 -221,268 -354,612 -354,986 0,428 175,817 456,1098 281,282 670,456 1098,456 428,0 817,-174 1098,-456 281,-281 456,-670 456,-1098 0,-373 -132,-716 -352,-984 -224,-273 -539,-468 -898,-540l-30 -6 0 -1713 2365 714c179,54 334,155 452,289 118,133 200,299 231,484l929 5438c9,51 6,101 -7,148 -12,48 -36,92 -69,131 -33,39 -73,70 -117,90 -45,21 -94,32 -145,32l-16784 0c-51,0 -100,-11 -145,-32 -44,-20 -84,-51 -117,-90 -33,-39 -56,-83 -69,-131 -13,-47 -16,-97 -7,-148l307 -1794c12,-74 -6,-146 -46,-202 -40,-56 -101,-98 -175,-110l0 0c-74,-13 -145,6 -202,46 -56,39 -97,101 -110,174l-306 1796c-22,128 -15,258 18,380 33,123 93,238 177,337 84,100 188,179 303,232 115,53 241,82 372,82l16784 0c131,0 257,-29 372,-82 115,-53 219,-132 303,-232 84,-99 144,-214 177,-337 34,-122 40,-252 18,-381zm-5193 -13729c56,-14 109,-23 154,-29 90,-12 152,-12 153,-12 23,0 45,-2 68,-8 22,-5 44,-13 64,-23l36 -20 16 39c8,20 14,40 18,61 4,20 6,41 6,62l0 467c0,92 -37,176 -98,236 -60,61 -144,98 -236,98l0 0 -210 0 0 -864 29 -7zm-8147 871l-172 0c-92,0 -176,-37 -236,-98 -61,-60 -98,-144 -98,-236l0 -467c0,-21 2,-42 6,-62 4,-21 10,-41 18,-61l16 -38 36 19c20,10 42,18 64,23 23,6 46,8 69,8l4 0 1 0c23,1 149,4 301,41l29 7 0 864 -38 0zm578 308l0 -859 48 15c43,13 88,18 133,16 44,-2 89,-12 131,-30 74,-31 134,-82 177,-145 42,-63 66,-139 66,-219l0 -2839c0,-183 74,-349 194,-469 121,-120 287,-195 470,-195l0 0 849 0 0 0c80,0 159,14 233,41 75,26 145,65 206,116l84 68c128,105 272,186 426,241 154,55 318,83 483,83 165,0 329,-28 483,-83 154,-55 298,-136 426,-241l84 -68c61,-50 131,-90 206,-116 75,-27 154,-41 233,-41l849 0c183,0 349,75 470,195 120,120 194,286 194,469l0 2839c0,80 24,156 66,219 43,63 103,114 177,145 25,10 50,18 75,23 25,5 51,8 77,8 19,0 38,-2 57,-5 18,-2 37,-6 55,-12l48 -14 0 858c0,245 -90,612 -263,1014 -150,346 -361,719 -630,1061 -103,131 -222,267 -356,400 -118,117 -247,231 -388,337l-2 2c-4,2 -8,5 -12,8 -5,4 -9,7 -12,10l-2 1c-236,175 -507,329 -812,440 -306,111 -646,178 -1023,178 -377,0 -717,-67 -1023,-178 -305,-111 -575,-265 -812,-440l-2 -1c-3,-3 -7,-7 -11,-10 -5,-3 -9,-6 -13,-8l-1 -2c-142,-106 -271,-220 -389,-337 -134,-133 -253,-269 -355,-400 -270,-342 -481,-715 -631,-1061 -173,-402 -263,-769 -263,-1014zm5537 4998l-2037 1523c-689,-516 -1379,-1031 -2068,-1546l24 -30c96,-122 171,-262 223,-406 53,-147 81,-299 81,-442l0 -558 55 30c234,126 491,231 772,305 280,74 584,117 913,117 329,0 633,-43 913,-117 281,-74 538,-179 772,-305l56 -30 0 558c0,143 27,295 80,442 52,144 127,284 223,406l24 30 -31 23zm-4578 -338c-79,-30 -162,-48 -246,-52 -83,-4 -168,5 -250,27l-11 3 -10 3 -1122 338 12 -61c93,-453 323,-859 649,-1168 321,-305 733,-516 1196,-585l43 -6 0 938c0,99 -22,200 -59,293 -39,98 -95,188 -161,260l-18 19 -23 -9zm813 2447l-25 -63 0 0c-48,-122 -97,-244 -146,-366 -117,-293 -235,-586 -356,-877l-50 -121 0 0 -26 -61 1 0c-35,-81 -69,-162 -104,-243l1896 1417 -1125 478c-11,-26 -65,-161 -65,-164zm734 1883l-92 -237 -92 -238 -140 -362 -148 -379 173 -74c167,194 333,387 499,580l-153 834 -47 -124zm966 2502c-4,-8 -8,-16 -12,-23 -5,-8 -10,-15 -15,-22l-3 -4 -2 -6c-76,-198 -162,-425 -256,-673 -72,-189 -156,-411 -255,-670l-4 -9 295 -1613 560 -1 295 1614 -4 9c-110,288 -206,540 -288,758 -90,235 -171,450 -242,637l-31 82 -38 -79zm392 -3561l-745 0 -390 -452c257,-109 514,-218 771,-328 257,110 514,219 771,328l-390 452 -17 0zm814 584c-77,200 -154,399 -231,599l-153 -834c167,-193 333,-386 499,-580l173 74 -148 379 -140 362zm1177 -2954l-23 55 0 0c-148,353 -291,707 -433,1061 -49,123 -98,245 -146,367l0 1 -23 59 0 0 -1 2 0 0 -65 165 -1126 -478 1896 -1417 -79 185zm703 -920l-3 -1c-84,-25 -171,-36 -257,-33 -87,4 -174,21 -257,53l-23 9 -18 -19c-66,-72 -122,-162 -161,-260 -37,-93 -58,-194 -58,-293l0 -939 43 7c465,68 880,278 1201,583 324,308 553,714 644,1170l12 61 -1123 -338zm2435 4318c0,280 -114,533 -298,717 -183,183 -437,297 -716,297 -279,0 -533,-114 -716,-297 -184,-184 -298,-437 -298,-717 0,-279 114,-533 298,-716 183,-184 437,-298 716,-298 279,0 533,114 716,298 184,183 298,437 298,716z"/>
 </g>
</svg>
