<?xml version="1.0" encoding="UTF-8"?>
<!DOCTYPE svg PUBLIC "-//W3C//DTD SVG 1.1//EN" "http://www.w3.org/Graphics/SVG/1.1/DTD/svg11.dtd">
<!-- Creator: CorelDRAW X8 -->
<svg fill="#066cc7" xmlns="http://www.w3.org/2000/svg" xml:space="preserve" width="173.242mm" height="174.195mm" version="1.1" style="shape-rendering:geometricPrecision; text-rendering:geometricPrecision; image-rendering:optimizeQuality; fill-rule:evenodd; clip-rule:evenodd"
viewBox="0 0 17324 17419"
 xmlns:xlink="http://www.w3.org/1999/xlink">
 <defs>
 </defs>
 <g id="Слой_x0020_1">
  <metadata id="CorelCorpID_0Corel-Layer"/>
  <path class="fil0" d="M14921 9019c-198,0 -391,24 -577,70 -183,46 -360,113 -527,200l0 1 -62 34c-96,55 -190,115 -279,183 -87,65 -169,137 -247,214l0 1 -621 621 -621 -621c-227,-227 -491,-403 -778,-522 -287,-119 -597,-181 -918,-181 -331,0 -646,67 -932,189 -298,126 -565,311 -788,540l-34 35c-641,-234 -1282,-468 -1923,-702l0 -561 38 -22c108,-63 211,-132 309,-208 97,-75 189,-157 275,-244l22 -23 2957 0 714 -1906 697 1625 1417 0 692 1383 692 -1383 1770 0 0 -414 -2026 0 -436 871 -435 -871 -1401 0 -995 -2322 -976 2603 -2341 0 65 -112c52,-88 99,-179 140,-272 40,-89 75,-181 105,-276l17 -53 184 0c291,0 554,-118 744,-308 191,-191 309,-454 309,-744l0 -1973c0,-1067 -434,-2035 -1135,-2736 -701,-701 -1669,-1135 -2736,-1135 -1067,0 -2035,434 -2736,1135 -701,701 -1135,1669 -1135,2736l0 1973c0,290 118,553 309,744 190,190 453,308 744,308l184 0 17 53c103,327 266,627 476,888 213,265 474,489 769,661l38 22 0 561 -2699 985c-373,136 -685,384 -903,696 -219,312 -344,690 -344,1087l0 4066 10560 0 0 -671 2048 2175 4064 -4318c211,-224 374,-481 484,-760 110,-278 168,-577 168,-884l0 -39c0,-661 -269,-1261 -703,-1695 -435,-435 -1034,-704 -1696,-704l-4 0zm-6466 4187l0 2295 -2138 0c-87,-1135 -175,-2271 -262,-3407l422 -705 646 427 539 -1912 609 223 -46 77c-108,182 -192,379 -249,587 -55,199 -84,409 -84,627l0 39c0,279 48,551 140,807 92,257 229,499 406,714l431 524 0 -55 1277 1357 0 697 -1277 0 0 -1881 -414 -414zm-3609 -2810l-1154 764 -412 -1395 640 -234 1012 809 -86 56zm1833 -851l593 217 -394 1396 -1244 -823 1006 -804 39 14zm-1399 1074l15 -12 836 553 -405 677 -892 0 -399 -672 836 -553 9 7zm-303 1632l675 0c83,1084 167,2167 250,3250l-1244 0 250 -3250 69 0zm3046 -5769l-21 0 8 -82c4,-45 8,-90 10,-136 2,-44 3,-90 3,-138l0 -921 75 0c177,0 336,72 452,187 116,116 187,276 187,452 0,176 -71,336 -187,451 -116,116 -275,187 -452,187l-75 0zm-5561 0c-177,0 -336,-71 -452,-187 -115,-115 -187,-275 -187,-451 0,-176 72,-336 187,-452 116,-115 275,-187 452,-187l75 0 0 921c0,48 1,94 3,138 2,46 6,91 10,136l8 82 -96 0 0 0zm75 -2045l0 354 -75 0c-94,0 -184,13 -269,37 -91,25 -177,63 -258,110l-112 65 0 -1132c0,-953 388,-1818 1014,-2444 626,-626 1490,-1013 2443,-1013 953,0 1818,387 2443,1013 626,626 1014,1491 1014,2444l0 1132 -112 -65c-81,-47 -167,-85 -258,-110 -85,-24 -175,-37 -269,-37l-75 0 0 -354c0,-214 -68,-416 -186,-581 -119,-165 -289,-293 -492,-361l0 0c-126,-42 -256,-58 -384,-49 -129,9 -255,44 -374,103l0 1 -332 165 0 0c-302,151 -639,227 -975,227 -337,0 -674,-76 -975,-227l-1 0 -332 -165 0 -1c-118,-59 -245,-93 -373,-102 -129,-10 -259,7 -385,48 -202,68 -372,197 -491,361 -118,165 -186,365 -186,579l0 2zm413 1689l0 -1689c0,-125 40,-242 110,-338 69,-97 168,-171 286,-211l0 0c30,-10 61,-17 91,-22 31,-5 62,-8 92,-8 45,0 89,5 133,16 42,10 84,25 125,46l333 166c357,179 758,268 1160,268 402,0 803,-89 1161,-268l0 0 332 -166c69,-35 143,-55 218,-60 74,-5 150,4 223,28 118,40 217,115 286,211 70,96 110,213 110,338l0 1689c0,1284 -1045,2329 -2330,2329 -1285,0 -2330,-1045 -2330,-2329zm2330 2743c142,0 281,-11 416,-32 140,-21 276,-53 407,-94l98 -31 0 639 -921 737 -921 -737 0 -639 98 31c131,41 267,73 407,94 135,21 274,32 416,32zm-3891 1586l1501 -548 564 1907 635 -421 416 700c-88,1136 -175,2272 -262,3408l-2138 0 0 -2818 -414 0 0 1127 -1277 0 0 -1961c0,-310 98,-605 269,-850 171,-244 414,-437 706,-544zm-900 3769l1202 0 0 1277 -1277 0 0 -1277 75 0zm16422 -2767c0,253 -48,501 -140,732 -92,231 -226,444 -400,628l-3763 3998 -3763 -3998c-174,-184 -309,-397 -400,-628 -92,-231 -140,-479 -140,-732l0 -39c0,-547 223,-1044 582,-1403 360,-360 856,-582 1404,-582 264,0 521,51 760,150 238,99 456,244 643,431l914 914 913 -914c187,-187 406,-332 644,-431 238,-99 496,-150 760,-150 548,0 1044,222 1403,582 360,359 583,856 583,1403l-1 0 0 39 1 0zm-3533 99l-1541 0 0 1127 -1127 0 0 1541 1127 0 0 1127 1541 0 0 -1127 1128 0 0 -1541 -1128 0 0 -1127zm714 1616l0 638 -1127 0 0 1127 -714 0 0 -1127 -1127 0 0 -713 1127 0 0 -1128 714 0 0 1128 1127 0 0 75zm-9793 -8028c37,-37 60,-89 60,-146 0,-57 -23,-109 -60,-146 -38,-38 -89,-61 -146,-61 -57,0 -109,23 -147,61 -37,37 -60,89 -60,146 0,57 23,109 60,146 38,38 90,61 147,61 57,0 108,-23 146,-61zm2255 0c37,-37 60,-89 60,-146 0,-57 -23,-109 -60,-146 -38,-38 -90,-61 -147,-61 -57,0 -108,23 -146,61 -37,37 -60,89 -60,146 0,57 23,109 60,146 38,38 89,61 146,61 57,0 109,-23 147,-61zm-224 1338l-416 0c-17,147 -84,278 -183,377 -115,115 -275,187 -451,187 -176,0 -336,-72 -451,-187 -99,-99 -166,-230 -183,-377l-416 0c19,261 132,495 306,669 191,191 454,309 744,309 290,0 553,-118 744,-309 174,-174 287,-408 306,-669zm10994 846l-413 0 0 414 413 0 0 -414z"/>
 </g>
</svg>
