<?xml version="1.0" encoding="UTF-8"?>
<!DOCTYPE svg PUBLIC "-//W3C//DTD SVG 1.1//EN" "http://www.w3.org/Graphics/SVG/1.1/DTD/svg11.dtd">
<!-- Creator: CorelDRAW X8 -->
<svg fill="#fff" xmlns="http://www.w3.org/2000/svg" xml:space="preserve" width="223.992mm" height="224.06mm" version="1.1" style="shape-rendering:geometricPrecision; text-rendering:geometricPrecision; image-rendering:optimizeQuality; fill-rule:evenodd; clip-rule:evenodd"
viewBox="0 0 22399 22406"
 xmlns:xlink="http://www.w3.org/1999/xlink">
 <defs>
 </defs>
 <g id="Слой_x0020_1">
  <metadata id="CorelCorpID_0Corel-Layer"/>
  <path class="fil0" d="M13380 3314c0,-186 -76,-356 -199,-478l0 0c-122,-123 -291,-198 -478,-198l-451 0 0 -451c0,-187 -76,-356 -198,-479 -122,-122 -292,-198 -478,-198l-752 0c-187,0 -356,76 -479,198l0 0c-122,123 -198,292 -198,479l0 451 -451 0c-187,0 -356,75 -478,198l0 0c-122,122 -198,292 -198,478l0 752c0,187 76,356 198,478l0 1c122,122 291,198 478,198l451 0 0 450c0,187 76,356 199,479l0 0c122,122 291,198 478,198l752 0c186,0 356,-76 478,-198 122,-123 198,-292 198,-479l0 -450 451 0c187,0 356,-76 478,-198l0 -1c123,-122 199,-291 199,-478l0 -752zm-677 827l-752 0c-83,0 -158,34 -212,88 -55,54 -88,129 -88,213l0 826 -902 0 0 -826c0,-83 -34,-159 -88,-213 -55,-54 -130,-88 -213,-88l0 0 -827 0 0 -902 827 0c83,0 159,-33 213,-87 54,-55 88,-130 88,-214l0 -826 902 0 0 826c0,84 33,159 88,214 54,54 129,87 212,87l827 0 0 902 -75 0zm-4510 7366l1879 0c187,0 357,-76 479,-198l0 0c122,-122 198,-292 198,-479l0 -1878c0,-187 -76,-356 -198,-479 -123,-122 -292,-198 -479,-198l0 0 -1879 0 0 0c-187,0 -356,76 -478,198 -123,123 -198,292 -198,479l0 1878c0,187 75,357 198,479l0 0c122,122 290,198 477,198l1 0zm0 -2630l1954 0 0 2028 -2029 0 0 -2028 75 0zm4134 2630l1879 0c187,0 356,-76 479,-198 122,-123 198,-292 198,-479l0 -1878c0,-187 -76,-357 -198,-479l0 0c-123,-122 -292,-198 -479,-198l0 0 -1879 0 0 0c-187,0 -356,76 -478,198 -123,123 -198,292 -198,479l0 1878c0,187 75,357 198,479 122,122 290,198 477,198l1 0zm0 -2630l1954 0 0 2028 -2029 0 0 -2028 75 0zm-4059 6764l1804 0c187,0 357,-76 479,-198l0 0c122,-123 198,-292 198,-479l0 -1879c0,-187 -76,-356 -198,-478l0 0c-123,-123 -292,-198 -479,-198l0 -1 -1879 0 0 1c-187,0 -356,75 -478,198l0 0c-123,122 -198,291 -198,478l0 1879c0,187 75,356 198,479l0 0c122,122 291,198 478,198l75 0zm-75 -2631l1954 0 0 2029 -2029 0 0 -2029 75 0zm-3758 150l-1879 0c-187,0 -356,76 -478,198 -123,123 -199,292 -199,479l0 1879c0,187 76,356 199,479l0 0c122,122 291,198 478,198l1879 0c187,0 356,-76 479,-198l0 0c122,-123 198,-292 198,-479l0 -1879c0,-187 -76,-356 -198,-479 -123,-122 -292,-198 -479,-198zm-1954 2556l0 -1954 2029 0 0 2029 -2029 0 0 -75zm1879 1578l-1804 0c-187,0 -356,76 -478,198l0 0c-123,123 -199,292 -199,479l0 1879c0,187 76,356 199,478l0 1c122,122 291,198 478,198l0 0 1879 0 0 0c187,0 356,-76 479,-198l0 -1c122,-122 198,-291 198,-478l0 -1879c0,-187 -76,-356 -198,-479l0 0c-123,-122 -292,-198 -479,-198l-75 0zm-1879 2556l0 -1954 2029 0 0 2029 -2029 0 0 -75zm17362 -6690l-1879 0c-187,0 -356,76 -478,198l0 1c-123,122 -198,291 -198,478l0 1879c0,187 75,356 198,479 122,122 291,198 478,198l1879 0c187,0 356,-76 479,-198 122,-123 198,-292 198,-479l0 -1879c0,-187 -76,-356 -198,-478l0 -1c-122,-122 -292,-198 -479,-198zm-1954 2556l0 -1954 2029 0 0 2029 -2029 0 0 -75zm1879 1578l-1804 0c-187,0 -356,76 -478,198 -123,123 -198,292 -198,479l0 1879c0,187 75,356 198,478 122,123 291,199 478,199l0 0 1879 0 0 0c187,0 356,-76 479,-199 122,-122 198,-291 198,-478l0 -1879c0,-187 -76,-356 -198,-479 -123,-122 -292,-198 -479,-198l-75 0zm-1879 2556l0 -1954 2029 0 0 2029 -2029 0 0 -75zm-5487 -4209l1804 0c187,0 356,-76 479,-198 122,-123 198,-292 198,-479l0 -1879c0,-186 -76,-356 -198,-478 -123,-123 -292,-198 -479,-198l0 -1 -1879 0 0 1c-187,0 -356,75 -478,198 -123,122 -198,292 -198,478l0 1879c0,187 75,356 198,479 122,122 291,198 478,198l75 0zm-75 -2631l1954 0 0 2029 -2029 0 0 -2029 75 0zm9395 -2856l-5336 0 0 -1578 0 0c0,-498 -202,-949 -529,-1275 -327,-327 -777,-529 -1275,-530l0 1 -1363 0 182 -136c636,-474 1085,-1125 1312,-1846 227,-722 233,-1513 -17,-2266 -250,-754 -727,-1385 -1340,-1827 -613,-443 -1362,-697 -2156,-697 -794,0 -1543,254 -2156,697 -613,442 -1091,1073 -1341,1827 -249,753 -244,1544 -16,2266 227,721 676,1372 1312,1846l181 136 -1363 0 0 -1c-497,1 -948,203 -1275,530 -326,326 -528,777 -529,1275l0 0 0 1578 -5336 0c-187,0 -356,76 -479,198l1 0c-123,123 -199,292 -199,478l0 752 0 0c0,120 33,236 91,337 59,100 143,186 247,246l38 21 0 9543c0,187 76,356 198,479l0 0c123,122 292,198 479,198l0 0 20294 0 0 0c186,0 356,-76 478,-198l0 0c123,-123 198,-292 198,-479l0 -9543 38 -21c104,-60 189,-146 247,-247 58,-100 91,-216 91,-336l0 0 0 -752c0,-186 -76,-356 -198,-478 -122,-122 -291,-198 -477,-198l-2 0zm75 676l0 827 -5411 0 0 -902 5411 0 0 75zm-13679 -7140c0,-851 345,-1621 903,-2179 557,-557 1328,-902 2179,-902 851,0 1621,345 2179,902 557,558 902,1328 902,2179 0,851 -345,1621 -902,2179 -558,558 -1328,903 -2179,903l0 -1c-851,-1 -1621,-346 -2178,-903 -558,-557 -903,-1327 -904,-2178l0 0zm-7441 7065l5336 0 0 902 -5411 0 0 -902 75 0zm376 1504l4960 0 0 9545 -5035 0 0 -9545 75 0zm5562 -301l0 -3382c0,-332 135,-633 352,-851 218,-217 518,-352 850,-352l6765 0c332,0 633,135 850,352 218,218 352,519 352,851l0 13228 -1653 0 0 -4585c0,-187 -75,-356 -198,-478l0 0c-122,-123 -292,-198 -478,-198l-4510 0c-187,0 -356,75 -479,198l0 0c-122,122 -198,291 -198,478l0 4585 -1653 0 0 -9846zm2330 5186l1954 0 0 4660 -2029 0 0 -4660 75 0zm2556 4585l0 -4585 2029 0 0 4660 -2029 0 0 -75zm4885 0l0 -9470 5036 0 0 9545 -5036 0 0 -75zm-6101 -2042c54,-55 88,-130 88,-213 0,-83 -34,-158 -88,-213 -54,-54 -129,-88 -213,-88 -83,0 -158,34 -213,89 -54,54 -88,129 -88,212 0,83 34,159 88,213 55,54 130,88 213,88 83,0 159,-34 213,-88zm2255 0c54,-54 88,-130 88,-213 0,-83 -34,-158 -88,-212 -55,-55 -130,-89 -213,-89 -83,0 -158,34 -213,89 -54,54 -88,129 -88,212 0,83 34,159 88,213 55,54 130,88 213,88 83,0 159,-34 213,-88z"/>
 </g>
</svg>
