<svg xmlns="http://www.w3.org/2000/svg" viewBox="0 0 47 60"><defs><style>.cls-1{fill:#066cc7;}</style></defs><title>Ресурс 1</title><g id="Слой_2" data-name="Слой 2"><g id="Capa_1" data-name="Capa 1"><path class="cls-1" d="M32.41,0H0V60H47V14.59ZM33,3.41,43.59,14H33ZM2,58V2H31V16H45V58Z"/><path class="cls-1" d="M36,21H20a1,1,0,0,0,0,2H36a1,1,0,0,0,0-2Z"/><path class="cls-1" d="M16.38,18.22l-4.3,3.44-1.37-1.37a1,1,0,1,0-1.41,1.41l2,2a1,1,0,0,0,1.33.07l5-4a1,1,0,0,0-1.25-1.56Z"/><path class="cls-1" d="M36,32H20a1,1,0,0,0,0,2H36a1,1,0,0,0,0-2Z"/><path class="cls-1" d="M16.38,29.22l-4.3,3.44-1.37-1.37a1,1,0,0,0-1.41,1.41l2,2a1,1,0,0,0,1.33.07l5-4a1,1,0,0,0-1.25-1.56Z"/><path class="cls-1" d="M36,43H20a1,1,0,0,0,0,2H36a1,1,0,0,0,0-2Z"/><path class="cls-1" d="M16.38,40.22l-4.3,3.44-1.37-1.37a1,1,0,1,0-1.41,1.41l2,2a1,1,0,0,0,1.33.07l5-4a1,1,0,0,0-1.25-1.56Z"/></g></g></svg>