<svg xmlns="http://www.w3.org/2000/svg" viewBox="0 0 474.37 508.45"><defs><style>.cls-1{fill:#066cc7;}</style></defs><title>medical-history</title><g id="Слой_2" data-name="Слой 2"><g id="Слой_1-2" data-name="Слой 1"><g id="Слой_1-3" data-name="Слой_1"><path class="cls-1" d="M151.82,115.93h10.33v10.3a23.83,23.83,0,0,0,47.65,0v-10.3h10.3a23.83,23.83,0,1,0,0-47.65H209.8V58a23.83,23.83,0,1,0-47.65,0V68.28H151.82a23.83,23.83,0,0,0,0,47.65Zm0-34.15h17.06A6.69,6.69,0,0,0,175.65,75V58a10.31,10.31,0,0,1,20.62,0V75A6.74,6.74,0,0,0,203,81.78H220.1a10.31,10.31,0,1,1,0,20.62H203a6.79,6.79,0,0,0-6.76,6.76v17.06a10.31,10.31,0,0,1-20.62,0V109.17a6.74,6.74,0,0,0-6.76-6.76H151.82a10.31,10.31,0,0,1,0-20.62ZM331,68.28H274.85l-.36-1.3A92,92,0,0,0,97.43,67l-.36,1.3H40.89v0A41,41,0,0,0,0,109.17H0V467.56H0a41,41,0,0,0,40.89,40.89H331a40.91,40.91,0,0,0,40.89-40.89h0V109.17h0A41,41,0,0,0,331,68.25ZM186,184.21a92.22,92.22,0,0,0,88.51-67l.36-1.27h49.42V460.79H47.65V115.93H97.07l.36,1.27a92.22,92.22,0,0,0,88.54,67v0Zm0-170.68A78.58,78.58,0,1,1,107.4,92.1h0A78.62,78.62,0,0,1,186,13.53Zm172.42,454A27.34,27.34,0,0,1,331,494.92H40.89a27.34,27.34,0,0,1-27.36-27.36V109.17A27.38,27.38,0,0,1,40.89,81.78H94.48l-.19,1.93c-.11,1.35-.22,2.76-.3,4.2s-.11,2.73-.11,4.2,0,2.84.11,4.2.19,2.82.3,4.17l.19,1.93H49.42a15.27,15.27,0,0,0-15.27,15.3V459a15.32,15.32,0,0,0,15.27,15.3H322.5A15.32,15.32,0,0,0,337.8,459V117.7a15.27,15.27,0,0,0-15.3-15.3h-45l.17-1.93c.11-1.33.22-2.73.3-4.17s.11-2.73.11-4.2,0-2.87-.11-4.2-.19-2.84-.3-4.2l-.17-1.93H331a27.38,27.38,0,0,1,27.36,27.39h0V467.56Zm-274.82-198a6.72,6.72,0,0,0,4.78-2A6.78,6.78,0,0,0,83.57,256H81.81V218.33h44.42a6.76,6.76,0,1,0,0-13.53H83.57a15.27,15.27,0,0,0-15.3,15.3v34.12a15.27,15.27,0,0,0,15.24,15.3Zm30.4-28.6a6.69,6.69,0,0,0-4.75-1.88,6.79,6.79,0,0,0-6.71,6.71,6.69,6.69,0,0,0,1.88,4.75l17.06,17a6.73,6.73,0,0,0,9.55,0h0l42.68-42.66h0a6.77,6.77,0,0,0-.11-9.47h0a6.73,6.73,0,0,0-9.47-.08h0L126.23,253.2Zm174.41-14.05h8.53a6.84,6.84,0,0,0,4.78-2,6.8,6.8,0,0,0,0-9.55,6.67,6.67,0,0,0-4.78-2h-8.53a6.74,6.74,0,0,0-6.76,6.76,6.76,6.76,0,0,0,2,4.78A6.85,6.85,0,0,0,288.38,226.86Zm-76.81,0h42.66a6.74,6.74,0,0,0,4.78-2,6.76,6.76,0,0,0-4.78-11.54H211.57a6.76,6.76,0,0,0,0,13.53Zm0,34.12h68.25a6.77,6.77,0,0,0,4.8-11.54,6.85,6.85,0,0,0-4.8-2H211.57a6.74,6.74,0,0,0-4.78,2,6.63,6.63,0,0,0-2,4.78,6.74,6.74,0,0,0,6.76,6.76Zm-128,93.87a6.76,6.76,0,0,0,0-13.53H81.81V303.64h44.42a6.75,6.75,0,1,0,0-13.5H83.57a15.27,15.27,0,0,0-15.3,15.3v34.12a15.27,15.27,0,0,0,15.3,15.3Zm80.54-54.22-37.88,37.88L114,326.26a6.73,6.73,0,0,0-9.47.08,6.77,6.77,0,0,0-.11,9.47h0l17.06,17.06a6.73,6.73,0,0,0,9.55,0l42.68-42.66h0a6.78,6.78,0,0,0-9.58-9.58Zm132.8-2h-8.53a6.75,6.75,0,1,0,0,13.5h8.53a6.75,6.75,0,1,0,0-13.5Zm-85.34,13.5h42.66a6.75,6.75,0,1,0,0-13.5H211.57a6.77,6.77,0,0,0-4.8,11.54A6.83,6.83,0,0,0,211.57,312.18Zm0,34.15h68.25a6.8,6.8,0,0,0,4.8-2,6.76,6.76,0,0,0-4.8-11.54H211.57a6.79,6.79,0,0,0-6.76,6.76,6.72,6.72,0,0,0,2,4.78A6.85,6.85,0,0,0,211.57,346.33Zm-128,93.84a6.76,6.76,0,0,0,4.78-2,6.77,6.77,0,0,0,0-9.58,6.72,6.72,0,0,0-4.78-2H81.81V389h44.42A6.75,6.75,0,0,0,131,377.44a6.74,6.74,0,0,0-4.78-2H83.57a15.32,15.32,0,0,0-15.3,15.3v34.12a15.27,15.27,0,0,0,15.3,15.3ZM164.11,386l-37.88,37.88-12.29-12.29h0a6.73,6.73,0,0,0-9.44.11h0a6.8,6.8,0,0,0-.08,9.47h0l17.06,17.06a6.8,6.8,0,0,0,9.55,0l42.68-42.68v0a6.91,6.91,0,0,0,1.88-4.75,6.82,6.82,0,0,0-2-4.72h0a6.59,6.59,0,0,0-4.72-2,6.69,6.69,0,0,0-4.75,1.88Zm132.8-2h-8.53a6.8,6.8,0,0,0-4.8,2,6.76,6.76,0,0,0,4.8,11.54h8.53a6.76,6.76,0,0,0,0-13.53Zm-85.34,13.53h42.66a6.76,6.76,0,0,0,0-13.53H211.57a6.85,6.85,0,0,0-4.8,2,6.72,6.72,0,0,0-2,4.78,6.79,6.79,0,0,0,6.76,6.76Zm0,34.12h68.25a6.75,6.75,0,1,0,0-13.5H211.57a6.69,6.69,0,0,0-6.76,6.74,6.74,6.74,0,0,0,6.76,6.76Zm242.3-320.71H413a22.32,22.32,0,0,0-20.49,23.72V416.37a7.74,7.74,0,0,0,.39,2.21l27.8,80,0,.14a13.12,13.12,0,0,0,25.35.11c3-9.19,27.86-77.55,27.86-80.23a4.75,4.75,0,0,0,.28-1.08,5,5,0,0,0,.11-1.1V134.65a22.32,22.32,0,0,0-20.46-23.72Zm-5.38,334.73a59.65,59.65,0,0,0-30.12,0l-1.57.39-8-22.94H458l-8,22.94ZM406,211.57V184.21h54.75v29.13H406ZM440.2,407.81V296.88a6.84,6.84,0,0,0-2-4.78,6.75,6.75,0,0,0-11.54,4.78V409.61H406V226.86h20.62v35.89a6.79,6.79,0,0,0,6.76,6.76,6.72,6.72,0,0,0,4.78-2,6.85,6.85,0,0,0,2-4.8V226.86h20.6V409.61H440.2ZM412.95,124.46h41c1.88,0,3.78,1.33,5.11,3.51a13.44,13.44,0,0,1,1.77,6.79v35.92H406V134.76a13.44,13.44,0,0,1,1.77-6.79C409.14,125.79,411,124.46,412.95,124.46Zm18.8,364.69-10.55-30.4,2-.41a49.52,49.52,0,0,1,20.54,0l2,.41-12.23,35.17Z"/></g></g></g></svg>