<svg xmlns="http://www.w3.org/2000/svg" viewBox="0 0 184 154.72"><defs><style>.cls-1{fill:#00aabe;}</style></defs><title>medicine-briefcase</title><g id="Слой_2" data-name="Слой 2"><g id="Capa_1" data-name="Capa 1"><path class="cls-1" d="M160.32,23.92h-3.57V18.24a2.5,2.5,0,0,0-2.5-2.5h-14a2.5,2.5,0,0,0-2.5,2.5v5.68H125.33V17.58A17.6,17.6,0,0,0,107.75,0H76.25A17.6,17.6,0,0,0,58.67,17.58v6.34H46.25V18.24a2.5,2.5,0,0,0-2.5-2.5h-14a2.5,2.5,0,0,0-2.5,2.5v5.68H23.68A23.68,23.68,0,0,0,0,47.6V131a23.68,23.68,0,0,0,23.68,23.68H160.32A23.68,23.68,0,0,0,184,131V47.6A23.68,23.68,0,0,0,160.32,23.92ZM68.67,17.58A7.59,7.59,0,0,1,76.25,10h31.5a7.59,7.59,0,0,1,7.58,7.58v6.34H68.67ZM92,132a42.65,42.65,0,1,1,42.65-42.65A42.65,42.65,0,0,1,92,132ZM124,99.8a2.5,2.5,0,0,1-2.5,2.5H105v16.51a2.5,2.5,0,0,1-2.5,2.5h-21a2.5,2.5,0,0,1-2.5-2.5V102.34H62.51a2.5,2.5,0,0,1-2.5-2.5l0-21a2.5,2.5,0,0,1,2.5-2.5H79V59.82a2.5,2.5,0,0,1,2.5-2.5h21a2.5,2.5,0,0,1,2.5,2.5V76.31h16.49a2.5,2.5,0,0,1,2.5,2.5Z"/></g></g></svg>