<?xml version="1.0" encoding="UTF-8"?>
<!DOCTYPE svg PUBLIC "-//W3C//DTD SVG 1.1//EN" "http://www.w3.org/Graphics/SVG/1.1/DTD/svg11.dtd">
<!-- Creator: CorelDRAW X8 -->
<svg fill="#066cc7" xmlns="http://www.w3.org/2000/svg" xml:space="preserve" width="208.501mm" height="208.503mm" version="1.1" style="shape-rendering:geometricPrecision; text-rendering:geometricPrecision; image-rendering:optimizeQuality; fill-rule:evenodd; clip-rule:evenodd"
viewBox="0 0 20850 20850"
 xmlns:xlink="http://www.w3.org/1999/xlink">
 <defs>
 </defs>
 <g id="Слой_x0020_1">
  <metadata id="CorelCorpID_0Corel-Layer"/>
  <path class="fil0" d="M3361 18637c-31,-31 -68,-55 -109,-72 -40,-17 -83,-26 -128,-26 -44,0 -88,9 -128,26 -40,17 -78,41 -109,72 -31,31 -55,69 -72,109l0 0c-17,41 -26,84 -26,129 0,44 9,87 26,128 17,40 41,78 72,108l0 0c32,32 69,56 109,73 41,17 84,26 128,26 45,0 88,-9 128,-26 41,-17 78,-41 109,-72l1 -1c31,-30 55,-68 72,-108 17,-41 26,-84 26,-128 0,-45 -9,-88 -26,-129 -17,-40 -41,-77 -72,-108l-1 -1zm15769 -11156c-31,-31 -68,-55 -109,-72 -40,-17 -84,-26 -128,-26 -44,0 -88,9 -128,26 -41,17 -78,41 -109,72 -31,31 -56,69 -73,110 -16,40 -25,83 -25,128 0,44 9,87 25,128 17,40 42,78 73,108l0 0c31,32 68,56 109,73 40,17 84,26 128,26 44,0 88,-9 128,-26 41,-17 78,-41 109,-72l0 -1c31,-30 56,-68 73,-108 16,-40 25,-84 25,-128 0,-45 -9,-88 -25,-129 -17,-40 -42,-77 -73,-108l0 -1zm1622 -7383c-32,-31 -69,-56 -109,-72 -40,-17 -84,-26 -128,-26l0 0 -10090 1 0 0c-93,0 -176,37 -237,98 -61,61 -98,144 -98,237l0 1230c-1315,353 -2631,702 -3945,1057 -89,24 -160,82 -202,156l0 0c-43,74 -58,165 -34,255 676,2520 1351,5041 2026,7561l-1837 1838 -51 -75c-106,-155 -249,-283 -416,-371 -160,-85 -344,-133 -538,-133l-3937 0c-319,0 -608,130 -817,339 -209,209 -339,498 -339,816l0 6686 0 0c0,318 130,607 339,816 209,210 498,339 817,339l3937 0c268,0 515,-91 711,-244 200,-157 348,-379 411,-633l29 -119 580 506c182,158 389,281 610,364 221,83 458,126 699,126l12382 0c92,0 176,-37 237,-98 60,-60 98,-144 98,-237l0 0 0 -20180c0,-44 -9,-88 -26,-128 -16,-40 -41,-77 -72,-109l0 0zm-15180 19672c-16,104 -65,197 -136,268 -88,88 -209,142 -343,142l-3937 0c-134,0 -255,-54 -343,-142 -88,-88 -142,-209 -142,-343l0 0 0 -6686 0 0c0,-133 54,-255 142,-342 88,-88 209,-143 343,-143l1633 0 0 4800c0,93 38,176 98,237 61,61 145,98 237,98 93,0 177,-37 237,-98 61,-61 99,-144 99,-237l0 0 0 -4800 1633 0c134,0 255,55 343,143 88,87 142,209 142,342l0 6761 -6 0zm1144 -16606l3374 -904 0 1675 -331 89c-43,12 -83,31 -117,58 -35,27 -64,60 -86,98l0 0c-23,39 -37,81 -42,124 -6,43 -3,87 8,131 84,314 33,633 -118,894l0 0c-151,262 -402,466 -716,550 -43,11 -83,31 -117,58 -35,27 -64,60 -86,98 -23,39 -37,81 -42,124 -6,44 -3,88 9,131l1624 6015 -979 0 -439 -1716c-6,-23 -13,-43 -22,-62 -9,-19 -21,-38 -34,-56l-9 -11c-650,-2425 -1300,-4851 -1949,-7276l72 -20zm3374 2595l0 4026c-304,-1125 -608,-2249 -911,-3374l53 -28c149,-76 284,-172 404,-282 122,-113 228,-242 315,-382l139 -222 0 262zm5817 14421l-7774 0c-159,0 -316,-29 -463,-84 -147,-55 -285,-137 -405,-242l-1016 -886c0,-1913 -1,-3825 0,-5738l1905 -1905 358 1398c19,74 61,137 119,182l0 0c57,44 129,70 205,70l0 0 8064 1 0 -1c179,0 342,73 459,191 118,117 190,280 190,459 0,179 -72,341 -190,459 -117,117 -280,190 -459,190l-4132 0c-92,0 -176,37 -237,98 -60,61 -98,145 -98,237 0,93 38,176 98,237 61,61 145,98 237,98l0 0 5416 0 0 0c179,0 341,73 459,191 117,117 190,279 190,458 0,179 -73,342 -190,459 -118,118 -280,191 -459,191l-5416 0c-92,0 -176,37 -237,98 -60,60 -98,144 -98,237 0,92 38,176 98,237 61,60 145,98 237,98l0 0 4538 0 0 0c179,0 342,73 459,190 118,118 191,280 191,459 0,179 -73,342 -191,459 -117,118 -280,190 -459,190l-4538 0c-92,0 -176,38 -237,99 -60,60 -98,144 -98,237 0,92 38,176 98,237 61,60 145,98 237,98l0 0 3139 0 0 0c179,0 342,73 459,190 118,118 191,280 191,459l-1 0c0,179 -73,341 -190,459 -118,117 -280,190 -459,190zm4197 0l-3043 0 48 -106c39,-84 68,-173 88,-265 20,-90 30,-183 30,-278 0,-96 -10,-189 -30,-278 -20,-93 -49,-182 -88,-266l-48 -105 245 0c364,0 694,-148 933,-387 239,-239 387,-569 387,-933 0,-104 -12,-206 -36,-303 -23,-101 -59,-198 -104,-287l-41 -82 88 -24c283,-78 528,-247 701,-474 169,-222 269,-499 269,-799 0,-144 -23,-283 -66,-414 -45,-135 -111,-260 -194,-372l-15 -20 0 -5223 0 0c0,-92 -37,-176 -98,-237 -61,-60 -144,-98 -237,-98 -93,0 -176,38 -237,98 -61,61 -98,145 -98,237l0 4761 -91 -20c-47,-11 -94,-18 -141,-24 -46,-5 -93,-7 -142,-7l-130 0 48 -106c38,-84 68,-173 88,-265 19,-90 30,-183 30,-278 0,-364 -148,-694 -387,-933 -239,-239 -569,-387 -933,-387l-1024 0 335 -144c342,-146 633,-391 836,-698 196,-298 311,-655 311,-1038 0,-520 -212,-992 -554,-1334 -342,-342 -814,-554 -1334,-554 -521,0 -993,212 -1335,554 -341,342 -553,814 -553,1334 0,383 114,740 311,1037 203,308 493,553 835,699l335 144 -2681 0 0 -7934 59 -13c352,-77 666,-254 913,-500 246,-246 423,-561 500,-913l13 -59 3206 0 13 59c76,352 253,667 500,913 246,246 561,423 913,500l59 13 0 1336c0,92 37,176 98,237 61,60 144,98 237,98 92,0 176,-38 237,-98 61,-61 98,-145 98,-237l0 -1642c0,-92 -37,-176 -98,-237 -61,-60 -145,-98 -237,-98 -325,0 -620,-132 -834,-346 -213,-213 -345,-508 -345,-833 0,-93 -38,-177 -99,-237 -60,-61 -144,-98 -237,-98l-3817 0c-93,0 -176,37 -237,98 -61,60 -98,144 -98,237 0,325 -133,620 -346,833 -214,214 -508,346 -834,346 -92,0 -176,38 -237,98 -60,61 -98,145 -98,237l0 8240 -951 0 0 -11634c3140,0 6280,0 9419,0l0 19509 -75 0zm-4634 -8537c-336,0 -640,-137 -861,-357 -220,-221 -357,-525 -357,-861 0,-335 137,-640 357,-860 221,-221 525,-357 861,-357 335,0 640,136 860,357 221,220 357,525 357,860 0,336 -136,640 -357,861 -220,220 -525,357 -860,357z"/>
 </g>
</svg>
