<?xml version="1.0" encoding="UTF-8"?>
<!DOCTYPE svg PUBLIC "-//W3C//DTD SVG 1.1//EN" "http://www.w3.org/Graphics/SVG/1.1/DTD/svg11.dtd">
<!-- Creator: CorelDRAW X8 -->
<svg fill="#066cc7" xmlns="http://www.w3.org/2000/svg" xml:space="preserve" width="205.56mm" height="209.002mm" version="1.1" style="shape-rendering:geometricPrecision; text-rendering:geometricPrecision; image-rendering:optimizeQuality; fill-rule:evenodd; clip-rule:evenodd"
viewBox="0 0 20556 20900"
 xmlns:xlink="http://www.w3.org/1999/xlink">
 <defs>
 </defs>
 <g id="Слой_x0020_1">
  <metadata id="CorelCorpID_0Corel-Layer"/>
  <path class="fil0" d="M8784 725l318 496c678,-413 1443,-620 2208,-620 765,0 1530,207 2208,620l318 -496c-772,-483 -1649,-725 -2526,-725 -877,0 -1753,242 -2526,725zm-1654 4094l-589 0c3,298 34,595 92,887 58,291 144,577 256,853l544 -227c-98,-241 -172,-489 -223,-742 -50,-253 -77,-511 -80,-771zm5742 3829c-241,97 -489,172 -742,222 -252,51 -510,78 -769,80l0 589c297,-2 594,-33 886,-92 291,-58 577,-143 853,-256l-228 -543zm2620 -3829c-3,260 -30,518 -80,770 -51,253 -125,502 -223,742l544 227c112,-276 198,-561 256,-853 58,-291 89,-588 92,-886l-589 0zm-4181 -3442c-937,0 -1785,379 -2399,993 -614,614 -994,1463 -994,2399 0,937 380,1785 994,2399 614,614 1462,994 2399,994l0 0c936,-1 1784,-381 2398,-995 614,-614 994,-1461 995,-2398l0 0c0,-936 -380,-1785 -994,-2399 -614,-614 -1462,-993 -2399,-993zm0 6197c-774,0 -1476,-314 -1983,-822 -507,-507 -821,-1208 -821,-1983 0,-774 314,-1475 821,-1982 507,-508 1209,-822 1983,-822 774,0 1475,314 1983,822 507,507 821,1208 821,1982l0 0c-1,775 -315,1475 -822,1982 -507,508 -1208,821 -1982,822l0 1zm742 -2867l-448 -149 0 -990 67 23c105,37 194,103 260,187 56,73 95,159 111,253l591 0c-25,-258 -132,-494 -296,-679 -176,-197 -416,-337 -691,-384l-42 -7 0 -207 -588 0 0 207 -42 7c-275,47 -516,187 -691,384 -175,197 -285,452 -300,730 7,174 68,336 170,467 103,132 245,233 414,282 145,54 301,101 449,150l0 989 -67 -23c-105,-37 -194,-103 -260,-187 -56,-72 -95,-159 -111,-252l-591 0c25,258 132,494 296,679 175,197 416,337 691,384l42 7 0 207 588 0 0 -207 42 -7c275,-47 515,-187 691,-384 175,-197 285,-452 300,-730 -7,-174 -69,-336 -171,-468 -102,-131 -245,-232 -413,-282l-1 0zm-1102 -367l-196 -66c-51,-17 -95,-44 -126,-75 -36,-35 -57,-76 -57,-118l0 -4c10,-111 52,-214 118,-299 65,-84 155,-150 260,-187l67 -23 0 794 -66 -22zm654 1560l0 -723 262 88c51,17 95,44 126,74 36,35 56,77 56,119l0 4c-10,111 -51,214 -117,299 -66,84 -155,150 -260,186l-67 24 0 -71zm8865 8301l-1169 -1169 1169 -1169 0 0c57,-58 86,-133 86,-208 0,-76 -29,-151 -86,-208l0 0 -4476 -4476 0 0c-57,-57 -132,-86 -208,-86 -75,0 -150,29 -208,86l0 0 -4439 4440 -4784 -4784 0 0c-57,-57 -133,-86 -208,-86 -75,0 -151,29 -208,86l-4476 4475 0 0c-57,58 -86,133 -86,208 0,76 29,151 86,209l2596 2596 -4059 0 0 588 4425 0 0 0c20,0 40,-2 60,-6 19,-4 38,-10 56,-17l1 -1 2354 -1009 5153 0 0 1477 -3837 0c-81,0 -154,33 -208,87 -53,53 -86,126 -86,208 0,57 17,112 46,158 30,47 73,85 125,109l4475 2065c48,22 101,31 152,25 50,-5 100,-23 143,-54l0 0 5997 -4328 974 975c-2302,1974 -4604,3947 -6907,5919l-1904 0 -6492 -2391c-16,-6 -33,-11 -50,-14 -17,-3 -34,-5 -52,-5l0 1 -4425 0 0 588 4373 0 6492 2392c16,6 33,10 50,13l0 1c17,3 34,4 52,4l2065 0c35,0 70,-6 102,-18 33,-12 63,-30 89,-53l7230 -6197c62,-53 96,-125 102,-200 6,-76 -17,-153 -70,-215l-7 -8 -8 -8zm-13635 -1119c-20,0 -39,2 -59,6 -19,4 -38,10 -57,17 -56,28 -132,55 -191,79l42 -108c174,-454 517,-794 929,-977 412,-182 894,-208 1348,-33 221,85 420,213 587,374 168,161 303,355 397,572l30 70 -3026 0zm3638 -36c-148,-501 -452,-923 -849,-1220 -398,-296 -889,-467 -1411,-466 -597,4 -1146,228 -1564,600 -418,372 -706,891 -779,1483l-4 28c-377,162 -755,324 -1133,485 -882,-881 -1764,-1763 -2646,-2646 1354,-1352 2706,-2706 4060,-4059l5831 5831 -1495 0 -10 -36zm2156 4110l-3077 -1420 2792 0c81,0 154,-33 208,-86 53,-53 86,-127 86,-208l0 -1700 1996 1996c-660,477 -1319,954 -1979,1430l-26 -12zm42 -4243c67,-379 266,-707 545,-940 278,-232 636,-369 1021,-368 441,-1 840,177 1129,465 289,288 469,687 470,1128 0,385 -137,743 -369,1023 -232,279 -559,479 -939,549l-26 5 -1835 -1836 4 -26zm2388 2320c68,-28 134,-59 198,-92 64,-34 127,-72 188,-112l57 82 -385 278 -127 -128 69 -28zm3631 -2424c-1009,729 -2017,1473 -3033,2191l-61 -79 1 0c472,-377 747,-909 810,-1465 63,-557 -87,-1137 -463,-1610l0 0c-377,-472 -909,-747 -1465,-810 -557,-63 -1137,86 -1610,463 -146,116 -276,251 -387,399 -111,148 -204,311 -274,484l-29 69 -624 -624c1411,-1411 2821,-2821 4231,-4232 1354,1353 2707,2707 4060,4060 -384,383 -767,768 -1151,1151l-5 3z"/>
 </g>
</svg>
