<svg xmlns="http://www.w3.org/2000/svg" viewBox="0 0 498.54 595.26"><defs><style>.cls-1{fill:#066cc7;}</style></defs><title>overtime</title><g id="Слой_2" data-name="Слой 2"><g id="Слой_1-2" data-name="Слой 1"><g id="Слой_1-3" data-name="Слой_1"><g id="_688660032" data-name=" 688660032"><path class="cls-1" d="M217.47,287.06h.62A89,89,0,0,0,307,198.22V98.16h20.49A29.23,29.23,0,0,0,356.64,69V29.2A29.23,29.23,0,0,0,327.45,0H257.86a9.33,9.33,0,1,0,0,18.65h69.59A10.57,10.57,0,0,1,338,29.2V69a10.57,10.57,0,0,1-10.57,10.57H29.2A10.57,10.57,0,0,1,18.65,69V29.2A10.56,10.56,0,0,1,29.2,18.65H208.14a9.33,9.33,0,1,0,0-18.65H29.2A29.23,29.23,0,0,0,0,29.2V69a29.23,29.23,0,0,0,29.2,29.2H49.72V198.22a88.94,88.94,0,0,0,88.84,88.84h.62V308.2h-.62A88.94,88.94,0,0,0,49.72,397v29.85a9.31,9.31,0,0,0,18.62,0V397a70.32,70.32,0,0,1,70.21-70.21h9.95a9.31,9.31,0,0,0,9.33-9.33V277.76a9.31,9.31,0,0,0-9.33-9.33h-9.95a70.33,70.33,0,0,1-69.65-61.31H287.74a70.29,70.29,0,0,1-69.65,61.31h-9.95a9.31,9.31,0,0,0-9.3,9.33V317.5a9.31,9.31,0,0,0,9.3,9.33h9.95a70,70,0,0,1,13.66,1.36,166,166,0,0,1,16.53-14.71,88.69,88.69,0,0,0-30.19-5.27h-.62V287.06ZM185,437.2c-2.21-.11-4.42-.17-6.66-.17A129,129,0,0,0,69.5,497.1H68.34V476.58a9.31,9.31,0,1,0-18.62,0V497.1H29.2A29.23,29.23,0,0,0,0,526.29v39.77a29.23,29.23,0,0,0,29.2,29.2H289.64a161.7,161.7,0,0,1-35-18.65H29.2a10.56,10.56,0,0,1-10.54-10.54V526.29A10.57,10.57,0,0,1,29.2,515.72H202.08a163.87,163.87,0,0,1-7.91-18.62H92.32a110.36,110.36,0,0,1,86-41.44c2.38,0,4.73.09,7.09.23-.34-4.34-.54-8.73-.54-13.18C184.87,440.86,184.93,439,185,437.2ZM68.34,188.47V98.19h220v90.28Z"/><path class="cls-1" d="M178.32,318.12a9.35,9.35,0,0,0-9.33,9.33v9.95a9.33,9.33,0,1,0,18.65,0v-9.95A9.33,9.33,0,0,0,178.32,318.12Z"/><path class="cls-1" d="M178.32,357.89a9.35,9.35,0,0,0-9.33,9.33v9.95a9.33,9.33,0,1,0,18.65,0v-9.95A9.33,9.33,0,0,0,178.32,357.89Z"/><path class="cls-1" d="M178.32,397.66A9.33,9.33,0,0,0,169,407v9.95a9.33,9.33,0,0,0,18.65,0V407A9.31,9.31,0,0,0,178.32,397.66Z"/><path class="cls-1" d="M283.82,435.22a8.76,8.76,0,0,0-6.09-2.49,8.86,8.86,0,0,0-3.32.65,8.6,8.6,0,0,0-4.68,4.68,8.86,8.86,0,0,0-.65,3.32,8.5,8.5,0,0,0,2.52,6.09l49.63,49.63A7.55,7.55,0,0,0,324,499a6.91,6.91,0,0,0,1.59.48,8.52,8.52,0,0,0,1.73.17h.48a17,17,0,0,0,1.73-.34,10.59,10.59,0,0,0,3.26-1.64,9.26,9.26,0,0,0,1.33-1.25l.11-.11L458.35,347.57a8,8,0,0,0,1.56-2.95,9,9,0,0,0,.37-3.37,9.7,9.7,0,0,0-.94-3.29,8.37,8.37,0,0,0-2-2.66,9.09,9.09,0,0,0-2.92-1.56,9.07,9.07,0,0,0-6.66.6,8.37,8.37,0,0,0-2.66,2L326.71,478.13ZM427.45,315.15A150.7,150.7,0,0,0,381.05,296,148.81,148.81,0,0,0,283,307.24a151,151,0,0,0-41,29.25,149.45,149.45,0,0,0-32.48,48.64,151.63,151.63,0,0,0,0,115.34,149.15,149.15,0,0,0,32.48,48.64,152,152,0,0,0,22.76,18.71,150.2,150.2,0,0,0,166.84,0A152.31,152.31,0,0,0,483.63,508a149.44,149.44,0,0,0-8.36-145,8.32,8.32,0,0,0-2.32-2.44,8.58,8.58,0,0,0-3.06-1.39,8.7,8.7,0,0,0-3.32-.11,8.43,8.43,0,0,0-3.09,1.19,8.32,8.32,0,0,0-2.44,2.32,8.12,8.12,0,0,0-1.39,3.06,8.7,8.7,0,0,0-.11,3.32,8.43,8.43,0,0,0,1.19,3.09A133.13,133.13,0,0,1,478,413.17a131.08,131.08,0,0,1,2.55,44.42,132.47,132.47,0,0,1-12.42,42.8,134.78,134.78,0,0,1-26,36.51,132.67,132.67,0,0,1-43,28.74,133.24,133.24,0,0,1-145.13-28.74,131.88,131.88,0,0,1-28.74-43.06,134.11,134.11,0,0,1,0-102.07,131.47,131.47,0,0,1,28.74-43l.23-.23h0a135.6,135.6,0,0,1,36.23-25.68,132.7,132.7,0,0,1,87-10,134.74,134.74,0,0,1,41.21,17l.09.06a8.24,8.24,0,0,0,3,1.13,8.7,8.7,0,0,0,3.32-.09,8.67,8.67,0,0,0,5.36-3.83,8.34,8.34,0,0,0,1.08-6.43,8.47,8.47,0,0,0-1.36-3.06,9.12,9.12,0,0,0-2.47-2.3Z"/></g></g></g></g></svg>