<?xml version="1.0" encoding="UTF-8"?>
<!DOCTYPE svg PUBLIC "-//W3C//DTD SVG 1.1//EN" "http://www.w3.org/Graphics/SVG/1.1/DTD/svg11.dtd">
<!-- Creator: CorelDRAW X8 -->
<svg fill="#fff" xmlns="http://www.w3.org/2000/svg" xml:space="preserve" width="177.871mm" height="209.002mm" version="1.1" style="shape-rendering:geometricPrecision; text-rendering:geometricPrecision; image-rendering:optimizeQuality; fill-rule:evenodd; clip-rule:evenodd"
viewBox="0 0 17787 20900"
 xmlns:xlink="http://www.w3.org/1999/xlink">
 <defs>
 </defs>
 <g id="Слой_x0020_1">
  <metadata id="CorelCorpID_0Corel-Layer"/>
  <path class="fil0" d="M17507 4168l-2181 0 0 -900c0,-513 -209,-979 -546,-1316 -337,-337 -803,-546 -1316,-546 -229,0 -448,42 -651,118 -210,78 -402,194 -569,339l-80 70 -3 -107c-9,-505 -221,-962 -558,-1293 -336,-329 -796,-533 -1303,-533 -376,0 -726,112 -1019,304 -302,198 -543,482 -689,816l-31 71 -51 -57c-174,-190 -386,-344 -625,-449 -229,-101 -483,-158 -749,-158 -514,0 -979,209 -1316,546 -337,337 -546,803 -546,1316l0 600 -83 -72c-166,-144 -359,-260 -569,-339 -202,-75 -422,-117 -651,-117 -477,0 -912,180 -1242,476 -333,300 -558,717 -609,1186l-5 44 -1835 0 0 1c-78,0 -148,31 -198,82 -51,50 -82,120 -82,197l0 8790c0,77 31,147 82,198 50,50 120,82 198,82l1830 0 0 7103c0,78 31,147 81,198 51,51 121,82 198,82l0 0 8438 0 0 0c77,0 147,-31 198,-82 51,-51 82,-120 82,-198 0,-77 -31,-147 -82,-197 -51,-51 -121,-82 -198,-82l-8158 0 0 -2709c0,-1135 461,-2164 1206,-2909 746,-745 1774,-1206 2909,-1206l0 0 4922 0 0 0c77,0 147,-32 198,-82 51,-51 82,-121 82,-198l0 -3428c0,-286 116,-546 304,-734 189,-188 448,-305 735,-305l703 0c286,0 546,117 734,305 188,188 305,448 305,734l0 10532 -2358 0c-77,0 -147,31 -197,82 -51,50 -82,120 -82,197 0,78 31,147 82,198 50,51 120,82 197,82l2637 0c78,0 148,-31 198,-82 51,-51 82,-120 82,-198l0 -7103 2181 0c78,0 148,-32 198,-82 51,-51 82,-121 82,-198l0 -8790c0,-77 -31,-147 -82,-197 -50,-51 -120,-82 -198,-82zm-5345 -900c0,-359 146,-685 382,-921 235,-235 561,-381 920,-381 359,0 685,146 921,381 236,236 382,562 382,921l0 900 -2605 0 0 -900zm-3165 -879l0 -527c0,-359 146,-685 382,-921 236,-236 562,-382 921,-382 359,0 685,146 921,382 235,236 381,562 381,921l0 2306 -2605 0 0 -1779zm-5026 631c320,0 614,117 841,309 231,195 392,470 444,781l10 58 -2589 0 10 -58c51,-311 213,-586 444,-781 227,-192 520,-309 840,-309zm-1302 12207l0 -1710 1892 0 -156 93c-338,200 -648,442 -925,718 -276,277 -518,587 -718,925l-93 156 0 -182zm8758 -5418l0 1047 -12 14c-309,384 -693,686 -1123,892 -431,206 -906,316 -1398,316 -893,0 -1702,-363 -2288,-948 -586,-586 -949,-1396 -949,-2288 0,-892 363,-1701 949,-2287 586,-586 1395,-949 2288,-949 826,0 1582,306 2156,817 574,512 964,1228 1058,2047l3 29 -24 17c-204,148 -371,343 -487,569 -111,217 -173,463 -173,724zm5751 3148l-1852 0 0 -500c18,2 40,4 57,4 5,1 10,1 15,1l1055 0c77,0 147,-31 197,-82 51,-51 82,-120 82,-198 0,-77 -31,-147 -82,-197 -50,-51 -120,-82 -197,-82l0 -1 -1055 0 0 1c-5,0 -10,0 -15,0 -17,0 -39,3 -57,4l0 -2098c0,-440 -179,-840 -469,-1129 -289,-290 -689,-469 -1129,-469l-703 0c-57,0 -113,3 -166,9 -56,5 -111,14 -165,25l-51 11 -8 -51c-71,-417 -210,-817 -411,-1184 -200,-365 -461,-699 -775,-986 -351,-318 -752,-566 -1185,-733 -433,-168 -896,-255 -1370,-255 -1047,0 -1996,425 -2683,1113 -687,687 -1113,1636 -1113,2682 0,1047 426,1996 1113,2683 687,687 1636,1113 2683,1113 453,0 894,-80 1307,-231 416,-152 802,-377 1143,-666l83 -70 0 1286c-3623,1 -7245,0 -10868,0 0,-2743 0,-5487 0,-8230l5873 0c78,0 148,-31 198,-82 51,-51 82,-120 82,-198 0,-77 -31,-147 -82,-197 -50,-51 -120,-82 -198,-82l-599 0 0 -1779c0,-359 146,-685 382,-920 236,-236 561,-382 921,-382 359,0 684,146 920,382 236,235 382,561 382,920l0 1779 -511 0c-78,0 -148,31 -198,82 -51,50 -82,120 -82,197 0,77 31,147 82,198 50,51 120,82 198,82l9301 0 0 8230 -50 0zm-725 -7383l-2813 0c-77,0 -147,31 -198,82 -50,50 -82,120 -82,198 0,77 32,147 82,197 51,51 121,82 198,82l0 0 2813 0 0 0c77,0 147,-31 197,-82 51,-50 82,-120 82,-197 0,-78 -31,-148 -82,-198 -50,-51 -120,-82 -197,-82zm0 1406l-2110 0c-77,0 -147,32 -198,82 -50,51 -81,121 -81,198 0,77 31,147 81,198 51,50 121,82 198,82l2110 0c77,0 147,-32 197,-82 51,-51 82,-121 82,-198 0,-77 -31,-147 -82,-198 -50,-50 -120,-82 -197,-82zm-12306 -1406l-2813 0c-77,0 -147,31 -197,82 -51,50 -82,120 -82,198 0,77 31,147 82,197 50,51 120,82 197,82l0 0 2813 0 0 0c77,0 147,-31 198,-82 50,-50 82,-120 82,-197 0,-78 -32,-148 -82,-198 -51,-51 -121,-82 -198,-82zm-703 1406l-2110 0c-77,0 -147,32 -197,82 -51,51 -82,121 -82,198 0,77 31,147 82,198 50,50 120,82 197,82l2110 0c77,0 147,-32 198,-82 50,-51 82,-121 82,-198 0,-77 -32,-147 -82,-198 -51,-50 -121,-82 -198,-82zm-1055 4923l-1055 0c-77,0 -147,31 -197,81 -51,51 -82,121 -82,198 0,77 31,147 82,198 50,51 120,82 197,82l1055 0c77,0 147,-31 198,-82 50,-51 82,-121 82,-198 0,-77 -32,-147 -82,-198 -51,-50 -121,-81 -198,-81zm2461 0l-1054 0c-78,0 -148,31 -198,81 -51,51 -82,121 -82,198 0,77 31,147 82,198 50,51 120,82 198,82l1054 0c77,0 147,-31 198,-82 51,-51 82,-121 82,-198 0,-77 -31,-147 -82,-198 -51,-50 -121,-81 -198,-81zm-1933 -3165c-223,0 -425,91 -571,237 -146,146 -236,348 -236,570 0,223 90,425 236,571 146,146 348,236 571,236 222,0 424,-90 570,-236 146,-146 237,-348 237,-571 0,-222 -91,-424 -237,-570 -146,-146 -348,-237 -570,-237zm0 1055c-69,0 -131,-28 -176,-73 -44,-44 -72,-106 -72,-175 0,-68 28,-130 72,-175 45,-45 107,-72 176,-72 68,0 130,27 174,72l1 0c45,45 72,107 72,175l0 0c0,69 -28,130 -72,175l-1 0c-45,45 -106,73 -174,73zm7207 -2253c77,0 147,-32 198,-82 50,-51 82,-121 82,-198 0,-77 -32,-147 -82,-198 -51,-50 -121,-82 -198,-82l-951 0 0 -423c0,-77 -31,-147 -82,-198 -50,-50 -120,-82 -197,-82 -78,0 -148,32 -198,82 -51,51 -82,121 -82,198l0 423 -336 0c-198,0 -378,81 -508,211 -130,130 -211,310 -211,508l0 704c0,198 81,378 211,508 130,130 310,211 508,211l0 0 336 0 0 1023 -951 0c-77,0 -147,31 -198,82 -50,50 -82,120 -82,197 0,77 32,147 82,198 51,51 121,82 198,82l951 0 0 423c0,78 31,148 82,198 50,51 120,82 198,82 77,0 147,-31 197,-82 51,-50 82,-120 82,-198l0 -423 336 0c198,0 378,-81 508,-211 130,-130 211,-310 211,-508l0 -703c0,-199 -81,-378 -211,-509 -130,-130 -310,-210 -508,-210l0 -1 -336 0 0 -1022 951 0zm-1560 1022l-286 0c-44,0 -84,-17 -113,-46 -29,-29 -47,-69 -47,-113l0 -704c0,-44 18,-84 47,-113 29,-28 69,-46 113,-46l336 0 0 1022 -50 0zm945 560c44,0 84,18 113,47 29,29 47,69 47,113l0 703c0,44 -18,84 -47,113 -29,29 -69,47 -113,47l-336 0 0 -1023 336 0z"/>
 </g>
</svg>
