<svg xmlns="http://www.w3.org/2000/svg" viewBox="0 0 485.22 485.21"><defs><style>.cls-1{fill:#353b44;}</style></defs><title>pencil</title><g id="Слой_2" data-name="Слой 2"><g id="Capa_1" data-name="Capa 1"><path class="cls-1" d="M467.48,146.43,446,167.89,317.35,39.23,338.8,17.77a60.67,60.67,0,0,1,85.8,0l42.89,42.9A60.7,60.7,0,0,1,467.48,146.43ZM167.23,403.74a15.16,15.16,0,1,0,21.44,21.44L424.59,189.33l-21.47-21.46ZM60,296.54A15.16,15.16,0,0,0,81.44,318L317.35,82.11,295.91,60.67Zm278.77-193L102.88,339.42a30.32,30.32,0,1,0,42.91,42.85L381.68,146.43Zm-193,343c-7.25-7.26-10.75-16.46-12.05-25.95a61.21,61.21,0,0,1-9.36.92,59.25,59.25,0,0,1-59.79-69.39,45,45,0,0,1-26-12.74c-.68-.68-.92-1.6-1.54-2.34L0,485.21l147.75-37C147.1,447.63,146.36,447.19,145.73,446.57Z"/></g></g></svg>