<?xml version="1.0" encoding="iso-8859-1"?>
<!-- Generator: Adobe Illustrator 19.0.0, SVG Export Plug-In . SVG Version: 6.00 Build 0)  -->
<svg fill="#066cc7" version="1.1" id="Capa_1" xmlns="http://www.w3.org/2000/svg" xmlns:xlink="http://www.w3.org/1999/xlink" x="0px" y="0px"
	 viewBox="0 0 488.041 488.041" style="enable-background:new 0 0 488.041 488.041;" xml:space="preserve">
<g>
	<g>
		<path d="M486.77,240.213c-2.453-7.362-8.23-13.139-15.592-15.592l-0.008,0.016l-31.152-10.384
			c-20.334-6.78-41.629-10.235-63.064-10.232H312.89L182.29,39.052c-1.518-1.916-3.828-3.032-6.272-3.032h-40
			c-4.418-0.004-8.004,3.574-8.008,7.992c-0.001,0.964,0.172,1.921,0.512,2.824l58.952,157.184h-65.648
			c-7.008,0-14.008,0.16-21.008,0.336L46.93,112.02c-1.426-2.47-4.06-3.994-6.912-4h-32c-4.418,0.001-7.999,3.584-7.998,8.002
			c0,0.652,0.08,1.301,0.238,1.934l23.024,92.096l-2.24,0.28c-12.011,1.501-21.025,11.711-21.024,23.816v5.8
			c0.036,10.705,7.125,20.104,17.408,23.08l5.72,1.6L0.586,321.02c-1.657,4.096,0.32,8.759,4.416,10.416
			c0.958,0.388,1.982,0.586,3.016,0.584h32c2.284-0.002,4.459-0.98,5.976-2.688l43.248-48.648
			c31.507,5.934,63.41,9.527,95.448,10.752l-56.168,149.768c-1.555,4.135,0.536,8.749,4.672,10.304
			c0.903,0.34,1.86,0.513,2.824,0.512h40c2.444,0,4.754-1.116,6.272-3.032L306.562,292.02h70.4
			c21.432,0.003,42.724-3.453,63.056-10.232l31.16-10.4C484.093,267.085,491.073,253.127,486.77,240.213z M147.562,52.02h24.592
			l120.32,152h-87.912L147.562,52.02z M471.605,250.785c-0.862,2.576-2.884,4.597-5.459,5.459l-0.04-0.016l-31.2,10.4
			c-18.687,6.226-38.255,9.397-57.952,9.392h-57.736l15.064-19.032c2.744-3.464,2.16-8.496-1.304-11.24s-8.496-2.16-11.24,1.304
			L172.154,436.02h-24.592l67.952-181.184c1.546-4.14-0.556-8.75-4.696-10.296c-4.14-1.546-8.75,0.556-10.296,4.696l-9.928,26.464
			c-29.777-0.942-59.45-3.982-88.8-9.096l8.24-9.272c3.043-3.203,2.913-8.267-0.29-11.31c-3.203-3.043-8.267-2.913-11.31,0.29
			c-0.122,0.128-0.239,0.26-0.352,0.396L36.426,316.02H19.834l27.616-69.032c1.639-4.105-0.359-8.761-4.464-10.4
			c-4.105-1.639-8.761,0.359-10.4,4.464l-3.464,8.672l-7.304-2.088c-3.432-0.982-5.798-4.118-5.8-7.688v-5.8
			c0.079-4.218,3.354-7.683,7.56-8c3.12-0.384,6.235-0.757,9.344-1.12c4.044-0.46,7.098-3.882,7.096-7.952v-5.056
			c0.001-0.653-0.08-1.303-0.24-1.936L18.266,124.02h17.16l53.176,91.2c1.122,3.131,4.082,5.228,7.408,5.248h0.264
			c8.512-0.299,17.029-0.448,25.552-0.448h255.128c19.711-0.004,39.293,3.173,57.992,9.408l31.2,10.4
			C470.679,241.346,473.123,246.252,471.605,250.785z"/>
	</g>
</g>
<g>
	<g>
		<path d="M472.018,140.02h-32c-26.499-0.026-47.974-21.501-48-48v-24c0-4.418-3.582-8-8-8h-8c-26.499-0.026-47.974-21.501-48-48
			c0-4.418-3.582-8-8-8s-8,3.582-8,8c0.04,35.33,28.67,63.96,64,64v16c0.04,35.33,28.67,63.96,64,64h32c4.418,0,8-3.582,8-8
			S476.436,140.02,472.018,140.02z"/>
	</g>
</g>
<g>
	<g>
		<path d="M64.018,428.02h-3.2c7.755-17.466,6.163-37.668-4.232-53.704c-11.465-15.702-31.312-22.877-50.168-18.136
			c-4.33,0.884-7.124,5.11-6.24,9.44c0.884,4.33,5.11,7.124,9.44,6.24c12.633-3.451,26.092,1.179,33.928,11.672
			c8.88,12.616,8,31.144-2.352,48.368c-2.275,3.787-1.05,8.702,2.737,10.978c1.235,0.742,2.646,1.136,4.087,1.142h16
			c20.632,0,32,11.368,32,32c0,4.418,3.582,8,8,8s8-3.582,8-8C112.018,446.42,93.618,428.02,64.018,428.02z"/>
	</g>
</g>
<g>
	<g>
		<path d="M472.018,364.02c-34.016,0-56,21.984-56,56h-10.336c-7.93-0.087-15.797,1.417-23.136,4.424
			c-5.313-21.38-24.498-36.399-46.528-36.424h-8c-4.418,0-8,3.582-8,8s3.582,8,8,8h8c16.901,0.044,30.843,13.246,31.808,30.12
			c-10.78,11.207-16.494,26.345-15.808,41.88c0,4.418,3.582,8,8,8s8-3.582,8-8c0-25.048,14.08-40,37.664-40h18.336
			c4.418,0,8-3.582,8-8v-8c0-25.048,14.952-40,40-40c4.418,0,8-3.582,8-8S476.436,364.02,472.018,364.02z"/>
	</g>
</g>
<g>
	<g>
		<path d="M64.018,4.02c-4.418,0-8,3.582-8,8c-0.026,26.499-21.501,47.974-48,48c-4.418,0-8,3.582-8,8s3.582,8,8,8
			c35.33-0.04,63.96-28.67,64-64C72.018,7.602,68.436,4.02,64.018,4.02z"/>
	</g>
</g>
<g>
</g>
<g>
</g>
<g>
</g>
<g>
</g>
<g>
</g>
<g>
</g>
<g>
</g>
<g>
</g>
<g>
</g>
<g>
</g>
<g>
</g>
<g>
</g>
<g>
</g>
<g>
</g>
<g>
</g>
</svg>
