<?xml version="1.0" encoding="UTF-8"?>
<!DOCTYPE svg PUBLIC "-//W3C//DTD SVG 1.1//EN" "http://www.w3.org/Graphics/SVG/1.1/DTD/svg11.dtd">
<!-- Creator: CorelDRAW X8 -->
<svg fill="#066cc7" xmlns="http://www.w3.org/2000/svg" xml:space="preserve" width="208.005mm" height="200.51mm" version="1.1" style="shape-rendering:geometricPrecision; text-rendering:geometricPrecision; image-rendering:optimizeQuality; fill-rule:evenodd; clip-rule:evenodd"
viewBox="0 0 20801 20051"
 xmlns:xlink="http://www.w3.org/1999/xlink">
 <defs>
 </defs>
 <g id="Слой_x0020_1">
  <metadata id="CorelCorpID_0Corel-Layer"/>
  <path class="fil0" d="M20449 0l-15530 0c-97,0 -184,39 -248,103 -63,63 -103,151 -103,248l0 9068 -4217 0c-97,0 -185,39 -248,103 -64,63 -103,151 -103,248l0 7646c0,727 296,1385 773,1863 477,477 1136,772 1862,772l15530 0c727,0 1385,-295 1863,-772 477,-478 772,-1136 772,-1863l0 -17065 1 0c0,-97 -39,-185 -103,-248l0 0c-64,-64 -152,-103 -249,-103zm-19747 17416l0 -7295 3866 0 0 7295c0,533 -216,1016 -566,1366 -350,350 -834,567 -1367,567 -533,0 -1016,-217 -1366,-567 -350,-350 -567,-833 -567,-1366zm19396 0c0,533 -217,1016 -567,1366 -350,350 -833,567 -1366,567l-13726 0 151 -167c215,-238 388,-516 506,-821 113,-293 175,-611 175,-945l0 -16714 14827 0 0 16714zm-8047 -12406l5781 0c97,0 185,-39 249,-102 63,-64 103,-152 103,-249 0,-97 -40,-185 -103,-248 -64,-64 -152,-103 -249,-103l0 0 -5781 0 0 0c-97,0 -185,39 -248,103 -64,63 -103,151 -103,248 0,97 39,185 103,249 63,63 151,102 248,102zm0 4956l5781 0c97,0 185,-39 249,-103 63,-63 103,-151 103,-248 0,-97 -40,-185 -103,-248 -64,-64 -152,-103 -249,-103l0 -1 -5781 0 0 1c-97,0 -185,39 -248,103 -64,63 -103,151 -103,248 0,97 39,185 103,248 63,64 151,103 248,103zm0 4956l5781 0c97,0 185,-40 249,-103 63,-64 103,-151 103,-248 0,-97 -40,-185 -103,-249 -64,-63 -152,-103 -249,-103l0 0 -5781 0 0 0c-97,0 -185,40 -248,103 -64,64 -103,152 -103,249l-1 0c0,96 40,184 104,248 63,63 151,103 248,103zm-4090 -9372c33,34 72,62 116,81 44,18 91,28 139,28l4 0 0 1c48,-1 96,-11 139,-31 44,-19 84,-48 117,-84l2477 -2714c66,-71 96,-163 92,-253 -4,-89 -42,-178 -114,-243 -72,-65 -163,-96 -253,-92 -90,4 -178,43 -243,114l-2223 2435 -743 -787c-67,-71 -156,-108 -246,-110 -90,-3 -181,29 -251,96 -71,66 -108,155 -110,245 -3,90 29,181 96,252l1003 1062zm2474 1978l-2223 2435c-248,-263 -498,-524 -744,-788 -67,-70 -155,-107 -245,-109 -89,-3 -180,29 -251,96l-1 0c-70,67 -107,155 -109,245 -3,90 29,181 96,252l1003 1061c33,35 72,63 116,82 44,18 91,28 139,28l4 0 0 1c48,-1 96,-12 139,-31 44,-19 84,-48 117,-84l2477 -2714c66,-71 96,-163 92,-253 -4,-89 -42,-178 -114,-243l0 0c-72,-66 -163,-96 -253,-92 -90,4 -178,43 -243,114l0 0zm0 5171l-2223 2435 -744 -788c-66,-70 -155,-107 -245,-109 -89,-3 -180,29 -251,95l0 1c-71,66 -108,155 -110,245 -3,90 29,181 96,251l1003 1062c33,35 72,63 116,81 44,19 91,29 139,29l4 0 0 0c48,0 96,-11 139,-30 44,-19 84,-48 117,-84l2477 -2714c66,-72 96,-163 92,-253 -4,-90 -42,-178 -114,-243 -72,-66 -163,-96 -253,-92 -90,4 -178,43 -243,114z"/>
 </g>
</svg>
