<svg xmlns="http://www.w3.org/2000/svg" viewBox="0 0 490 490"><defs><style>.cls-1{fill:#353b44;}</style></defs><title>search</title><g id="Слой_2" data-name="Слой 2"><g id="Слой_1-2" data-name="Слой 1"><path class="cls-1" d="M484,455.2,366.2,337.4A205.77,205.77,0,0,0,413,206.5C413,92.5,320.5,0,206.5,0S0,92.5,0,206.5,92.4,413,206.5,413a205.41,205.41,0,0,0,130.8-46.7L455.1,484A20.4,20.4,0,0,0,484,455.2ZM206.5,371.9C115.2,371.9,41,297.7,41,206.5S115.2,41,206.5,41,372,115.3,372,206.5,297.7,371.9,206.5,371.9Z"/></g></g></svg>