<?xml version="1.0" encoding="iso-8859-1"?>
<!-- Generator: Adobe Illustrator 17.1.0, SVG Export Plug-In . SVG Version: 6.00 Build 0)  -->
<!DOCTYPE svg PUBLIC "-//W3C//DTD SVG 1.1//EN" "http://www.w3.org/Graphics/SVG/1.1/DTD/svg11.dtd">
<svg fill="#00aabe" version="1.1" id="Capa_1" xmlns="http://www.w3.org/2000/svg" xmlns:xlink="http://www.w3.org/1999/xlink" x="0px" y="0px"
	 viewBox="0 0 198.936 198.936" style="enable-background:new 0 0 198.936 198.936;" xml:space="preserve">
<path d="M99.468,0C44.621,0,0,44.621,0,99.468s44.621,99.467,99.468,99.467s99.468-44.621,99.468-99.467S154.314,0,99.468,0z
	 M149.657,88.334l-19.653,19.158l4.64,27.051c0.482,2.813-0.675,5.657-2.984,7.335c-1.307,0.949-2.854,1.432-4.409,1.432
	c-1.193,0-2.392-0.285-3.489-0.861l-24.293-12.772L75.175,142.45c-2.528,1.329-5.589,1.107-7.898-0.571
	c-2.31-1.678-3.467-4.522-2.984-7.335l4.64-27.051L49.278,88.334c-2.044-1.993-2.779-4.973-1.897-7.688
	c0.882-2.715,3.229-4.694,6.055-5.104l27.16-3.947l12.146-24.612c1.264-2.56,3.871-4.181,6.726-4.181s5.462,1.621,6.726,4.181
	l12.146,24.612l27.16,3.947c2.825,0.41,5.173,2.389,6.055,5.104C152.437,83.361,151.701,86.342,149.657,88.334z"/>
<g>
</g>
<g>
</g>
<g>
</g>
<g>
</g>
<g>
</g>
<g>
</g>
<g>
</g>
<g>
</g>
<g>
</g>
<g>
</g>
<g>
</g>
<g>
</g>
<g>
</g>
<g>
</g>
<g>
</g>
</svg>
