<?xml version="1.0" encoding="UTF-8"?>
<!DOCTYPE svg PUBLIC "-//W3C//DTD SVG 1.1//EN" "http://www.w3.org/Graphics/SVG/1.1/DTD/svg11.dtd">
<!-- Creator: CorelDRAW X8 -->
<svg fill="#066cc7" xmlns="http://www.w3.org/2000/svg" xml:space="preserve" width="186.676mm" height="208mm" version="1.1" style="shape-rendering:geometricPrecision; text-rendering:geometricPrecision; image-rendering:optimizeQuality; fill-rule:evenodd; clip-rule:evenodd"
viewBox="0 0 18668 20800"
 xmlns:xlink="http://www.w3.org/1999/xlink">
 <defs>
 </defs>
 <g id="Слой_x0020_1">
  <metadata id="CorelCorpID_0Corel-Layer"/>
  <path class="fil0" d="M13846 16243c-86,0 -164,34 -220,90 -56,57 -91,134 -91,220 0,85 35,163 91,219 56,56 134,91 220,91 85,0 163,-35 219,-91 56,-56 91,-134 91,-219 0,-86 -35,-163 -91,-220 -56,-56 -134,-90 -219,-90zm978 -1332l-1989 -663 -750 -1501 50 -50c309,-315 571,-680 773,-1076 201,-393 344,-815 416,-1247l101 -607 831 0c311,0 594,-127 799,-332 204,-204 331,-487 331,-798l0 -2585c0,-1668 -679,-3181 -1775,-4277 -1095,-1096 -2609,-1775 -4277,-1775 -1673,0 -3186,677 -4281,1772 -1095,1095 -1772,2608 -1772,4280l0 2585c0,242 77,467 207,651 134,189 325,335 547,414l67 24 0 551c0,312 126,594 331,799 205,205 488,332 799,332l424 0 27 58c87,189 187,372 300,546 112,174 236,339 372,495l1 1c27,31 56,63 86,96 31,33 61,64 90,94l50 50 -750 1500 -1989 663c-1112,371 -2072,1142 -2755,2133 -683,991 -1088,2201 -1088,3446 0,86 35,163 91,220 56,56 134,90 219,90l18047 0c86,0 164,-34 220,-90 56,-57 91,-134 91,-220l0 0c0,-1245 -405,-2455 -1088,-3446 -683,-991 -1644,-1762 -2756,-2133zm-58 -6274c0,140 -57,268 -150,360 -92,92 -220,150 -360,150l0 -1 -740 0 15 -112c52,-399 95,-816 129,-1241 34,-423 58,-846 72,-1263l5 -167 1029 0 0 2274zm-10354 510c-141,0 -268,-58 -361,-150 -92,-92 -149,-220 -149,-360l0 -2274 1029 0c2,77 5,153 7,230l1 3 -1 0c15,404 39,815 72,1226 34,415 76,821 127,1212l14 112 -639 0 0 1 -100 0zm820 1640c-141,0 -268,-57 -360,-149 -93,-93 -150,-220 -150,-361l0 -510 521 0 101 607c8,51 17,99 27,145 10,50 21,99 32,145l30 123 -201 0zm-409 -5045l-913 0 8 -107c106,-1407 749,-2666 1726,-3570 968,-896 2263,-1445 3690,-1445 1421,0 2717,550 3687,1447 977,904 1621,2162 1729,3568l8 107 -1011 0 -2 -99c-14,-1106 -473,-2108 -1205,-2833 -730,-722 -1733,-1169 -2839,-1169l0 -1 -734 0 0 1c-1107,0 -2109,447 -2839,1169 -733,725 -1191,1727 -1206,2833l-1 99 -98 0zm4144 -3481l736 0 0 0c946,1 1801,388 2420,1011 620,623 1002,1482 1002,2426l0 2c0,37 0,98 -1,183 0,58 -1,112 -2,163l-2 117 -625 -90c-707,-101 -1395,-318 -2033,-637 -637,-319 -1224,-739 -1729,-1244l0 0c-29,-29 -63,-52 -101,-67 -36,-15 -77,-23 -119,-23 -535,0 -1059,121 -1533,346 -476,225 -903,554 -1243,967l-210 255 34 -329c89,-866 502,-1640 1117,-2196 606,-549 1408,-884 2289,-884zm-2906 8455c-101,-337 -209,-987 -299,-1714 -95,-766 -170,-1624 -197,-2292l-2 -35 574 -764c262,-349 596,-632 974,-835 378,-203 800,-324 1235,-349l43 -2 31 29c545,519 1170,949 1845,1277 674,326 1398,551 2142,657l694 99 -5 91c-20,429 -51,860 -91,1284 -41,425 -92,839 -150,1232l0 1c-26,174 -49,309 -86,532 -18,109 -40,239 -58,344l0 1c-113,681 -428,1329 -883,1844 -440,500 -1013,875 -1664,1038 -272,68 -551,102 -830,102 -279,0 -558,-34 -831,-102 -416,-104 -815,-301 -1171,-575 -350,-270 -658,-615 -900,-1020l-90 -151 1082 0 24 66c78,223 225,413 414,547 184,130 409,207 651,207l821 0c312,0 595,-126 799,-331 205,-205 331,-487 331,-800 0,-311 -127,-594 -331,-799 -205,-204 -488,-331 -799,-331l0 0 -821 0 0 0c-245,0 -469,77 -651,206 -191,135 -338,328 -415,548l-24 66 -1341 0 -21 -71zm2438 3074c138,29 277,51 416,65 138,15 278,22 419,22 109,0 218,-5 326,-14 112,-9 221,-22 328,-40l292 -48 -998 1056 -1111 -1111 328 70zm290 1563l-1398 1477 -64 -124c-182,-347 -350,-699 -503,-1055 -153,-354 -294,-717 -422,-1088l-13 -39 569 -1139 1897 1897 -66 71zm2913 -1983l577 1154 -14 39c-128,371 -269,735 -422,1089 -153,356 -321,708 -502,1055l-63 120 -1557 -1557 1917 -2027 64 127zm-3699 -2273c0,-140 57,-268 150,-360 92,-93 220,-150 360,-150l821 0c140,0 268,58 360,150 93,92 150,220 150,360 0,141 -57,269 -150,361 -92,93 -219,150 -360,150l0 -1 -821 0 0 1c-140,0 -268,-58 -360,-150 -92,-92 -150,-220 -150,-361zm-7366 8975c83,-1038 472,-2030 1072,-2838 597,-803 1405,-1425 2331,-1734l1819 -606 33 91c157,434 333,863 527,1284 194,421 405,833 633,1233l2 4c166,292 344,582 531,868 186,284 382,564 586,836l4 7 600 963 -8147 0 9 -108zm8612 -305l-556 -893 -8 -11 -7 -11 0 0c-167,-223 -329,-451 -483,-681 -157,-234 -306,-471 -448,-709l-38 -64 1585 -1677 1669 1669 -40 67c-142,239 -292,477 -450,712 -155,232 -316,460 -483,683l0 0 -2 2c-5,7 -6,9 -36,57l-87 139c-80,129 -215,347 -446,717l-85 136 -85 -136zm739 260l504 -810 5 -7c203,-270 400,-552 589,-841 189,-288 367,-581 535,-876l2 -4 0 -1 3 -5 1 -1 1 -1 0 0c225,-397 434,-805 626,-1223 192,-417 366,-842 522,-1273l33 -91 1818 606c927,309 1734,931 2331,1734 601,808 989,1800 1072,2838l9 108 -8146 0 95 -153zm6621 -1562c-134,-269 -299,-521 -489,-752 -191,-231 -407,-441 -644,-623l0 -1 0 0c-68,-52 -151,-71 -229,-61 -79,10 -154,50 -206,118l0 1 0 0c-53,68 -72,150 -62,229 10,79 51,154 119,206 199,153 382,331 543,526 161,196 300,409 413,634 38,77 104,131 179,156 75,25 160,21 237,-17 77,-38 131,-104 156,-179 25,-75 21,-160 -17,-237z"/>
 </g>
</svg>
