<svg xmlns="http://www.w3.org/2000/svg" viewBox="0 0 493.35 512"><defs><style>.cls-1{fill:#066cc7;}</style></defs><title>surgery</title><g id="Слой_2" data-name="Слой 2"><g id="Capa_1" data-name="Capa 1"><circle class="cls-1" cx="33.53" cy="74.6" r="7.39"/><path class="cls-1" d="M205.74,371.46V350.83a7.5,7.5,0,0,0-15,0v20.62a7.5,7.5,0,0,0,15,0Z"/><circle class="cls-1" cx="459.82" cy="74.6" r="7.39"/><path class="cls-1" d="M463.2,41.24,443.58,9.68A20.48,20.48,0,1,0,408.78,31.3L428.4,62.86a33.52,33.52,0,0,0-2.11,11.8c0,.54,0,1.07,0,1.61L371,123.54A86.47,86.47,0,0,0,290.34,139a18.56,18.56,0,0,0-11.84,35.16l138,50.24a18.56,18.56,0,0,0,13.53-34.55,86.58,86.58,0,0,0-22.56-43.65l45.41-38.77a33.56,33.56,0,0,0,6.89.71h.06a33.53,33.53,0,0,0,3.32-66.89ZM421.52,23.39a5.48,5.48,0,1,1,9.31-5.79L447,43.6a33.34,33.34,0,0,0-9.3,5.81ZM413,183.57l-3.16-1.15a7.5,7.5,0,0,0-5.13,14.1l16.06,5.85h0l3.35,1.22a3.57,3.57,0,1,1-2.44,6.7l-138-50.24a3.57,3.57,0,1,1,2.44-6.71l3.3,1.2.07,0,82.37,30a7.5,7.5,0,1,0,5.13-14.1l-69.47-25.29A71.63,71.63,0,0,1,413,183.57Zm-16.87-47.36a86.51,86.51,0,0,0-9.71-6.13l44.71-38.18a33.8,33.8,0,0,0,7.13,8.33Zm63.74-43.08h0a18.53,18.53,0,0,1,0-37.07h0a18.53,18.53,0,0,1,0,37.07Z"/><path class="cls-1" d="M88.95,111.92a86.67,86.67,0,0,0-15,34.66,18.55,18.55,0,0,0,13.53,34.54l138-50.24a18.56,18.56,0,0,0-11.84-35.16,86.47,86.47,0,0,0-83.41-14.51l-65-18.78L84.57,31.3A20.48,20.48,0,1,0,49.77,9.68L30.15,41.24a33.53,33.53,0,0,0,3.32,66.9h.06a33.36,33.36,0,0,0,19.8-6.49Zm125.63-.63h0l3.34-1.22a3.54,3.54,0,0,1,1.21-.22,3.62,3.62,0,0,1,1.51.34,3.57,3.57,0,0,1-.29,6.58L82.32,167a3.57,3.57,0,1,1-2.44-6.7l3.35-1.22h0ZM134.5,95.61a71.49,71.49,0,0,1,62,6.3L91,140.3a71.53,71.53,0,0,1,16.43-27.15h0A71.6,71.6,0,0,1,134.5,95.61ZM66.83,78.51l43.68,12.61A86.29,86.29,0,0,0,100,99.49L63.79,89A33.29,33.29,0,0,0,66.83,78.51ZM62.51,17.6a5.48,5.48,0,1,1,9.32,5.79l-16.18,26a33.36,33.36,0,0,0-9.3-5.81Zm-29,75.54h0a18.53,18.53,0,0,1,0-37.07h0a18.53,18.53,0,0,1,0,37.07Z"/><path class="cls-1" d="M403.13,355.25V335.37a7.5,7.5,0,0,0-15,0v19.89a7.5,7.5,0,1,0,15,0Z"/><path class="cls-1" d="M116.49,299.46A7.5,7.5,0,0,0,109,307v19.57a7.5,7.5,0,0,0,15,0V307A7.5,7.5,0,0,0,116.49,299.46Z"/><path class="cls-1" d="M422.35,296.94H189.9A22.3,22.3,0,0,1,174,290.36L99.55,215.89c-11.44-11.44-30-11.73-41.35-.65a28.92,28.92,0,0,0-8.79,20.86v99.37A27.93,27.93,0,0,0,62.5,359.21l36.45,23a7.5,7.5,0,0,0,8-12.68l-36.45-23a13,13,0,0,1-6.09-11.05V236.1A14,14,0,0,1,68.68,226c5.51-5.37,14.6-5.15,20.26.52L163.42,301a37.21,37.21,0,0,0,26.48,11H422.35a14.16,14.16,0,0,1,14.14,14.14v43.43a26.63,26.63,0,0,1-26.6,26.6H333.16V350.84a7.5,7.5,0,0,0-15,0v45.28H163.84a51,51,0,0,1-27.28-7.89,7.5,7.5,0,0,0-8,12.68,66,66,0,0,0,35.29,10.21h32.39v10.55a19,19,0,0,0,19,19h6.63v27.51H193.16A19.85,19.85,0,0,0,173.34,488v9.9A14.1,14.1,0,0,0,187.42,512H327.49a14.1,14.1,0,0,0,14.08-14.08V488a19.85,19.85,0,0,0-19.82-19.82H293V440.68h6.63a19,19,0,0,0,19-19V411.11h91.21a41.65,41.65,0,0,0,41.6-41.6V326.08A29.17,29.17,0,0,0,422.35,296.94ZM321.74,483.19a4.83,4.83,0,0,1,4.82,4.82v9H188.34v-9a4.83,4.83,0,0,1,4.82-4.82Zm-84.87-15V440.68H278v27.51Zm62.78-42.51H215.25a4,4,0,0,1-4-4V411.11h92.44v10.55h0A4,4,0,0,1,299.66,425.68Z"/></g></g></svg>