<?xml version="1.0" encoding="UTF-8"?>
<!DOCTYPE svg PUBLIC "-//W3C//DTD SVG 1.1//EN" "http://www.w3.org/Graphics/SVG/1.1/DTD/svg11.dtd">
<!-- Creator: CorelDRAW X8 -->
<svg xmlns="http://www.w3.org/2000/svg" xml:space="preserve" width="61.595mm" height="61.595mm" version="1.1" style="shape-rendering:geometricPrecision; text-rendering:geometricPrecision; image-rendering:optimizeQuality; fill-rule:evenodd; clip-rule:evenodd"
viewBox="0 0 6160 6160"
 xmlns:xlink="http://www.w3.org/1999/xlink">
 <defs>
  <style type="text/css">
   <![CDATA[
    .fil0 {fill:#6091D1}
    .fil1 {fill:#7FD4D4}
    .fil4 {fill:#9CC3E8}
    .fil2 {fill:#C263A4}
    .fil5 {fill:#ED9D85}
    .fil3 {fill:#F0CE8B}
   ]]>
  </style>
 </defs>
 <g id="Слой_x0020_1">
  <metadata id="CorelCorpID_0Corel-Layer"/>
  <path class="fil0" d="M2216 3080l-2216 0c0,-1701 1379,-3080 3080,-3080 91,0 183,4 274,12l-197 2208c-26,-3 -51,-4 -77,-4 -477,0 -864,387 -864,864z"/>
  <path class="fil1" d="M3867 2725l2021 -909c179,397 272,828 272,1264 0,356 -62,710 -184,1046l-2084 -753c33,-91 51,-190 51,-293 0,-127 -27,-247 -76,-355z"/>
  <path class="fil2" d="M3112 2217l81 -2215c1170,43 2215,746 2695,1814l-2021 909c-131,-291 -418,-496 -755,-508z"/>
  <path class="fil3" d="M3892 3373l2084 753c-404,1120 -1418,1906 -2603,2020l-211 -2207c338,-32 619,-258 730,-566z"/>
  <path class="fil4" d="M2370 3572l-1820 1264c-358,-516 -550,-1128 -550,-1756 0,0 0,0 0,0l2216 0c0,183 57,352 154,492z"/>
  <path class="fil5" d="M3162 3939l211 2207c-98,9 -195,14 -293,14 -1009,0 -1955,-495 -2530,-1324l1820 -1264c156,224 416,371 710,371 27,0 55,-1 82,-4z"/>
 </g>
</svg>
